<svg id="Group_3" data-name="Group 3" xmlns="http://www.w3.org/2000/svg" width="74" height="77" viewBox="0 0 74 77">
  <g id="icon_profile" data-name="icon/profile">
    <circle id="Oval" cx="10.909" cy="10.909" r="10.909" transform="translate(25.091 6)" fill="none" stroke="#003d4c"
      stroke-linecap="round" stroke-linejoin="round" stroke-miterlimit="10" stroke-width="2" />
    <path id="Path_Copy" data-name="Path Copy" d="M24,0A24,24,0,0,1,0,24L.031,0Z"
      transform="translate(36 63) rotate(-90)" fill="none" stroke="#003d4c" stroke-linecap="round"
      stroke-linejoin="round" stroke-miterlimit="10" stroke-width="2" />
    <path id="Path" d="M24,24A24,24,0,0,0,0,0L.031,24" transform="translate(12 63) rotate(-90)" fill="none"
      stroke="#003d4c" stroke-linecap="round" stroke-linejoin="round" stroke-miterlimit="10" stroke-width="2" />
  </g>
  <g id="icon_caution" data-name="icon/caution" transform="translate(42 45)">
    <path id="Path-2" data-name="Path" d="M0,0,18.853,18.853" transform="translate(6.573 6.573)" fill="none"
      stroke="#003d4c" stroke-linecap="round" stroke-linejoin="round" stroke-miterlimit="10" stroke-width="2" />
    <path id="Path-3" data-name="Path"
      d="M13.333,26.667A13.333,13.333,0,1,0,0,13.333,13.333,13.333,0,0,0,13.333,26.667Z"
      transform="translate(2.667 2.667)" fill="none" stroke="#003d4c" stroke-linecap="round" stroke-linejoin="round"
      stroke-miterlimit="10" stroke-width="2" />
  </g>
</svg>