<svg xmlns="http://www.w3.org/2000/svg" width="23" height="27" viewBox="0 0 23 27"><defs><clipPath id="zhw0a"><path fill="#fff" d="M10 6.5a6.5 6.5 0 1 1 13 0 6.5 6.5 0 0 1-13 0z"/></clipPath></defs><g><g><g><g><path fill="none" stroke="#003d4c" stroke-linecap="round" stroke-linejoin="round" stroke-miterlimit="20" stroke-width="2" d="M10.844 4v0H3.25c-.597 0-1.169.232-1.591.644A2.175 2.175 0 0 0 1 6.2v17.6c0 .584.237 1.143.659 1.556.422.412.994.644 1.591.644h13.5c.597 0 1.169-.232 1.59-.644.423-.413.66-.972.66-1.556V11.7"/></g><g><path fill="none" stroke="#003d4c" stroke-linecap="round" stroke-linejoin="round" stroke-miterlimit="20" stroke-width="2" d="M14.241 16.517H5.414"/></g><g><path fill="none" stroke="#003d4c" stroke-linecap="round" stroke-linejoin="round" stroke-miterlimit="20" stroke-width="2" d="M14.241 20.931H5.414"/></g></g><g><path fill="#fff" d="M10 6.5a6.5 6.5 0 1 1 13 0 6.5 6.5 0 0 1-13 0z"/><path fill="none" stroke="#00d0b5" stroke-miterlimit="20" stroke-width="4" d="M10 6.5a6.5 6.5 0 1 1 13 0 6.5 6.5 0 0 1-13 0z" clip-path="url(&quot;#zhw0a&quot;)"/></g><g><path fill="none" stroke="#00d0b5" stroke-linecap="round" stroke-linejoin="round" stroke-miterlimit="20" stroke-width="2" d="M14.5 7v0l1 1v0l3-3v0"/></g></g></g></svg>