<svg xmlns="http://www.w3.org/2000/svg" width="26" height="31" viewBox="0 0 26 31"><defs><clipPath id="axa9a"><path fill="#fff" d="M11 7.5a7.5 7.5 0 1 1 15 0 7.5 7.5 0 0 1-15 0z"/></clipPath></defs><g><g><g><g><path fill="none" stroke="#003d4c" stroke-linecap="round" stroke-linejoin="round" stroke-miterlimit="20" stroke-width="2" d="M12.388 4.548v0H3.603c-.69 0-1.352.268-1.84.745A2.517 2.517 0 0 0 1 7.093v20.362c0 .675.274 1.322.762 1.8.489.477 1.15.745 1.841.745h15.619c.69 0 1.352-.268 1.84-.745a2.517 2.517 0 0 0 .763-1.8V13.456"/></g><g><path fill="none" stroke="#003d4c" stroke-linecap="round" stroke-linejoin="round" stroke-miterlimit="20" stroke-width="2" d="M16.32 19.03H6.105"/></g><g><path fill="none" stroke="#003d4c" stroke-linecap="round" stroke-linejoin="round" stroke-miterlimit="20" stroke-width="2" d="M16.32 24.136H6.105"/></g></g><g><path fill="#f2f2f2" d="M11 7.5a7.5 7.5 0 1 1 15 0 7.5 7.5 0 0 1-15 0z"/><path fill="none" stroke="#003d4c" stroke-miterlimit="20" stroke-width="4" d="M11 7.5a7.5 7.5 0 1 1 15 0 7.5 7.5 0 0 1-15 0z" clip-path="url(&quot;#axa9a&quot;)"/></g><g><path fill="none" stroke="#003d4c" stroke-linecap="round" stroke-linejoin="round" stroke-miterlimit="20" stroke-width="2" d="M16.618 8.08v0l1.157 1.158v0l3.471-3.47v0"/></g></g></g></svg>