<svg xmlns="http://www.w3.org/2000/svg" width="35" height="16" viewBox="0 0 35 16"><g><g><path fill="#003d4c" d="M34.087 0c.385 0 .696.312.696.696v13.913c0 .384-.311.695-.696.695H.696A.696.696 0 0 1 0 14.61V.696C0 .312.312 0 .696 0zM5.361 6.753L6.753 5.36a.695.695 0 1 0-.984-.983L4.378 5.769a.695.695 0 1 0 .983.984zm1.392 4.174l5.565-5.566a.695.695 0 1 0-.984-.983L5.77 9.943a.695.695 0 1 0 .984.984zm5.565 0l5.565-5.566a.695.695 0 1 0-.983-.983l-5.566 5.565a.695.695 0 1 0 .984.984zm5.565 0l5.565-5.566a.695.695 0 1 0-.983-.983L16.9 9.943a.695.695 0 1 0 .983.984zm5.565 0l5.566-5.566a.695.695 0 1 0-.984-.983l-5.565 5.565a.695.695 0 1 0 .983.984zm6.957-1.392a.695.695 0 1 0-.984-.983L28.03 9.943a.695.695 0 1 0 .984.984z"/></g></g></svg>