<svg xmlns="http://www.w3.org/2000/svg" width="44" height="42" viewBox="0 0 44 42"><g><g opacity=".25"><path fill="#003d4c" d="M43.777 27.49a.692.692 0 0 1 .223.504v3.548c0 .19-.08.371-.223.505a.778.778 0 0 1-.536.207h-9.104v5.675h2.277c.2-.002.394.073.536.207a.692.692 0 0 1 .223.504v2.133c0 .19-.08.371-.223.505a.778.778 0 0 1-.536.207h-6.07a.778.778 0 0 1-.535-.207.692.692 0 0 1-.223-.505v-2.129c0-.19.08-.371.223-.505a.778.778 0 0 1 .536-.207h2.276v-5.678H11.379v5.675h2.276c.201-.002.394.073.536.207a.692.692 0 0 1 .223.504v2.133c0 .19-.08.371-.223.505a.778.778 0 0 1-.536.207H7.586a.778.778 0 0 1-.536-.207.692.692 0 0 1-.223-.505v-2.129c0-.19.08-.371.223-.505a.778.778 0 0 1 .536-.207h2.276v-5.678H.759a.778.778 0 0 1-.536-.207.692.692 0 0 1-.223-.505v-3.546c0-.19.08-.371.223-.505a.778.778 0 0 1 .536-.207h1.517v-3.23a11.48 11.48 0 0 1-1.41.299l-.213-1.419c5.25-.702 9.21-5.238 9.21-10.554.012-.387.348-.694.758-.694.41 0 .745.307.758.694 0 5.87 4.765 10.647 10.622 10.647 5.856 0 10.62-4.777 10.62-10.646.013-.387.349-.694.759-.694.41 0 .745.307.758.694 0 5.316 3.96 9.851 9.21 10.54l-.213 1.419a11.49 11.49 0 0 1-1.411-.285v3.23h1.517c.2-.001.393.073.536.206zm-3.57-3.932a12.05 12.05 0 0 1-2.276-1.242v4.969h2.276zm-11.38-1.242c-.707.495-1.47.914-2.276 1.25v3.719h2.276zm-3.793 1.74c-.743.202-1.505.333-2.275.39v2.837h2.275zm-520.034 0zm516.24.39a12.029 12.029 0 0 1-2.275-.39v3.226h2.275zm-3.792-.886a12.084 12.084 0 0 1-2.276-1.249v4.969h2.275v-3.691zM3.793 27.28H6.07V22.31c-.706.505-1.47.934-2.276 1.278zm6.07.003V18.17a12.126 12.126 0 0 1-2.275 2.953v6.156zm1.516.002h2.276V21.13a12.172 12.172 0 0 1-2.276-2.945zm21.242 0v-9.1a12.172 12.172 0 0 1-2.276 2.946v6.154zm1.516.002h2.277v-6.16a12.126 12.126 0 0 1-2.276-2.954zM14.946 2.788C16.82 1.09 19.358.141 21.999.152c4.053 0 7.704 2.233 9.247 5.654 1.543 3.422.673 7.355-2.205 9.961-2.877 2.606-7.192 3.368-10.926 1.93-3.734-1.437-6.148-4.79-6.115-8.49.011-2.412 1.07-4.72 2.946-6.419zm7.823 1.542V2.638H21.23v1.691h-.224c-1.1-.015-2.126.512-2.682 1.38a2.579 2.579 0 0 0 0 2.812c.556.868 1.581 1.396 2.682 1.38h.223v2.786h-.223a1.608 1.608 0 0 1-1.086-.405 1.34 1.34 0 0 1-.452-.988H17.93c.007 1.545 1.385 2.792 3.076 2.785h.223v1.693h1.539V14.08h.223c1.101.016 2.127-.512 2.682-1.38a2.579 2.579 0 0 0 0-2.811c-.555-.869-1.58-1.396-2.682-1.38h-.223V5.725h.223c.406-.002.797.144 1.086.405.288.261.451.616.452.988h1.539c-.008-1.545-1.385-2.792-3.077-2.786zM22 9.764h.255c.624 0 1.2.275 1.511.72.312.447.312.997 0 1.443-.311.446-.887.72-1.51.72H22zM19 7.36c.001-.384.186-.752.514-1.023.328-.27.771-.421 1.232-.419H21v2.884h-.254a1.931 1.931 0 0 1-1.232-.42c-.328-.27-.513-.638-.514-1.022z"/></g></g></svg>