<svg xmlns="http://www.w3.org/2000/svg" width="19" height="15" viewBox="0 0 19 15"><g><g><path fill="#003d4c" d="M16.925 11.276a2.848 2.848 0 0 0-2.674-1.844c-1.194 0-2.26.736-2.673 1.844h-4.15a2.848 2.848 0 0 0-2.674-1.844c-1.194 0-2.261.736-2.674 1.844H1.9V7.518h15.196v3.758zm-2.679 1.88a.945.945 0 0 1-.95-.94c0-.519.426-.94.95-.94.525 0 .95.421.95.94 0 .519-.425.94-.95.94zm-9.497 0a.945.945 0 0 1-.95-.94c0-.519.425-.94.95-.94.524 0 .95.421.95.94 0 .519-.426.94-.95.94zM1.899 1.88h1.9v3.758h-1.9zm5.7 3.758h-1.9V1.88h1.9zm3.798 0h-1.9V1.88h1.9zm5.699 0h-3.8V1.88h3.02zm.95-4.886a.948.948 0 0 0-.95-.752H.95C.425 0 0 .42 0 .94v11.276c0 .519.425.94.95.94h1.12A2.848 2.848 0 0 0 4.744 15c1.194 0 2.26-.736 2.674-1.844h4.15A2.848 2.848 0 0 0 14.242 15c1.193 0 2.26-.736 2.673-1.844h1.13c.525 0 .95-.421.95-.94V5.638a.93.93 0 0 0 0-.188z"/></g></g></svg>