<svg xmlns="http://www.w3.org/2000/svg" width="20" height="21" viewBox="0 0 20 21"><g><g><g><path fill="#003d4c" d="M7.657 20.891c.804 0 1.456-.656 1.456-1.465 0-.81-.652-1.466-1.456-1.466-.805 0-1.457.656-1.457 1.466 0 .81.652 1.465 1.457 1.465z"/></g><g><path fill="#003d4c" d="M15.547 20.891c.804 0 1.456-.656 1.456-1.465 0-.81-.652-1.466-1.456-1.466-.805 0-1.457.656-1.457 1.466 0 .81.652 1.465 1.457 1.465z"/></g><g><path fill="#003d4c" d="M16.807 11.736H6.547L5.503 4.573h12.63zm2.935-8.498a.807.807 0 0 0-.609-.284H5.286l-.153-1.116C4.981.854 4.133.11 3.155.11H.895A.805.805 0 0 0 .09.92c0 .459.348.809.804.809h2.24c.195 0 .369.153.39.35l1.827 12.71c.174 1.202 1.217 2.121 2.435 2.121h8.695c.435 0 .805-.35.805-.81a.805.805 0 0 0-.805-.809H7.786c-.413 0-.783-.328-.848-.743l-.152-1.204H17.48a.796.796 0 0 0 .783-.656l1.63-8.772a.84.84 0 0 0-.152-.678z"/></g><g><path fill="#003d4c" d="M14.977 8.82H8.564a.805.805 0 0 0-.804.81c0 .437.348.809.804.809h6.413c.435 0 .805-.35.805-.81 0-.459-.37-.809-.805-.809z"/></g><g><path fill="#003d4c" d="M8.004 7.499h7.566c.434 0 .804-.35.804-.81 0-.459-.348-.809-.804-.809H8.004a.805.805 0 0 0-.804.81c0 .459.348.809.804.809z"/></g></g></g></svg>