<svg xmlns="http://www.w3.org/2000/svg" width="21.902" height="16.17" viewBox="0 0 21.902 16.17">
    <g id="icon_category_wifi" data-name="icon/category/wifi" transform="translate(-3.02 -6.007)">
        <path id="Path" d="M.688.679a2.333,2.333,0,1,0,3.29,0A2.333,2.333,0,0,0,.688.679Z"
            transform="translate(11.667 17.51)" fill="#003d4c" />
        <path id="Path-2" data-name="Path"
            d="M8.87,4.24a1.167,1.167,0,0,0,1.027.6,1.1,1.1,0,0,0,.56-.152A1.167,1.167,0,0,0,10.912,3.1a6.125,6.125,0,0,0-.968-1.272,6.242,6.242,0,0,0-8.82,0,5.833,5.833,0,0,0-.968,1.26A1.176,1.176,0,1,0,2.2,4.251a3.15,3.15,0,0,1,.583-.758,3.9,3.9,0,0,1,5.507,0,3.15,3.15,0,0,1,.583.747Z"
            transform="translate(8.467 13.599)" fill="#003d4c" />
        <path id="Path-3" data-name="Path"
            d="M15.278,5.931A1.175,1.175,0,0,0,16.235,4.1a8.517,8.517,0,0,0-.957-1.167,10.045,10.045,0,0,0-14.187,0A8.517,8.517,0,0,0,.135,4.1a1.167,1.167,0,0,0,1.925,1.3A6.218,6.218,0,0,1,2.748,4.6a7.7,7.7,0,0,1,10.873,0,6.218,6.218,0,0,1,.688.793,1.167,1.167,0,0,0,.968.537Z"
            transform="translate(5.815 9.772)" fill="#003d4c" />
        <path id="Path-4" data-name="Path"
            d="M20.78,6.978a1.167,1.167,0,0,0,.852-1.913c-.292-.338-.595-.688-.922-1.015a13.825,13.825,0,0,0-19.553,0c-.327.327-.63.677-.922,1.015A1.167,1.167,0,0,0,.48,6.71a1.167,1.167,0,0,0,1.645-.152c.245-.292.5-.572.782-.852a11.468,11.468,0,0,1,16.24-.047c.28.28.537.56.782.852A1.167,1.167,0,0,0,20.78,6.978Z"
            transform="translate(3.02 6.007)" fill="#003d4c" />
    </g>
</svg>