<svg xmlns="http://www.w3.org/2000/svg" width="22.167" height="17.501" viewBox="0 0 22.167 17.501">
    <g id="icon_category_transportation" data-name="icon/category/transportation" transform="translate(0 0)">
        <path id="bus"
            d="M16.615,17.5A3.335,3.335,0,0,1,13.5,15.349H8.654a3.336,3.336,0,0,1-6.238,0H1.108A1.1,1.1,0,0,1,0,14.252V1.1A1.1,1.1,0,0,1,1.108,0H19.966a1.109,1.109,0,0,1,1.087.878l1.108,5.481a1,1,0,0,1,0,.22v7.674a1.1,1.1,0,0,1-1.108,1.1H19.734A3.336,3.336,0,0,1,16.615,17.5Zm.006-4.344a1.1,1.1,0,1,0,1.108,1.1A1.1,1.1,0,0,0,16.621,13.156Zm-11.081,0a1.1,1.1,0,1,0,1.108,1.1A1.1,1.1,0,0,0,5.54,13.156ZM16.627,11a3.335,3.335,0,0,1,3.119,2.152h.2V8.77H2.216v4.386h.211a3.337,3.337,0,0,1,6.239,0h4.842A3.336,3.336,0,0,1,16.627,11ZM15.512,2.193V6.578h4.432l-.908-4.385Zm-4.432,0V6.578H13.3V2.193Zm-4.433,0V6.578H8.864V2.193Zm-4.433,0V6.578H4.433V2.193Z"
            fill="#003d4c" />
    </g>
</svg>