<svg xmlns="http://www.w3.org/2000/svg" width="44" height="37" viewBox="0 0 44 37"><g><g opacity=".25"><path fill="#132f41" d="M4.96 9.109c0-.733.638-1.328 1.426-1.328.787 0 1.425.595 1.425 1.328 0 .733-.638 1.327-1.425 1.327-.788 0-1.426-.594-1.426-1.327zm18.07 0c0-.733.639-1.328 1.426-1.328.787 0 1.425.595 1.425 1.328 0 .733-.638 1.327-1.425 1.327S23.03 9.842 23.03 9.11zm5.702 8.993H2.152c-.65-.01-1.178-.501-1.192-1.114V1.146C.973.533 1.5.04 2.153.03h26.579c.654.008 1.183.502 1.196 1.116v15.842c-.015.614-.543 1.106-1.196 1.114zm-1.195-12.59c-1.714-.397-3.057-1.646-3.495-3.252H6.753c-.438 1.606-1.78 2.855-3.494 3.252v7.194c1.713.397 3.056 1.647 3.494 3.253h17.289c.438-1.607 1.781-2.856 3.495-3.253zM9.467 9.066c.06-3.044 2.712-5.479 5.953-5.467 3.241.012 5.872 2.465 5.909 5.51-.022 3.06-2.673 5.53-5.931 5.524-3.274 0-5.93-2.491-5.932-5.567zm3.907-1.07c0 .411.174.806.485 1.096.31.29.732.452 1.17.448h.828a.614.614 0 0 1 .46.172c.125.11.192.267.184.428a.57.57 0 0 1-.185.43.648.648 0 0 1-.459.17h-.826a.617.617 0 0 1-.644-.386.526.526 0 0 0-.643-.257.465.465 0 0 0-.276.6c.252.564.822.946 1.472.985v.6c0 .262.226.474.505.474.278 0 .504-.212.504-.474v-.6c.656-.03 1.23-.423 1.46-1a1.478 1.478 0 0 0-.402-1.655 1.732 1.732 0 0 0-1.195-.474h-.828a.648.648 0 0 1-.459-.17.57.57 0 0 1-.185-.43.531.531 0 0 1 .184-.428.614.614 0 0 1 .46-.171h.826a.594.594 0 0 1 .598.385c.04.122.133.222.254.279a.527.527 0 0 0 .39.02.486.486 0 0 0 .298-.234.437.437 0 0 0 .023-.365c-.251-.564-.821-.946-1.471-.985v-.6c0-.262-.226-.474-.505-.474s-.505.212-.505.474v.6a1.668 1.668 0 0 0-1.104.428c-.334.279-.49.7-.414 1.113zm23.91 13.232h5.058c.733-.002 1.33.553 1.334 1.242v13.104c-.004.688-.6 1.244-1.334 1.242h-5.058c-.733.002-1.33-.554-1.333-1.242V22.47a1.183 1.183 0 0 1 .384-.889c.252-.234.595-.362.95-.353zm-37.198.813a2.11 2.11 0 0 1 1.287-1.327 2.52 2.52 0 0 1 1.932.043l8.872 4.153c-.083.472-.05.956.095 1.414.468 1.788 2.284 2.966 4.23 2.744l7.816-.949c.415-.037.776-.283.943-.642.167-.359.114-.775-.14-1.086a1.185 1.185 0 0 0-1.078-.413l-7.818.945c-.768.076-1.484-.374-1.702-1.07-.19-.672.186-1.371.874-1.626l8.093-3.17a6.639 6.639 0 0 1 4.966 0l5.104 2.012v11.82L20.961 36.73c-2.577.395-5.208-.312-7.174-1.927L.776 24.354c-.663-.594-.928-1.481-.69-2.313z"/></g></g></svg>