<svg xmlns="http://www.w3.org/2000/svg" width="31" height="29" viewBox="0 0 31 29"><defs><clipPath id="gcppa"><path fill="#fff" d="M17 22a7 7 0 1 1 14 0 7 7 0 0 1-14 0z"/></clipPath></defs><g><g><g><path fill="none" stroke="#003d4c" stroke-linecap="round" stroke-linejoin="round" stroke-miterlimit="20" stroke-width="2" d="M3 25a2 2 0 0 1-2-2V6a2 2 0 0 1 2-2h20a2 2 0 0 1 2 2v17a2 2 0 0 1-2 2z"/></g><g><path fill="none" stroke="#003d4c" stroke-linecap="round" stroke-linejoin="round" stroke-miterlimit="20" stroke-width="2" d="M19 1v6"/></g><g><path fill="none" stroke="#003d4c" stroke-linecap="round" stroke-linejoin="round" stroke-miterlimit="20" stroke-width="2" d="M7 1v6"/></g><g><path fill="#fff" d="M17 22a7 7 0 1 1 14 0 7 7 0 0 1-14 0z"/><path fill="none" stroke="#003d4c" stroke-miterlimit="20" stroke-width="4" d="M17 22a7 7 0 1 1 14 0 7 7 0 0 1-14 0z" clip-path="url(&quot;#gcppa&quot;)"/></g><g><path fill="#003d4c" d="M23.6 19c.308 0 .561.21.596.482l.004.063v3.047l1.624 1.477a.51.51 0 0 1 .05.72l-.05.051a.645.645 0 0 1-.792.046l-.056-.046-1.8-1.636a.528.528 0 0 1-.17-.314L23 22.818v-3.273c0-.3.269-.545.6-.545z"/><path fill="none" stroke="#003d4c" stroke-linecap="round" stroke-linejoin="round" stroke-miterlimit="20" stroke-width=".5" d="M23.6 19c.308 0 .561.21.596.482l.004.063v3.047l1.624 1.477a.51.51 0 0 1 .05.72l-.05.051a.645.645 0 0 1-.792.046l-.056-.046v0l-1.8-1.636a.528.528 0 0 1-.17-.314L23 22.818v0-3.273c0-.3.269-.545.6-.545z"/></g><g><g><path fill="#003d4c" d="M5 14v-4h5v4z"/></g><g><path fill="#003d4c" d="M5 19v-4h5v4z"/></g><g><path fill="#003d4c" d="M11 14v-4h5v4z"/></g><g><path fill="#003d4c" d="M11 19v-4h5v4z"/></g><g><path fill="#003d4c" d="M17 14v-4h5v4z"/></g></g></g></g></svg>