<svg xmlns="http://www.w3.org/2000/svg" width="32" height="23" viewBox="0 0 32 23"><defs><clipPath id="9a3aa"><path fill="#fff" d="M18 7a7 7 0 1 1 14 0 7 7 0 0 1-14 0z"/></clipPath></defs><g><g><g><g><path fill="none" stroke="#003d4c" stroke-linecap="round" stroke-linejoin="round" stroke-miterlimit="20" stroke-width="2" d="M1 11.09h24"/></g><g><path fill="none" stroke="#003d4c" stroke-linecap="round" stroke-linejoin="round" stroke-miterlimit="20" stroke-width="2" d="M3 22a2 2 0 0 1-2-2V6.545a2 2 0 0 1 2-2h20a2 2 0 0 1 2 2V20a2 2 0 0 1-2 2z"/></g></g><g><g><path fill="#fff" d="M18 7a7 7 0 1 1 14 0 7 7 0 0 1-14 0z"/><path fill="none" stroke="#003d4c" stroke-miterlimit="20" stroke-width="4" d="M18 7a7 7 0 1 1 14 0 7 7 0 0 1-14 0z" clip-path="url(&quot;#9a3aa&quot;)"/></g><g><g/><g><path fill="#003d4c" d="M25.01 8.08a1.033 1.033 0 0 1 0-2.064 1.033 1.033 0 0 1 0 2.064zm2.19-.743c.011-.094.02-.189.02-.289 0-.1-.009-.194-.02-.289l.622-.486a.149.149 0 0 0 .035-.189l-.59-1.02a.148.148 0 0 0-.18-.064l-.733.294a2.154 2.154 0 0 0-.499-.289l-.112-.78A.144.144 0 0 0 25.6 4.1h-1.18a.144.144 0 0 0-.144.124l-.112.781c-.18.074-.345.174-.498.29L22.931 5a.144.144 0 0 0-.18.064l-.59 1.02a.145.145 0 0 0 .036.189l.622.486c-.012.095-.02.192-.02.29 0 .097.008.194.02.288l-.622.486a.149.149 0 0 0-.035.19l.59 1.02a.148.148 0 0 0 .18.064l.733-.295c.153.118.319.215.498.289l.112.781c.01.071.071.124.145.124h1.179a.144.144 0 0 0 .144-.124l.112-.781c.18-.074.345-.174.499-.289l.734.295c.067.026.144 0 .18-.065l.589-1.02a.149.149 0 0 0-.035-.189z"/></g></g></g></g></g></svg>