<svg xmlns="http://www.w3.org/2000/svg" xmlns:xlink="http://www.w3.org/1999/xlink" width="119.664" height="39.96"
  viewBox="0 0 119.664 39.96">
  <defs>
    <clipPath id="clip-path">
      <path id="Clip_2" data-name="Clip 2" d="M0,0H119.664V39.96H0Z" transform="translate(0 0.04)" fill="none" />
    </clipPath>
  </defs>
  <g id="Download_on_the_App_Store_Badge_US-UK_blk_092917" transform="translate(0 -0.04)">
    <g id="Group_3" data-name="Group 3">
      <path id="Clip_2-2" data-name="Clip 2" d="M0,0H119.664V39.96H0Z" transform="translate(0 0.04)" fill="none" />
      <g id="Group_3-2" data-name="Group 3" clip-path="url(#clip-path)">
        <path id="Fill_1" data-name="Fill 1"
          d="M110.134,0H9.535c-.367,0-.729,0-1.1,0-.306,0-.61.008-.919.013a13.155,13.155,0,0,0-2,.176,6.72,6.72,0,0,0-1.9.627A6.444,6.444,0,0,0,2,2,6.285,6.285,0,0,0,.819,3.618a6.625,6.625,0,0,0-.625,1.9,13.078,13.078,0,0,0-.179,2C.006,7.83,0,8.138,0,8.444V31.559c0,.31.006.611.015.921a13.056,13.056,0,0,0,.179,2,6.607,6.607,0,0,0,.625,1.905A6.233,6.233,0,0,0,2,38,6.276,6.276,0,0,0,3.616,39.18a6.729,6.729,0,0,0,1.9.631,13.415,13.415,0,0,0,2,.176c.309.007.613.011.919.011.366,0,.728,0,1.1,0h100.6c.361,0,.725,0,1.084,0,.306,0,.618,0,.923-.011a13.236,13.236,0,0,0,2-.176,6.826,6.826,0,0,0,1.908-.631A6.31,6.31,0,0,0,117.667,38a6.427,6.427,0,0,0,1.18-1.614,6.565,6.565,0,0,0,.619-1.905,13.589,13.589,0,0,0,.187-2c0-.31,0-.611,0-.921.008-.364.008-.725.008-1.094V9.536c0-.366,0-.729-.008-1.092,0-.306,0-.614,0-.921a13.615,13.615,0,0,0-.187-2,6.582,6.582,0,0,0-.619-1.9,6.451,6.451,0,0,0-2.8-2.8,6.817,6.817,0,0,0-1.908-.627,12.982,12.982,0,0,0-2-.176c-.305,0-.617-.011-.923-.013-.359,0-.723,0-1.084,0"
          fill="#a9aaa9" />
      </g>
    </g>
    <path id="Fill_4" data-name="Fill 4"
      d="M7.572,38.25c-.3,0-.6,0-.9-.011a12.619,12.619,0,0,1-1.87-.163,5.865,5.865,0,0,1-1.656-.548,5.374,5.374,0,0,1-1.4-1.016,5.329,5.329,0,0,1-1.021-1.4,5.752,5.752,0,0,1-.543-1.657,12.388,12.388,0,0,1-.166-1.875C.008,31.372,0,30.67,0,30.67V7.569s.009-.691.015-.894A12.35,12.35,0,0,1,.18,4.8,5.725,5.725,0,0,1,.724,3.141a5.338,5.338,0,0,1,1.015-1.4A5.568,5.568,0,0,1,3.141.72,5.818,5.818,0,0,1,4.794.176,12.65,12.65,0,0,1,6.67.012L7.572,0H110.34l.913.013a12.371,12.371,0,0,1,1.859.162,5.963,5.963,0,0,1,1.671.548,5.607,5.607,0,0,1,2.415,2.42,5.8,5.8,0,0,1,.536,1.649,13.238,13.238,0,0,1,.173,1.887c0,.283,0,.588,0,.89.009.375.009.732.009,1.092V29.59c0,.363,0,.718-.009,1.075,0,.325,0,.623,0,.93a12.834,12.834,0,0,1-.171,1.853,5.751,5.751,0,0,1-.54,1.67,5.627,5.627,0,0,1-2.414,2.408,5.859,5.859,0,0,1-1.669.55,12.46,12.46,0,0,1-1.869.163c-.292.007-.6.011-.9.011l-1.084,0-101.689,0"
      transform="translate(1 1)" />
    <path id="Fill_5" data-name="Fill 5"
      d="M14.8,6.328a4.95,4.95,0,0,1,2.357-4.153A5.068,5.068,0,0,0,13.162.018C11.483-.159,9.855,1.023,9,1.023c-.872,0-2.189-.988-3.608-.958A5.315,5.315,0,0,0,.918,2.793C-1.016,6.141.427,11.062,2.279,13.768c.927,1.326,2.01,2.807,3.428,2.754,1.387-.057,1.905-.885,3.579-.885,1.659,0,2.145.885,3.591.852,1.488-.024,2.426-1.332,3.321-2.67a10.956,10.956,0,0,0,1.518-3.092,4.781,4.781,0,0,1-2.919-4.4"
      transform="translate(9.972 13.973)" fill="#fffffe" />
    <path id="Fill_6" data-name="Fill 6"
      d="M3.262,3.491A4.874,4.874,0,0,0,4.377,0,4.962,4.962,0,0,0,1.169,1.66,4.638,4.638,0,0,0,.025,5.021a4.1,4.1,0,0,0,3.237-1.53"
      transform="translate(18.775 8.72)" fill="#fffffe" />
    <path id="Fill_7" data-name="Fill 7"
      d="M2,12.419H0L4.484,0H6.567L11.05,12.417H9.011L7.875,9.062H3.142L2.005,12.418ZM5.483,2.066,3.632,7.513H7.384L5.534,2.066Z"
      transform="translate(34.427 18.078)" fill="#fffffe" />
    <path id="Fill_8" data-name="Fill 8"
      d="M1.859,12.143H0V.094H1.8V1.6h.034A3.2,3.2,0,0,1,4.716,0C7.032,0,8.529,1.814,8.529,4.622S7.046,9.243,4.75,9.243A3.085,3.085,0,0,1,1.9,7.659H1.859v4.483ZM4.226,1.584c-1.421,0-2.375,1.221-2.375,3.038s.954,3.046,2.375,3.046c1.453,0,2.392-1.2,2.392-3.046S5.68,1.584,4.226,1.584Z"
      transform="translate(46.631 21.348)" fill="#fffffe" />
    <path id="Fill_9" data-name="Fill 9"
      d="M1.859,12.143H0V.094H1.8V1.6h.034A3.2,3.2,0,0,1,4.716,0C7.032,0,8.528,1.814,8.528,4.622S7.045,9.243,4.75,9.243A3.085,3.085,0,0,1,1.9,7.659H1.859v4.483ZM4.226,1.584c-1.421,0-2.375,1.221-2.375,3.038s.954,3.046,2.375,3.046c1.453,0,2.391-1.2,2.391-3.046S5.679,1.584,4.226,1.584Z"
      transform="translate(56.596 21.348)" fill="#fffffe" />
    <path id="Fill_10" data-name="Fill 10"
      d="M1.9,9.165C2.04,10.4,3.237,11.2,4.871,11.2c1.567,0,2.694-.808,2.694-1.919,0-.964-.68-1.541-2.289-1.936l-1.61-.388C1.386,6.411.327,5.345.327,3.614.327,1.472,2.195,0,4.846,0,7.47,0,9.269,1.472,9.329,3.614H7.453C7.341,2.375,6.316,1.627,4.82,1.627S2.3,2.384,2.3,3.485c0,.878.654,1.4,2.255,1.791l1.368.335c2.548.6,3.607,1.626,3.607,3.443,0,2.323-1.851,3.778-4.794,3.778C1.98,12.832.12,11.411,0,9.165H1.9"
      transform="translate(69.808 17.871)" fill="#fffffe" />
    <path id="Fill_11" data-name="Fill 11"
      d="M3.183,0V2.142H4.905V3.614H3.183V8.6c0,.776.345,1.137,1.1,1.137A5.7,5.7,0,0,0,4.9,9.7v1.463a5.083,5.083,0,0,1-1.032.086c-1.833,0-2.548-.689-2.548-2.444V3.614H0V2.142H1.316V0H3.183"
      transform="translate(80.163 19.3)" fill="#fffffe" />
    <path id="Fill_12" data-name="Fill 12"
      d="M4.294,9.277C1.645,9.277,0,7.5,0,4.639A4.865,4.865,0,0,1,1.166,1.251,4.134,4.134,0,0,1,4.294,0,4.136,4.136,0,0,1,7.426,1.251,4.869,4.869,0,0,1,8.589,4.639C8.589,7.5,6.943,9.277,4.294,9.277Zm0-7.746c-1.5,0-2.4,1.162-2.4,3.108s.9,3.107,2.4,3.107S6.7,6.584,6.7,4.639,5.8,1.531,4.294,1.531Z"
      transform="translate(86.065 21.331)" fill="#fffffe" />
    <path id="Fill_13" data-name="Fill 13"
      d="M0,.094H1.773V1.635h.043A2.159,2.159,0,0,1,3.993,0,2.884,2.884,0,0,1,4.63.069V1.807A2.62,2.62,0,0,0,3.8,1.7,1.873,1.873,0,0,0,1.859,3.778v5.37H0V.094"
      transform="translate(96.186 21.348)" fill="#fffffe" />
    <path id="Fill_14" data-name="Fill 14"
      d="M4.269,9.277C1.636,9.277,0,7.516,0,4.682S1.645,0,4.191,0c2.516,0,4.08,1.711,4.08,4.466V5.1h-6.4v.112A2.369,2.369,0,0,0,4.312,7.779,2.038,2.038,0,0,0,6.4,6.506H8.167C7.919,8.138,6.316,9.277,4.269,9.277ZM4.191,1.506A2.289,2.289,0,0,0,1.885,3.8H6.411A2.186,2.186,0,0,0,4.191,1.506Z"
      transform="translate(101.217 21.331)" fill="#fffffe" />
    <path id="Fill_15" data-name="Fill 15"
      d="M2.155,5.967H0V0H2.155A2.63,2.63,0,0,1,4.963,2.965C4.963,4.873,3.939,5.967,2.155,5.967ZM.927.843V5.123H2.052A1.877,1.877,0,0,0,4.019,2.977,1.888,1.888,0,0,0,2.052.843Z"
      transform="translate(35.671 8.731)" fill="#fffffe" />
    <path id="Fill_16" data-name="Fill 16"
      d="M2.125,4.677A2.058,2.058,0,0,1,0,2.336,2.076,2.076,0,0,1,2.125,0,2.075,2.075,0,0,1,4.247,2.336,2.057,2.057,0,0,1,2.125,4.677Zm0-3.887C1.358.79.918,1.354.918,2.336s.44,1.551,1.207,1.551,1.208-.565,1.208-1.551S2.892.79,2.125.79Z"
      transform="translate(41.681 10.108)" fill="#fffffe" />
    <path id="Fill_17" data-name="Fill 17"
      d="M5,4.5H4.082l-.93-3.317H3.081L2.155,4.5H1.242L0,0H.9l.806,3.436h.067L2.7,0h.852l.926,3.436h.07L5.352,0h.889L5,4.5"
      transform="translate(46.569 10.195)" fill="#fffffe" />
    <path id="Fill_18" data-name="Fill 18"
      d="M0,.087H.855V.8H.921A1.349,1.349,0,0,1,2.265,0,1.465,1.465,0,0,1,3.824,1.675V4.59H2.935V1.9c0-.724-.314-1.084-.972-1.084A1.033,1.033,0,0,0,.888,1.955V4.59H0V.087"
      transform="translate(53.854 10.108)" fill="#fffffe" />
    <path id="Fill_19" data-name="Fill 19" d="M.056,6.261H.945V0H.056Z" transform="translate(59.039 8.437)"
      fill="#fffffe" />
    <path id="Fill_20" data-name="Fill 20"
      d="M2.125,4.677A2.058,2.058,0,0,1,0,2.336,2.076,2.076,0,0,1,2.125,0,2.075,2.075,0,0,1,4.247,2.336,2.057,2.057,0,0,1,2.125,4.677Zm0-3.887C1.358.79.918,1.354.918,2.336s.44,1.551,1.207,1.551,1.208-.565,1.208-1.551S2.892.79,2.125.79Z"
      transform="translate(61.218 10.108)" fill="#fffffe" />
    <path id="Fill_21" data-name="Fill 21"
      d="M1.5,4.664A1.354,1.354,0,0,1,0,3.316c0-.8.595-1.278,1.675-1.344l1.22-.07V1.513c0-.48-.327-.744-.922-.744-.5,0-.84.182-.939.5H.174C.264.5.987,0,2.014,0,3.136,0,3.779.551,3.779,1.513V4.59H2.924V3.957H2.853A1.515,1.515,0,0,1,1.5,4.664ZM2.894,2.555l-1.1.07c-.615.041-.9.248-.9.65s.327.641.834.641a1.063,1.063,0,0,0,1.166-.984V2.555Z"
      transform="translate(66.401 10.108)" fill="#fffffe" />
    <path id="Fill_22" data-name="Fill 22"
      d="M1.869,6.335C.716,6.335,0,5.443,0,4.007,0,2.6.734,1.683,1.869,1.683a1.481,1.481,0,0,1,1.381.79h.068V0H4.2V6.261H3.354V5.549H3.283A1.566,1.566,0,0,1,1.869,6.335Zm.252-3.854c-.742,0-1.2.585-1.2,1.526,0,.958.45,1.53,1.2,1.53s1.211-.585,1.211-1.525S2.869,2.481,2.121,2.481Z"
      transform="translate(71.348 8.437)" fill="#fffffe" />
    <path id="Fill_23" data-name="Fill 23"
      d="M2.125,4.677A2.058,2.058,0,0,1,0,2.336,2.076,2.076,0,0,1,2.125,0,2.075,2.075,0,0,1,4.247,2.336,2.057,2.057,0,0,1,2.125,4.677Zm0-3.887C1.358.79.918,1.354.918,2.336s.44,1.551,1.207,1.551,1.208-.565,1.208-1.551S2.892.79,2.125.79Z"
      transform="translate(79.23 10.108)" fill="#fffffe" />
    <path id="Fill_24" data-name="Fill 24"
      d="M0,.087H.855V.8H.921A1.349,1.349,0,0,1,2.265,0,1.465,1.465,0,0,1,3.824,1.675V4.59H2.935V1.9c0-.724-.314-1.084-.972-1.084A1.033,1.033,0,0,0,.888,1.955V4.59H0V.087"
      transform="translate(84.67 10.108)" fill="#fffffe" />
    <path id="Fill_25" data-name="Fill 25"
      d="M1.6,0V1.141H2.58V1.89H1.6V4.2c0,.472.2.679.637.679a3.009,3.009,0,0,0,.339-.021V5.6a2.862,2.862,0,0,1-.484.046C1.108,5.649.715,5.3.715,4.433V1.89H0V1.141H.715V0H1.6"
      transform="translate(91.911 9.074)" fill="#fffffe" />
    <path id="Fill_26" data-name="Fill 26"
      d="M0,0H.881V2.481h.07a1.385,1.385,0,0,1,1.373-.806A1.484,1.484,0,0,1,3.875,3.354V6.261h-.89V3.573c0-.719-.335-1.084-.963-1.084A1.053,1.053,0,0,0,.888,3.631v2.63H0V0"
      transform="translate(95.705 8.437)" fill="#fffffe" />
    <path id="Fill_27" data-name="Fill 27"
      d="M2.08,4.677A2.052,2.052,0,0,1,0,2.352,2.086,2.086,0,0,1,2.076,0C3.334,0,4.085.849,4.085,2.27V2.58H.905v.05A1.188,1.188,0,0,0,2.1,3.92a1.078,1.078,0,0,0,1.072-.546h.855A1.83,1.83,0,0,1,2.08,4.677ZM2.071.756A1.148,1.148,0,0,0,.905,1.923H3.18A1.089,1.089,0,0,0,2.071.756Z"
      transform="translate(100.73 10.108)" fill="#fffffe" />
  </g>
</svg>