<svg xmlns="http://www.w3.org/2000/svg" width="22" height="20" viewBox="0 0 22 20"><g><g><g/><g><g><path fill="#979797" d="M2.13 10.004c.463.798 1.57 2.508 3.24 3.953 1.448 1.253 3.332 2.316 5.6 2.317a8.153 8.153 0 0 0 4.81-1.669 1 1 0 0 1 1.211 1.591 10.162 10.162 0 0 1-6.006 2.077c-2.808 0-5.142-1.263-6.923-2.803-2.58-2.23-3.97-5.022-3.97-5.022a.997.997 0 0 1 .012-.92 17.77 17.77 0 0 1 4.874-5.722 1 1 0 0 1 1.214 1.59 15.763 15.763 0 0 0-4.063 4.608zm17.712-.006c-.464-.797-1.57-2.508-3.242-3.954-1.448-1.252-3.332-2.316-5.617-2.316a7.299 7.299 0 0 0-1.679.192 1 1 0 1 1-.456-1.947 9.22 9.22 0 0 1 2.137-.245c2.808 0 5.142 1.263 6.923 2.804 2.58 2.231 3.971 5.022 3.971 5.022a.999.999 0 0 1-.012.918 17.862 17.862 0 0 1-2.08 3.073 1.001 1.001 0 0 1-1.53-1.288 15.814 15.814 0 0 0 1.585-2.259zm-6.248 1.198c.404.377.426 1.01.05 1.414a3.728 3.728 0 1 1-5.268-5.268A1 1 0 0 1 9.74 8.805a1.728 1.728 0 1 0 2.442 2.441 1.001 1.001 0 0 1 1.413-.05z"/></g></g><g transform="rotate(45 11 10)"><g><path fill="#979797" d="M-1.73 11h25.456a1 1 0 0 0 0-2H-1.73a1 1 0 0 0 0 2z"/></g></g></g></g></svg>