<svg xmlns="http://www.w3.org/2000/svg" width="15" height="13" viewBox="0 0 15 13"><g><g><g><path fill="#003a4b" d="M7.5 1.304a4.896 4.896 0 1 1 0 9.793 4.896 4.896 0 0 1 0-9.793zM7.497 0a6.196 6.196 0 1 0 0 12.391A6.196 6.196 0 0 0 7.496 0z"/></g><g><path fill="#003a4b" d="M13.576 1.48a.652.652 0 0 1 .955.884l-.056.06-6.847 6.522a.652.652 0 0 1-.851.042l-.06-.053-2.148-2.147-3.126 3.125a.652.652 0 0 1-.86.055L.52 9.913a.652.652 0 0 1-.054-.86L.52 8.99l3.587-3.587a.652.652 0 0 1 .86-.054l.062.054L7.19 7.562z"/></g></g></g></svg>