<svg xmlns="http://www.w3.org/2000/svg" width="17" height="16" viewBox="0 0 17 16"><g><g><g><path fill="#003e4e" d="M8.623 2l1.94 1.94 1.414-1.415-1.94-1.94a2 2 0 0 0-2.827 0l-1.94 1.94L6.685 3.94z"/></g><g><path fill="#003e4e" d="M3.145 4.65l-1.94 1.94a2 2 0 0 0 0 2.827l1.94 1.94L4.56 9.942l-1.94-1.94 1.94-1.94z"/></g><g><path fill="#003e4e" d="M7.207 15.415a2 2 0 0 0 2.828 0l1.94-1.94-1.415-1.415L8.622 14l-1.94-1.94-1.412 1.415z"/></g><g><path fill="#003e4e" d="M14.095 4.65L12.68 6.065l1.94 1.938-1.94 1.94 1.415 1.415 1.94-1.94a2 2 0 0 0 0-2.828z"/></g></g></g></svg>