<svg xmlns="http://www.w3.org/2000/svg" width="43" height="39" viewBox="0 0 43 39"><g><g><g ><path fill="#bfc7c9" d="M13.305 7.322zm4.45 4.184c0 2.311-1.992 4.184-4.45 4.184-2.459 0-4.452-1.873-4.452-4.184.004-2.31 1.995-4.181 4.452-4.184 2.458 0 4.45 1.873 4.45 4.184zM3.543 14.17c.22.712.527 1.398.916 2.044l-1.106 1.31a1.028 1.028 0 0 0 .086 1.424l1.904 1.789c.41.386 1.063.42 1.517.08l1.385-1.033c.712.385 1.471.687 2.261.9l.208 1.674c.066.54.553.95 1.133.95h2.694c.58 0 1.067-.41 1.133-.95l.199-1.615a10.568 10.568 0 0 0 2.424-.92l1.34 1.003a1.2 1.2 0 0 0 1.517-.08l1.904-1.79c.41-.385.447-.998.086-1.425L22.1 16.288a9.04 9.04 0 0 0 .993-2.242l1.607-.174c.576-.062 1.01-.52 1.011-1.065v-2.53c0-.544-.435-1.002-1.01-1.064l-1.585-.174a9.088 9.088 0 0 0-.957-2.215l.975-1.157a1.028 1.028 0 0 0-.085-1.424l-1.897-1.784a1.194 1.194 0 0 0-1.516-.08l-1.196.89a10.408 10.408 0 0 0-2.478-.975L15.783.84c-.067-.541-.554-.95-1.134-.95h-2.694c-.58 0-1.067.409-1.133.95l-.18 1.454a10.36 10.36 0 0 0-2.54 1.009L6.86 2.379a1.2 1.2 0 0 0-1.517.08L3.44 4.25c-.41.385-.447.998-.086 1.424l1.041 1.233a8.907 8.907 0 0 0-.943 2.235l-1.66.177c-.576.063-1.01.52-1.011 1.065v2.53c0 .545.435 1.003 1.011 1.065z"/></g><g><path fill="#bfc7c9" d="M32.949 24.868c-1.468.116-2.867-.61-3.543-1.84-.676-1.231-.498-2.724.453-3.782.95-1.059 2.485-1.475 3.889-1.054 1.404.42 2.4 1.594 2.524 2.975.168 1.884-1.318 3.54-3.322 3.7zm5.571-11.202a1.179 1.179 0 0 0-1.498.039l-.786.69a8.495 8.495 0 0 0-2.094-.636l-.22-1.018c-.116-.526-.63-.89-1.201-.848l-1.855.148c-.57.046-1.014.484-1.033 1.021l-.036 1.034a8.333 8.333 0 0 0-2 .987l-.939-.585a1.179 1.179 0 0 0-1.485.2l-1.2 1.343a1.01 1.01 0 0 0 .04 1.408l.821.822a7.551 7.551 0 0 0-.605 1.882l-1.173.222c-.56.108-.947.592-.903 1.128l.158 1.742c.048.536.515.953 1.087.97l1.268.04c.232.567.533 1.108.898 1.61l-.707 1.005a1.015 1.015 0 0 0 .212 1.395l1.422 1.128c.437.347 1.082.33 1.498-.039l.93-.818c.608.268 1.25.465 1.909.585l.257 1.196c.115.526.63.89 1.2.848l1.855-.148c.568-.043 1.012-.478 1.037-1.012l.04-1.17a8.56 8.56 0 0 0 1.91-.907l1.021.636a1.179 1.179 0 0 0 1.485-.2l1.2-1.335a1.01 1.01 0 0 0-.04-1.407l-.826-.822a7.31 7.31 0 0 0 .65-1.891l1.128-.217c.561-.108.948-.591.903-1.127l-.157-1.743c-.049-.536-.516-.952-1.088-.97l-1.132-.035a7.533 7.533 0 0 0-.943-1.747l.618-.873a1.01 1.01 0 0 0-.204-1.403z"/></g><g><path fill="#bfc7c9" d="M17.405 28.335c1.64.02 2.953 1.283 2.933 2.824-.02 1.54-1.365 2.775-3.006 2.756-1.64-.019-2.953-1.283-2.933-2.824.022-1.54 1.367-2.771 3.007-2.753zm-7.37 1.213c-.57.056-1.006.504-1.011 1.043l-.014 1.072c-.008.539.415.997.984 1.065l.84.102c.138.477.338.937.595 1.369l-.542.627a1.01 1.01 0 0 0 .068 1.408l.799.767a1.18 1.18 0 0 0 1.498.098l.673-.488c.47.262.974.469 1.498.615l.09.812c.06.535.537.944 1.11.95l1.142.012c.574.008 1.061-.39 1.133-.924l.104-.771a7.05 7.05 0 0 0 1.625-.59l.629.478a1.18 1.18 0 0 0 1.498-.063l.817-.75c.411-.377.456-.983.104-1.408l-.483-.59c.297-.465.527-.964.686-1.484l.75-.074c.57-.056 1.005-.505 1.01-1.043l.014-1.073c.009-.538-.415-.997-.984-1.064l-.732-.09a6.162 6.162 0 0 0-.618-1.483l.456-.525a1.01 1.01 0 0 0-.068-1.408l-.799-.768a1.18 1.18 0 0 0-1.498-.097l-.55.394a6.869 6.869 0 0 0-1.643-.67l-.072-.664c-.06-.536-.537-.945-1.11-.95l-1.142-.013c-.573-.008-1.061.39-1.133.924l-.09.665a7.07 7.07 0 0 0-1.702.653l-.564-.433a1.18 1.18 0 0 0-1.498.064l-.821.755a1.012 1.012 0 0 0-.104 1.407l.483.586c-.282.466-.499.965-.645 1.483z"/></g></g></g></svg>