<svg xmlns="http://www.w3.org/2000/svg" width="20" height="20" viewBox="0 0 20 20"><g><g><path fill="none" stroke="#1b806d" stroke-linejoin="round" stroke-miterlimit="20" stroke-width="2" d="M.875 6.708a2 2 0 0 1 2-2h13.25a2 2 0 0 1 2 2v9.417a2 2 0 0 1-2 2H2.875a2 2 0 0 1-2-2z"/></g><g><path fill="none" stroke="#1b806d" stroke-linejoin="round" stroke-miterlimit="20" stroke-width="2" d="M5.667 5.667v0-2.875c0-1.059.858-1.917 1.916-1.917h3.834c1.058 0 1.916.858 1.916 1.917v2.875"/></g><g><path fill="none" stroke="#1b806d" stroke-linejoin="round" stroke-miterlimit="20" stroke-width="2" d="M1.833 12.375v0h10.542c3.833 0 5.75-2.396 5.75-5.75"/></g><g><path fill="none" stroke="#1b806d" stroke-linecap="round" stroke-linejoin="round" stroke-miterlimit="20" stroke-width="2" d="M9.5 11.417v2.396"/></g></g></svg>