<svg xmlns="http://www.w3.org/2000/svg" width="20" height="24" viewBox="0 0 20 24"><g><g><path fill="none" stroke="#1b806d" stroke-linecap="round" stroke-linejoin="round" stroke-miterlimit="20" stroke-width="2" d="M10.844 1v0H3.25c-.597 0-1.169.232-1.591.644A2.175 2.175 0 0 0 1 3.2v17.6c0 .583.237 1.143.659 1.556.422.412.994.644 1.591.644h13.5c.597 0 1.169-.232 1.591-.644.422-.413.659-.973.659-1.556V8.7"/></g><g><path fill="none" stroke="#1b806d" stroke-linecap="round" stroke-linejoin="round" stroke-miterlimit="20" stroke-width="2" d="M14.238 13.514H5.41"/></g><g><path fill="none" stroke="#1b806d" stroke-linecap="round" stroke-linejoin="round" stroke-miterlimit="20" stroke-width="2" d="M14.238 17.934H5.41"/></g><g><path fill="none" stroke="#1b806d" stroke-linecap="round" stroke-linejoin="round" stroke-miterlimit="20" stroke-width="2" d="M11 1v0h4a4 4 0 0 1 4 4v4h-8v0z"/></g></g></svg>