<svg xmlns="http://www.w3.org/2000/svg" width="20" height="18" viewBox="0 0 20 18"><g><g><path fill="#1b806d" d="M18.323 6.503c0 .46-.373.834-.833.834h-1.665V5.67h.833a.833.833 0 0 0 0-1.667H3.332a.833.833 0 0 0 0 1.667h.833v1.667H2.5a.834.834 0 0 1-.833-.834V3.17c0-.46.374-.833.833-.833h14.99c.46 0 .833.374.833.833zM5.833 15.67v-10h8.344v10zM17.5.67h-15A2.503 2.503 0 0 0 0 3.17v3.333c0 1.379 1.122 2.5 2.5 2.5h1.667v7.5c0 .461.373.834.833.834h10c.46 0 .833-.373.833-.834v-7.5H17.5c1.378 0 2.5-1.121 2.5-2.5V3.17c0-1.378-1.122-2.5-2.5-2.5z"/></g><g><path fill="#1b806d" d="M7.19 13.44c0-.287.14-.477.42-.57l.4-.13v-1.41h-.18a.632.632 0 0 1-.64-.63c0-.173.063-.323.19-.45a.615.615 0 0 1 .45-.19h.18v-.81c0-.74.2-1.31.6-1.71.427-.427 1.017-.64 1.77-.64.787 0 1.427.253 1.92.76.16.16.24.343.24.55a.722.722 0 0 1-.22.53.734.734 0 0 1-.54.22.75.75 0 0 1-.55-.23c-.26-.267-.537-.4-.83-.4a.771.771 0 0 0-.57.22c-.173.173-.26.42-.26.74v.77h1.7c.173 0 .323.063.45.19s.19.277.19.45a.632.632 0 0 1-.64.63h-1.7v1.34H12c.187 0 .343.067.47.2.133.127.2.283.2.47a.622.622 0 0 1-.2.47.638.638 0 0 1-.47.19H7.81a.652.652 0 0 1-.45-.16.527.527 0 0 1-.17-.4z"/></g></g></svg>