<svg xmlns="http://www.w3.org/2000/svg" width="22" height="23" viewBox="0 0 22 23"><g><g><path fill="#00a792" d="M10.99 8.585c1.53.006 2.767 1.307 2.77 2.91-.002 1.6-1.234 2.9-2.76 2.91h-.017a2.677 2.677 0 0 1-1.946-.839c-.798-.829-1.04-2.08-.613-3.17.428-1.09 1.44-1.801 2.563-1.802zm-.006 7.213h.02c2.252-.011 4.071-1.93 4.074-4.293-.004-2.37-1.833-4.29-4.09-4.293-2.254.007-4.08 1.926-4.083 4.293-.001 2.372 1.828 4.297 4.087 4.302zm-.23 4.789a1.24 1.24 0 0 1-.837-.744 5.067 5.067 0 0 0-.55-.978 2.12 2.12 0 0 0-1.512-.966 3.305 3.305 0 0 0-1.722.281 1.098 1.098 0 0 1-1.26-.227 1.238 1.238 0 0 1-.264-1.314c.198-.474.301-.986.304-1.504a2.246 2.246 0 0 0-.37-1.325 3.423 3.423 0 0 0-1.498-1.188 1.1 1.1 0 0 1-.456-.355 1.171 1.171 0 0 1-.242-1.05c.092-.364.337-.664.666-.815a3.41 3.41 0 0 0 1.104-.716c.403-.344.675-.83.764-1.367a3.731 3.731 0 0 0-.264-1.947 1.235 1.235 0 0 1-.018-.886c.089-.303.3-.55.578-.674.297-.138.635-.143.936-.015.453.212.944.318 1.44.31.436.014.865-.12 1.224-.381.517-.4.915-.948 1.146-1.577.072-.193.192-.361.346-.49a1.037 1.037 0 0 1 1-.248c.345.102.63.36.774.704.155.428.386.821.68 1.16.349.452.85.745 1.4.818a3.306 3.306 0 0 0 1.739-.294c.27-.124.576-.13.852-.019.284.1.513.326.626.618.131.31.138.663.018.978-.204.474-.306.99-.298 1.51-.013.456.112.905.356 1.283.39.566.932.998 1.556 1.241.199.077.366.226.47.42.07.143.13.291.178.443l.068.194v.027a.442.442 0 0 1 0 .063c-.014.044-.03.094-.046.153-.08.428-.368.78-.758.93-.438.183-.834.46-1.162.815a2.193 2.193 0 0 0-.646 1.348 3.813 3.813 0 0 0 .274 1.806c.085.203.115.428.084.647-.028.37-.23.7-.538.882a1.15 1.15 0 0 1-1.03.067 3.251 3.251 0 0 0-1.433-.313 1.972 1.972 0 0 0-1.296.42c-.5.414-.883.963-1.11 1.588a1.085 1.085 0 0 1-.28.405 1.538 1.538 0 0 1-.634.322h-.23zm.625 1.398c.46-.11.888-.332 1.248-.65.276-.252.491-.57.628-.925.14-.396.382-.745.698-1.008a.735.735 0 0 1 .496-.138c.303-.003.604.062.88.19.712.321 1.524.278 2.2-.117a2.49 2.49 0 0 0 1.2-1.904 2.674 2.674 0 0 0-.181-1.374 2.361 2.361 0 0 1-.168-1.134.797.797 0 0 1 .272-.502c.199-.217.44-.387.706-.5.78-.305 1.361-1.002 1.548-1.854.006-.025.02-.046.02-.065l.026-.084.014-.067a1.877 1.877 0 0 0 0-.712l-.012-.06-.026-.055a10.485 10.485 0 0 1-.082-.23 4.479 4.479 0 0 0-.264-.64 2.247 2.247 0 0 0-1.126-1.023 2.126 2.126 0 0 1-.978-.762.874.874 0 0 1-.112-.495 2.26 2.26 0 0 1 .18-.929c.28-.669.28-1.43 0-2.1a2.377 2.377 0 0 0-1.416-1.365 2.312 2.312 0 0 0-1.8.066 2.04 2.04 0 0 1-1.087.182.873.873 0 0 1-.556-.37 2.295 2.295 0 0 1-.426-.722 2.554 2.554 0 0 0-1.652-1.547 2.29 2.29 0 0 0-2.168.5 2.54 2.54 0 0 0-.74 1.05A2.16 2.16 0 0 1 8 3.62a.74.74 0 0 1-.46.13 1.905 1.905 0 0 1-.88-.185 2.382 2.382 0 0 0-2 0 2.41 2.41 0 0 0-1.302 1.5 2.663 2.663 0 0 0 .062 1.867c.163.377.22.796.166 1.207a.957.957 0 0 1-.35.531c-.2.193-.433.344-.686.446a2.56 2.56 0 0 0-1.466 1.738 2.594 2.594 0 0 0 .48 2.266c.26.341.6.605.986.767.372.147.696.404.934.739a.86.86 0 0 1 .116.512c-.003.332-.07.66-.2.962a2.662 2.662 0 0 0 .537 2.838 2.36 2.36 0 0 0 2.713.512c.339-.156.71-.217 1.078-.177.15 0 .35.072.6.42.158.22.293.458.4.71a2.565 2.565 0 0 0 1.65 1.5l.306.096h.6z"/><path fill="none" stroke="#00a792" stroke-miterlimit="20" stroke-width=".6" d="M10.99 8.585c1.53.006 2.767 1.307 2.77 2.91-.002 1.6-1.234 2.9-2.76 2.91h-.017a2.677 2.677 0 0 1-1.946-.839c-.798-.829-1.04-2.08-.613-3.17.428-1.09 1.44-1.801 2.563-1.802zm-.006 7.213h.02c2.252-.011 4.071-1.93 4.074-4.293-.004-2.37-1.833-4.29-4.09-4.293-2.254.007-4.08 1.926-4.083 4.293-.001 2.372 1.828 4.297 4.087 4.302zm-.23 4.789a1.24 1.24 0 0 1-.837-.744 5.067 5.067 0 0 0-.55-.978 2.12 2.12 0 0 0-1.512-.966 3.305 3.305 0 0 0-1.722.281 1.098 1.098 0 0 1-1.26-.227 1.238 1.238 0 0 1-.264-1.314c.198-.474.301-.986.304-1.504a2.246 2.246 0 0 0-.37-1.325 3.423 3.423 0 0 0-1.498-1.188 1.1 1.1 0 0 1-.456-.355 1.171 1.171 0 0 1-.242-1.05c.092-.364.337-.664.666-.815a3.41 3.41 0 0 0 1.104-.716c.403-.344.675-.83.764-1.367a3.731 3.731 0 0 0-.264-1.947 1.235 1.235 0 0 1-.018-.886c.089-.303.3-.55.578-.674.297-.138.635-.143.936-.015.453.212.944.318 1.44.31.436.014.865-.12 1.224-.381.517-.4.915-.948 1.146-1.577.072-.193.192-.361.346-.49a1.037 1.037 0 0 1 1-.248c.345.102.63.36.774.704.155.428.386.821.68 1.16.349.452.85.745 1.4.818a3.306 3.306 0 0 0 1.739-.294c.27-.124.576-.13.852-.019.284.1.513.326.626.618.131.31.138.663.018.978-.204.474-.306.99-.298 1.51-.013.456.112.905.356 1.283.39.566.932.998 1.556 1.241.199.077.366.226.47.42.07.143.13.291.178.443l.068.194v.027a.442.442 0 0 1 0 .063c-.014.044-.03.094-.046.153-.08.428-.368.78-.758.93-.438.183-.834.46-1.162.815a2.193 2.193 0 0 0-.646 1.348 3.813 3.813 0 0 0 .274 1.806c.085.203.115.428.084.647-.028.37-.23.7-.538.882a1.15 1.15 0 0 1-1.03.067 3.251 3.251 0 0 0-1.433-.313 1.972 1.972 0 0 0-1.296.42c-.5.414-.883.963-1.11 1.588a1.085 1.085 0 0 1-.28.405 1.538 1.538 0 0 1-.634.322h-.23zm.625 1.398c.46-.11.888-.332 1.248-.65.276-.252.491-.57.628-.925.14-.396.382-.745.698-1.008a.735.735 0 0 1 .496-.138c.303-.003.604.062.88.19.712.321 1.524.278 2.2-.117a2.49 2.49 0 0 0 1.2-1.904 2.674 2.674 0 0 0-.181-1.374 2.361 2.361 0 0 1-.168-1.134.797.797 0 0 1 .272-.502c.199-.217.44-.387.706-.5.78-.305 1.361-1.002 1.548-1.854.006-.025.02-.046.02-.065l.026-.084.014-.067a1.877 1.877 0 0 0 0-.712l-.012-.06-.026-.055a10.485 10.485 0 0 1-.082-.23 4.479 4.479 0 0 0-.264-.64 2.247 2.247 0 0 0-1.126-1.023 2.126 2.126 0 0 1-.978-.762.874.874 0 0 1-.112-.495 2.26 2.26 0 0 1 .18-.929c.28-.669.28-1.43 0-2.1a2.377 2.377 0 0 0-1.416-1.365 2.312 2.312 0 0 0-1.8.066 2.04 2.04 0 0 1-1.087.182.873.873 0 0 1-.556-.37 2.295 2.295 0 0 1-.426-.722 2.554 2.554 0 0 0-1.652-1.547 2.29 2.29 0 0 0-2.168.5 2.54 2.54 0 0 0-.74 1.05A2.16 2.16 0 0 1 8 3.62a.74.74 0 0 1-.46.13 1.905 1.905 0 0 1-.88-.185 2.382 2.382 0 0 0-2 0 2.41 2.41 0 0 0-1.302 1.5 2.663 2.663 0 0 0 .062 1.867c.163.377.22.796.166 1.207a.957.957 0 0 1-.35.531c-.2.193-.433.344-.686.446a2.56 2.56 0 0 0-1.466 1.738 2.594 2.594 0 0 0 .48 2.266c.26.341.6.605.986.767.372.147.696.404.934.739a.86.86 0 0 1 .116.512c-.003.332-.07.66-.2.962a2.662 2.662 0 0 0 .537 2.838 2.36 2.36 0 0 0 2.713.512c.339-.156.71-.217 1.078-.177.15 0 .35.072.6.42.158.22.293.458.4.71a2.565 2.565 0 0 0 1.65 1.5l.306.096h.6z"/></g></g></svg>