<svg xmlns="http://www.w3.org/2000/svg" width="14" height="13" viewBox="0 0 14 13"><g><g><path fill="#00a792" d="M13.968 4.92a.654.654 0 0 0-.578-.438l-4.212-.277L7.606.4A.653.653 0 0 0 7 0a.652.652 0 0 0-.605.4L4.82 4.205.61 4.482a.653.653 0 0 0-.577.437.627.627 0 0 0 .201.684l3.24 2.63-1.03 3.977a.626.626 0 0 0 .25.668.673.673 0 0 0 .732.025L7 10.722l3.574 2.182c.108.064.23.096.349.096a.682.682 0 0 0 .383-.122.624.624 0 0 0 .25-.667l-1.03-3.978 3.24-2.63a.623.623 0 0 0 .202-.684z"/></g></g></svg>