<svg xmlns="http://www.w3.org/2000/svg" width="26.191" height="20.52" viewBox="0 0 26.191 20.52">
  <path id="Path" d="M22.652,20.52c2.344,0,3.539-1.184,3.539-3.5V3.492C26.191,1.184,25,0,22.652,0H3.539C1.2,0,0,1.172,0,3.492V17.016c0,2.32,1.2,3.5,3.539,3.5Z" fill="#00a792"/>
  <path id="Path-2" data-name="Path" d="M0,13.781V1.688A1.5,1.5,0,0,1,1.676,0H20.648a1.507,1.507,0,0,1,1.676,1.688V13.734l-5.8-5.449a2.508,2.508,0,0,0-1.664-.668,2.385,2.385,0,0,0-1.664.656l-5,4.477L6.141,10.9a2.241,2.241,0,0,0-1.5-.633,2.066,2.066,0,0,0-1.43.621Z" transform="translate(1.934 1.934)" fill="#fff"/>
  <path id="Path-3" data-name="Path" d="M2.625,5.262A2.631,2.631,0,1,0,0,2.637,2.628,2.628,0,0,0,2.625,5.262Z" transform="translate(5.754 5.121)" fill="#00a792"/>
</svg>
