<svg xmlns="http://www.w3.org/2000/svg" width="36" height="16" viewBox="0 0 36 16"><g><g><g><path fill="#003d4c" d="M27.1 3.042c.64.36 1.161.88 1.481 1.481 3.283 5.604-2.561 11.448-8.165 8.125-.6-.36-1.12-.88-1.481-1.48C15.653 5.563 21.497-.24 27.1 3.041zm-13.93 7.525V5.203a4.332 4.332 0 0 0 3.608-3.722h3.608c-.16.12-.361.12-.522.28-.881.48-1.683 1.241-2.164 2.162-2.365 4.242-.52 8.565 2.886 10.327h-3.768c-.28-1.882-1.723-3.443-3.647-3.683zm17.658 3.683H27.26c.16-.12.36-.12.52-.28.883-.521 1.684-1.281 2.165-2.162 2.365-4.243.521-8.566-2.886-10.327h3.768a4.292 4.292 0 0 0 3.647 3.722v5.324c-1.964.28-3.407 1.841-3.647 3.723zM33.905.04H13.69c-1.04 0-1.921.88-1.921 1.921V13.77c0 1.04.88 1.922 1.921 1.922h20.214c1.04 0 1.921-.881 1.921-1.922V1.961c.04-1.04-.8-1.921-1.921-1.921z"/></g><g><path fill="#003d4c" d="M21.62 10.32c0-.25.117-.415.351-.497l.335-.113V8.484h-.15a.519.519 0 0 1-.377-.157.546.546 0 0 1-.159-.391c0-.151.053-.282.159-.392a.505.505 0 0 1 .377-.165h.15v-.705c0-.643.168-1.14.502-1.487.357-.371.851-.557 1.482-.557.658 0 1.194.22 1.606.661a.67.67 0 0 1 .017.94.602.602 0 0 1-.452.191.617.617 0 0 1-.46-.2c-.218-.232-.45-.348-.695-.348a.632.632 0 0 0-.477.191c-.145.151-.217.366-.217.644v.67h1.422c.146 0 .271.055.377.165.106.11.159.241.159.392 0 .15-.053.281-.159.391a.518.518 0 0 1-.377.157h-1.422v1.165h2.033c.157 0 .288.058.394.174.111.11.167.247.167.41a.552.552 0 0 1-.167.408.524.524 0 0 1-.394.165H22.14a.534.534 0 0 1-.377-.139.467.467 0 0 1-.142-.348z"/></g><g><path fill="#003d4c" d="M3.72 2.521h5.964c.4 0 .721-.32.721-.72 0-.4-.32-.721-.72-.721H3.72c-.4 0-.72.32-.72.72 0 .4.32.721.72.721z"/></g><g><path fill="#003d4c" d="M9.684 13.21H3.72c-.4 0-.72.32-.72.72 0 .4.32.721.72.721h5.964c.4 0 .721-.32.721-.72 0-.4-.28-.721-.72-.721z"/></g><g><path fill="#003d4c" d="M10.447 7.88c0-.4-.32-.72-.72-.72H.92c-.4 0-.72.32-.72.72 0 .4.32.72.72.72h8.806c.4 0 .72-.32.72-.72z"/></g></g></g></svg>