<svg xmlns="http://www.w3.org/2000/svg" width="20" height="14" viewBox="0 0 20 14"><g><g><g><path fill="#003d4c" d="M8.59 10.592a2 2 0 1 0 2.82 2.836 2 2 0 0 0-2.82-2.836z"/></g><g><path fill="#003d4c" d="M12.863 10.294a1 1 0 0 0 1.837-.22 1 1 0 0 0-.087-.76 5.25 5.25 0 0 0-.83-1.09 5.35 5.35 0 0 0-7.56 0 5 5 0 0 0-.83 1.08 1.008 1.008 0 0 0 1.75 1 2.7 2.7 0 0 1 .5-.65 3.34 3.34 0 0 1 4.72 0 2.7 2.7 0 0 1 .5.64z"/></g><g><path fill="#003d4c" d="M16.076 8.464a1 1 0 0 0 .56-.18 1 1 0 0 0 .26-1.39 7.3 7.3 0 0 0-.82-1 8.61 8.61 0 0 0-12.16 0 7.302 7.302 0 0 0-.82 1 1 1 0 0 0 1.65 1.11 5.33 5.33 0 0 1 .59-.68 6.6 6.6 0 0 1 9.32 0c.215.21.413.437.59.68a1 1 0 0 0 .83.46z"/></g><g><path fill="#003d4c" d="M18.401 6.132a1 1 0 0 0 .73-1.64c-.25-.29-.51-.59-.79-.87a11.85 11.85 0 0 0-16.76 0c-.28.28-.54.58-.79.87a1 1 0 0 0 .21 1.41 1 1 0 0 0 1.41-.13c.21-.25.43-.49.67-.73a9.83 9.83 0 0 1 13.92-.04c.24.24.46.48.67.73a1 1 0 0 0 .73.4z"/></g></g></g></svg>