<svg xmlns="http://www.w3.org/2000/svg" width="20" height="20" viewBox="0 0 20 20"><g><g><path fill="none" stroke="#00d1b6" stroke-linejoin="round" stroke-miterlimit="20" stroke-width="2" d="M4.583 7.5a2.917 2.917 0 1 0 0-5.833 2.917 2.917 0 0 0 0 5.833z"/></g><g><path fill="none" stroke="#00d1b6" stroke-linejoin="round" stroke-miterlimit="20" stroke-width="2" d="M4.583 18.333a2.917 2.917 0 1 0 0-5.833 2.917 2.917 0 0 0 0 5.833z"/></g><g><path fill="none" stroke="#00d1b6" stroke-linejoin="round" stroke-miterlimit="20" stroke-width="2" d="M15.417 7.5a2.917 2.917 0 1 0 0-5.833 2.917 2.917 0 0 0 0 5.833z"/></g><g><path fill="none" stroke="#00d1b6" stroke-linejoin="round" stroke-miterlimit="20" stroke-width="2" d="M15.417 18.333a2.917 2.917 0 1 0 0-5.833 2.917 2.917 0 0 0 0 5.833z"/></g><g><path fill="none" stroke="#00d1b6" stroke-miterlimit="20" stroke-width="2" d="M7.083 7.083l5.834 5.834"/></g><g><path fill="none" stroke="#00d1b6" stroke-miterlimit="20" stroke-width="2" d="M7.083 12.917l6.667-6.25"/></g></g></svg>