<svg xmlns="http://www.w3.org/2000/svg" width="24" height="29" viewBox="0 0 24 29"><g><g><path fill="#003d4c" d="M12 3a3.518 3.518 0 0 1 3.515 3.516A3.518 3.518 0 0 1 12 10.03a3.52 3.52 0 0 1-3.516-3.515A3.52 3.52 0 0 1 12 3zm0 9.697a6.188 6.188 0 0 0 6.181-6.181A6.188 6.188 0 0 0 12 .333a6.19 6.19 0 0 0-6.182 6.183A6.19 6.19 0 0 0 12 12.696zm-1.333 5.064v7.894l-7.906.012.039-.243a9.34 9.34 0 0 1 7.867-7.663zm2.666.001l.243.036a9.33 9.33 0 0 1 7.624 7.626l.039.243-7.906-.012zm9.331 10.57h.005A1.328 1.328 0 0 0 24 27c0-6.616-5.383-12-12-12-6.628 0-12 5.373-12 12 0 .738.598 1.335 1.336 1.334L12 28.32l10.664.013z"/></g></g></svg>