<?xml version="1.0" encoding="utf-8"?>
<!-- Generator: Adobe Illustrator 23.0.0, SVG Export Plug-In . SVG Version: 6.00 Build 0)  -->
<svg version="1.1" id="图层_1" xmlns="http://www.w3.org/2000/svg" xmlns:xlink="http://www.w3.org/1999/xlink" x="0px" y="0px"
	 viewBox="0 0 17 18" style="enable-background:new 0 0 17 18;" xml:space="preserve">
<style type="text/css">
	.st0{fill:none;stroke:#003D4C;stroke-width:1.5;stroke-linecap:round;stroke-linejoin:round;stroke-miterlimit:20;}
</style>
<g>
	<g>
		<path class="st0" d="M15.6,12.7l0.6,0.2v2.9c0,0.5-0.4,1-1,1H3.4c-1.1,0-2-0.9-2-1.9V3.1l0,0c0,1.1,0.9,1.9,2,1.9l0,0 M3.6,5.1
			h10.6V2.2c0-0.5-0.4-1-1-1H3.4c-1.1,0-2,0.9-2,1.9c0,0,0,0,0,0 M16.2,7.5V9V6.1c0-0.5-0.4-1-1-1h-1"/>
	</g>
	<g>
		<path class="st0" d="M16.2,9.4v3.4h-3.4c-0.9,0-1.7-0.7-1.7-1.6c0-0.9,0.7-1.7,1.6-1.7c0,0,0.1,0,0.1,0L16.2,9.4L16.2,9.4"/>
	</g>
</g>
</svg>
