<svg xmlns="http://www.w3.org/2000/svg" width="26" height="23" viewBox="0 0 26 23"><g><g><path fill="none" stroke="#fff" stroke-linejoin="round" stroke-miterlimit="20" stroke-width="2.33" d="M1.333 8.05v0H20v13.34H1.333v0z"/></g><g><path fill="none" stroke="#fff" stroke-linecap="round" stroke-linejoin="round" stroke-miterlimit="20" stroke-width="2.33" d="M6 6.837v0-4.85 0h18.667v12.126h-4.392v0"/></g><g><path fill="none" stroke="#fff" stroke-linejoin="round" stroke-miterlimit="20" stroke-width="2.33" d="M6.583 17.752c.645 0 1.167-.543 1.167-1.213s-.522-1.213-1.167-1.213c-.644 0-1.166.543-1.166 1.213s.522 1.213 1.166 1.213z"/></g><g><path fill="none" stroke="#fff" stroke-linejoin="round" stroke-miterlimit="20" stroke-width="2.33" d="M9.5 17.752c.644 0 1.167-.543 1.167-1.213s-.523-1.213-1.167-1.213-1.167.543-1.167 1.213.523 1.213 1.167 1.213z"/></g></g></svg>