<svg xmlns="http://www.w3.org/2000/svg" width="30" height="30" viewBox="0 0 30 30"><g><g><g><g><path fill="#76ffe5" d="M15.002 5.565a1.426 1.426 0 0 1-1.452-1.452V1.452C13.55.629 14.179 0 15.002 0c.822 0 1.451.629 1.451 1.452v2.66c0 .775-.629 1.453-1.451 1.453z"/></g><g><path fill="#0dbfba" d="M15.002 30.005a1.426 1.426 0 0 1-1.452-1.452v-2.661c0-.823.629-1.452 1.452-1.452.822 0 1.451.629 1.451 1.452v2.66c0 .823-.629 1.453-1.451 1.453z"/></g><g><path fill="#bbfff2" d="M9.53 7.019c-.485 0-.968-.242-1.259-.726L6.965 4.019c-.387-.678-.145-1.597.532-1.984s1.597-.145 1.984.532l1.306 2.274c.387.678.145 1.597-.532 1.984-.193.097-.484.194-.726.194z"/></g><g><path fill="#1bceb8" d="M21.77 28.159c-.485 0-.968-.242-1.259-.726l-1.306-2.274c-.387-.678-.145-1.597.532-1.984s1.597-.145 1.984.532l1.306 2.274c.387.678.145 1.597-.532 1.984a1.365 1.365 0 0 1-.726.194z"/></g><g><path fill="#e1fff9" d="M5.567 10.98c-.242 0-.484-.048-.726-.193L2.567 9.481c-.677-.387-.92-1.307-.532-1.984.387-.677 1.306-.92 1.984-.532L6.293 8.27c.677.387.92 1.307.532 1.984-.29.484-.774.726-1.258.726z"/></g><g><path fill="#26dbc0" d="M26.755 23.22c-.242 0-.483-.048-.725-.193l-2.323-1.306c-.677-.387-.92-1.307-.532-1.984.387-.677 1.306-.92 1.984-.532l2.274 1.306c.677.387.92 1.307.532 1.984-.242.484-.726.726-1.21.726z"/></g><g><path fill="#f3fffd" d="M4.113 16.453H1.452A1.426 1.426 0 0 1 0 15.002c0-.823.629-1.452 1.452-1.452h2.66c.823 0 1.453.629 1.453 1.452 0 .822-.678 1.451-1.452 1.451z"/></g><g><path fill="#2ee5c6" d="M28.553 16.453h-2.661a1.426 1.426 0 0 1-1.452-1.451c0-.823.629-1.452 1.452-1.452h2.66c.823 0 1.453.629 1.453 1.452 0 .822-.63 1.451-1.452 1.451z"/></g><g><path fill="#11aeba" d="M3.243 23.22c-.484 0-.968-.241-1.258-.725-.387-.677-.145-1.597.532-1.984l2.274-1.306c.678-.387 1.597-.145 1.984.532s.145 1.597-.532 1.984l-2.274 1.306c-.194.145-.436.194-.726.194z"/></g><g><path fill="#3bedcb" d="M24.433 10.98c-.484 0-.968-.241-1.258-.725-.387-.677-.145-1.597.532-1.984l2.274-1.306c.678-.387 1.597-.145 1.984.532s.145 1.597-.532 1.984l-2.274 1.306a1.365 1.365 0 0 1-.726.194z"/></g><g><path fill="#0fb8bc" d="M8.223 28.159c-.242 0-.484-.049-.726-.194-.677-.387-.92-1.306-.532-1.984l1.306-2.274c.387-.677 1.307-.92 1.984-.532.677.387.92 1.306.532 1.984l-1.306 2.274c-.29.484-.774.726-1.258.726z"/></g><g><path fill="#57f7d8" d="M20.463 7.019c-.242 0-.484-.049-.726-.194-.677-.387-.92-1.306-.532-1.984l1.306-2.274c.387-.677 1.307-.92 1.984-.532.677.387.92 1.306.532 1.984l-1.306 2.274c-.29.435-.774.726-1.258.726z"/></g></g></g></g></svg>