<svg xmlns="http://www.w3.org/2000/svg" width="24" height="14" viewBox="0 0 24 14"><g><g><path fill="#003d4c" d="M22.174 11.474L17.87 8.782V5.219l4.304-2.693zm-7.826-9.692c.935 0 1.696.742 1.696 1.655V10.5c0 .912-.761 1.654-1.696 1.654H3.522c-.935 0-1.696-.742-1.696-1.654V3.437c0-.913.761-1.655 1.696-1.655zM14.354 14c1.81 0 3.317-1.333 3.503-3.1l3.73 2.33a1.596 1.596 0 0 0 1.598.05c.503-.266.815-.78.815-1.342V2.062c0-.561-.312-1.076-.815-1.343a1.6 1.6 0 0 0-1.598.058L17.857 3.1C17.67 1.333 16.165 0 14.354 0H3.522C1.58 0 0 1.553 0 3.461v7.078C0 12.447 1.58 14 3.522 14z"/></g></g></svg>