<svg xmlns="http://www.w3.org/2000/svg" width="32" height="40" viewBox="0 0 32 40"><g><g><g><g><path fill="#003e4e" d="M15.829 22.636c.478.936 1.01 1.788 1.594 2.553-.286.026-2.3.277-2.478.299a15.74 15.74 0 0 0 .884-2.852zm10.029 6.235c-.219-.026-.635-.132-1.303-.528zM7.586 31.073c.248-.262.73-.647 1.463-1.064zm5.974-15.486c.221 2.23.328 6.47-1.429 9.805-.143.269-.284.53-.425.78-3.057.905-6.285 2.617-6.823 4.503-.21.745-.017 1.49.532 2.045.572.574 1.283.88 2.061.88 1.882 0 3.838-1.732 5.975-5.288.775-.184 5.242-.71 6.18-.7 2.576 2.54 4.66 3.774 6.363 3.774 1.069 0 1.99-.52 2.526-1.431a1.969 1.969 0 0 0 .004-2.017c-1.068-1.862-5.23-2.62-7.726-2.792a49.09 49.09 0 0 1-.654-.705c-2.556-2.817-3.601-6.954-3.988-9.116a23.134 23.134 0 0 0-.149-1.209c-.165-1.144-.91-1.316-1.34-1.316-.373 0-.73.155-.978.427-.4.437-.339.91-.3 1.225.037.31.095.72.17 1.135z"/></g><g><path fill="#003e4e" d="M2.474 37.515V11.951h9.342V2.5H29.51v35.014zM9.347 4.6v4.847H4.804zM10.25 0L0 10.937V40h32V0z"/></g></g></g></g></svg>