<svg xmlns="http://www.w3.org/2000/svg" width="26" height="27" viewBox="0 0 26 27"><g><g><path fill="none" stroke="#fff" stroke-linecap="round" stroke-linejoin="round" stroke-miterlimit="20" stroke-width="2.33" d="M9.605 10.056c.566-1.674 2.211-2.679 3.893-2.379 1.682.3 2.911 1.817 2.909 3.591 0 2.426-3.5 3.638-3.5 3.638v0"/></g><g><path fill="none" stroke="#fff" stroke-linecap="round" stroke-linejoin="round" stroke-miterlimit="20" stroke-width="2.33" d="M13 25.815c6.443 0 11.667-5.43 11.667-12.127C24.667 6.99 19.443 1.561 13 1.561S1.333 6.99 1.333 13.688c0 6.698 5.224 12.127 11.667 12.127z"/></g><g/><g><path fill="#fff" d="M13 20.964c.644 0 1.167-.543 1.167-1.212 0-.67-.523-1.213-1.167-1.213s-1.167.543-1.167 1.213.523 1.212 1.167 1.212z"/><path fill="none" stroke="#fff" stroke-linecap="round" stroke-linejoin="round" stroke-miterlimit="20" stroke-width="1.17" d="M13 20.964c.644 0 1.167-.543 1.167-1.212 0-.67-.523-1.213-1.167-1.213s-1.167.543-1.167 1.213.523 1.212 1.167 1.212z"/></g></g></svg>