<svg xmlns="http://www.w3.org/2000/svg" width="24" height="24" viewBox="0 0 24 24"><g><g><g><path fill="#003d4c" d="M0 11.742v-.065C0 5.258 5.065 0 12.032 0 19 0 24 5.194 24 11.613v.064c0 6.42-5.064 11.678-12.032 11.678S0 18.16 0 11.742zm18.806 0v-.065c0-3.87-2.838-7.096-6.838-7.096s-6.774 3.16-6.774 7.032v.064c0 3.871 2.838 7.097 6.838 7.097s6.774-3.161 6.774-7.032z"/></g><g><path fill="#00a793" d="M6.48 15.89c1.205 1.739 3.173 2.88 5.552 2.88 3.445 0 5.981-2.346 6.618-5.47-4.228.508-8.388 1.333-12.17 2.59z"/></g><g><path fill="#00d0b6" d="M23.945 12.83c-.563 5.886-5.43 10.528-11.977 10.528-4.542 0-8.248-2.207-10.278-5.522a38.258 38.258 0 0 1 4.79-1.94c1.205 1.74 3.173 2.881 5.552 2.881 3.446 0 5.982-2.345 6.619-5.47a92.716 92.716 0 0 1 5.295-.477z"/></g></g></g></svg>