<svg xmlns="http://www.w3.org/2000/svg" width="28" height="21" viewBox="0 0 28 21"><g><g><g><path fill="none" stroke="#003d4c" stroke-linecap="round" stroke-linejoin="round" stroke-miterlimit="20" stroke-width="2" d="M8.996 8.273a3.636 3.636 0 1 0 0-7.273 3.636 3.636 0 0 0 0 7.273z"/></g><g transform="rotate(270 13 16)"><path fill="none" stroke="#003d4c" stroke-linecap="round" stroke-linejoin="round" stroke-miterlimit="20" stroke-width="2" d="M17 12a8 8 0 0 1-8 8l.01-8v0z"/></g><g transform="rotate(-270 5 16)"><path fill="none" stroke="#003d4c" stroke-linecap="round" stroke-linejoin="round" stroke-miterlimit="20" stroke-width="2" d="M1 12a8 8 0 0 0 8 8l-.01-8v0"/></g></g><g><g><path fill="none" stroke="#003d4c" stroke-linecap="round" stroke-linejoin="round" stroke-miterlimit="20" stroke-width="1.5" d="M22.004 11.367a1.364 1.364 0 1 0 0-2.727 1.364 1.364 0 0 0 0 2.727z"/></g><g><path fill="none" stroke="#003d4c" stroke-linecap="round" stroke-linejoin="round" stroke-miterlimit="20" stroke-width="1.5" d="M25.364 11.364a.75.75 0 0 0 .15.827l.027.027a.91.91 0 1 1-1.286 1.287l-.028-.028a.75.75 0 0 0-.827-.15.75.75 0 0 0-.455.687v.077a.91.91 0 1 1-1.818 0v-.041a.75.75 0 0 0-.49-.686.75.75 0 0 0-.828.15l-.027.027a.91.91 0 1 1-1.287-1.286l.028-.028a.75.75 0 0 0 .15-.827.75.75 0 0 0-.687-.455h-.077a.91.91 0 1 1 0-1.818h.041a.75.75 0 0 0 .686-.49.75.75 0 0 0-.15-.828l-.027-.027a.91.91 0 1 1 1.286-1.287l.028.028a.75.75 0 0 0 .827.15h.036a.75.75 0 0 0 .455-.687V5.91a.91.91 0 1 1 1.818 0v.041a.75.75 0 0 0 .455.686.75.75 0 0 0 .827-.15l.027-.027a.91.91 0 1 1 1.287 1.286l-.028.028a.75.75 0 0 0-.15.827v.036a.75.75 0 0 0 .687.455h.077a.91.91 0 1 1 0 1.818h-.041a.75.75 0 0 0-.686.455z"/></g></g></g></svg>