<svg xmlns="http://www.w3.org/2000/svg" width="16" height="16" viewBox="0 0 16 16"><g><g><g/><g><g><path fill="#003d4c" d="M6.7 6.224a1.334 1.334 0 0 1 2.592.444c0 .328-.228.572-.464.769-.48.4-1.08.6-1.08.6a.667.667 0 0 0 .421 1.265s.84-.281 1.512-.841c.533-.443.944-1.053.944-1.792a2.666 2.666 0 0 0-5.182-.888.667.667 0 0 0 1.258.443z"/></g></g><g transform="rotate(180 8 8)"><g><path fill="#003d4c" d="M15.347 8.003a7.337 7.337 0 0 1-7.334 7.334A7.337 7.337 0 0 1 .68 8.003 7.337 7.337 0 0 1 8.013.67a7.337 7.337 0 0 1 7.334 7.333zm-13.334 0c0 3.312 2.689 6 6 6 3.312 0 6-2.688 6-6 0-3.311-2.688-6-6-6-3.311 0-6 2.689-6 6z"/></g></g><g transform="rotate(180 8 11.5)"><g><path fill="#003d4c" d="M8 10.34a1 1 0 1 0 0 2 1 1 0 0 0 0-2z"/></g></g></g></g></svg>