<svg xmlns="http://www.w3.org/2000/svg" width="113" height="112" viewBox="0 0 113 112"><defs><mask id="1gshb" width="2" height="2" x="-1" y="-1"><path fill="#fff" d="M27 25h59v58H27z"/><path d="M56.601 82.972c16.013 0 28.995-12.955 28.995-28.937 0-15.982-12.982-28.937-28.995-28.937S27.606 38.053 27.606 54.035c0 15.982 12.982 28.937 28.995 28.937z"/></mask><filter id="1gsha" width="147" height="148" x="-17" y="-19" filterUnits="userSpaceOnUse"><feOffset dy="2" in="SourceGraphic" result="FeOffset1115Out"/><feGaussianBlur in="FeOffset1115Out" result="FeGaussianBlur1116Out" stdDeviation="13.6 13.6"/></filter></defs><g><g opacity="1" transform="rotate(-270 28.5 71.5)"><path fill="#00d9b4" d="M41.053 59.624a.977.977 0 0 0-.978-.976H15.979a.975.975 0 0 0-.976 1.036c.326 4.767 3.01 24.391 25.054 24.965a.978.978 0 0 0 .996-.978z"/></g><g><g filter="url(#1gsha)"><path fill="none" d="M56.601 82.972c16.013 0 28.995-12.955 28.995-28.937 0-15.982-12.982-28.937-28.995-28.937S27.606 38.053 27.606 54.035c0 15.982 12.982 28.937 28.995 28.937z" mask="url(&quot;#1gshb&quot;)"/><path fill-opacity=".32" d="M56.601 82.972c16.013 0 28.995-12.955 28.995-28.937 0-15.982-12.982-28.937-28.995-28.937S27.606 38.053 27.606 54.035c0 15.982 12.982 28.937 28.995 28.937z"/></g><path fill="#00d5b5" d="M56.601 82.972c16.013 0 28.995-12.955 28.995-28.937 0-15.982-12.982-28.937-28.995-28.937S27.606 38.053 27.606 54.035c0 15.982 12.982 28.937 28.995 28.937z"/></g><g><path fill="#0b6882" d="M87.052 29.538a1 1 0 0 1 1.403.05l4.848 5.13a1 1 0 0 1-.052 1.424L57.778 68.6a1 1 0 0 1-1.407-.056l-4.769-5.122a1 1 0 0 1 .056-1.418z"/></g><g transform="rotate(1 51.5 57.5)"><path fill="#004052" d="M40.792 52.275a2 2 0 0 1 .106-2.873l2.148-1.93a4 4 0 0 1 5.56.209l13.487 14.073a2 2 0 0 1-.013 2.78l-3.355 3.438a2 2 0 0 1-2.874-.012z"/></g><g opacity=".5" transform="rotate(-223 57.5 56.5)"><path fill="#192f2b" d="M70.674 39.112a.977.977 0 0 0-.978-.976H45.6a.975.975 0 0 0-.976 1.036c.326 4.767 3.01 24.391 25.054 24.965a.978.978 0 0 0 .996-.978z"/></g><g><path fill="#00d5b5" d="M62.484 11.678a.84.84 0 1 0 .002-1.68.84.84 0 0 0-.002 1.68z"/></g><g><path fill="#00d5b5" d="M62.484 21.743a.84.84 0 1 0 .002-1.68.84.84 0 0 0-.002 1.68z"/></g><g><path fill="#00d5b5" d="M75.93 11.678a.84.84 0 1 0 .003-1.68.84.84 0 0 0-.002 1.68z"/></g><g><path fill="#00d5b5" d="M75.93 21.743a.84.84 0 1 0 .003-1.68.84.84 0 0 0-.002 1.68z"/></g><g><path fill="#00d5b5" d="M89.378 12.097a.84.84 0 1 0 .001-1.68.84.84 0 0 0-.001 1.68z"/></g><g><path fill="#00d5b5" d="M89.378 21.743a.84.84 0 1 0 .001-1.68.84.84 0 0 0-.001 1.68z"/></g><g><path fill="#003b4b" d="M62.484 32.647a.84.84 0 1 0 .002-1.68.84.84 0 0 0-.002 1.68z"/></g><g><path fill="#00d5b5" d="M75.93 32.647a.84.84 0 1 0 .003-1.68.84.84 0 0 0-.002 1.68z"/></g><g><path fill="#00d5b5" d="M89.378 32.647a.84.84 0 1 0 .001-1.68.84.84 0 0 0-.001 1.68z"/></g></g></svg>