<svg xmlns="http://www.w3.org/2000/svg" width="18" height="13" viewBox="0 0 18 13"><g><g><g/><g><g><path fill="#fff" d="M1.489 12.75a.75.75 0 0 1-.75-.75V.75a.75.75 0 0 1 .75-.75h15a.75.75 0 0 1 .75.75V12a.75.75 0 0 1-.75.75zm.75-11.25v9.75h13.5V1.5z"/></g></g><g><g><path fill="#fff" d="M8.989 7.888l6.945-7.64a.751.751 0 0 1 1.11 1.01l-7.5 8.25a.751.751 0 0 1-1.11 0l-7.5-8.25a.751.751 0 0 1 1.11-1.01z"/></g></g><g transform="rotate(-1.18 9 5)"><g><path fill="#fff" d="M6.231 5.879c1.618-1.403 3.845-1.462 5.418-.015a.75.75 0 1 0 1.016-1.104c-2.153-1.98-5.202-1.935-7.417-.015a.75.75 0 0 0 .983 1.134z"/></g></g></g></g></svg>