<svg xmlns="http://www.w3.org/2000/svg" width="15" height="16" viewBox="0 0 15 16"><g><g><g/><g><g><path fill="#fff" d="M6.394 14.316a.752.752 0 0 1 0-1.061l3.631-3.622a.75.75 0 0 1 1.06 0l3.622 3.622a.75.75 0 0 1 0 1.061 5.878 5.878 0 0 1-8.314 0zm4.16-3.092l-2.523 2.517a4.382 4.382 0 0 0 5.04 0z"/></g></g><g transform="rotate(135 2.5 4.5)"><g><path fill="#fff" d="M-1.24 7.879a.752.752 0 0 1-.75-.751l.007-5.129a.75.75 0 0 1 .75-.749h5.122a.75.75 0 0 1 .75.75A5.878 5.878 0 0 1-1.24 7.879zm.75-1.565A4.382 4.382 0 0 0 3.075 2.75H-.484z"/></g></g><g transform="rotate(45 4 11)"><g><path fill="#fff" d="M-.27 11.61h8.572a.75.75 0 0 0 0-1.5H-.27a.75.75 0 0 0 0 1.5z"/></g></g></g></g></svg>