<svg xmlns="http://www.w3.org/2000/svg" width="24" height="8" viewBox="0 0 24 8"><g><g><g><path fill="#1a1f71" d="M6.994.24h2.037L6.004 7.729H3.967L2.24 1.285c1.22.625 2.314 1.884 2.663 3.043l.205 1.005L6.994.24zm13.233 4.507zm0 0h1.362l-.587-2.427s-.734 2.424-.775 2.427zm3.77 2.995h-1.782l-.288-1.494h-2.26l-.557 1.488h-2.02l2.859-6.87c.199-.47.548-.603 1.007-.603h1.489zM17.233 5.27c-.017 1.507-1.331 2.48-3.352 2.48-.863-.008-1.695-.185-2.147-.386l.27-1.63.253.115c.626.271 1.038.387 1.806.387.555 0 1.149-.225 1.157-.71 0-.317-.254-.548-.998-.904-.73-.348-1.704-.927-1.688-1.97C12.541 1.238 13.88.25 15.781.25a4.86 4.86 0 0 1 1.728.309l-.261 1.568-.175-.078a3.35 3.35 0 0 0-1.434-.278c-.76 0-1.101.317-1.11.626 0 .34.413.564 1.086.896 1.11.518 1.624 1.15 1.617 1.977zm-5.5-5.03l-1.204 7.496H8.603L9.808.24z"/></g><g><path fill="#f7b600" d="M4.27 1.215C4.125.644 3.656.258 3.019.25H.031L0 .389C2.33.963 4.286 2.73 4.92 4.394z"/></g></g></g></svg>