<svg xmlns="http://www.w3.org/2000/svg" width="33" height="32" viewBox="0 0 33 32"><g><g><g><path fill="#fff" d="M16.55 25.72a9.46 9.46 0 0 1-6.773-2.876 9.368 9.368 0 0 1-2.636-6.841v-.088a9.222 9.222 0 0 1 2.592-6.797 9.313 9.313 0 0 1 6.728-2.832 9.46 9.46 0 0 1 6.772 2.875 9.368 9.368 0 0 1 2.637 6.842v.088a9.222 9.222 0 0 1-2.593 6.796 9.313 9.313 0 0 1-6.728 2.83zm-.094 6.27a16.102 16.102 0 0 0 11.67-4.512A15.963 15.963 0 0 0 33 15.995v-.089C32.712 7.021 25.382-.025 16.454 0 7.527.026.237 7.114 0 16v.089a15.807 15.807 0 0 0 4.83 11.438c3.104 3 7.302 4.612 11.626 4.464z"/></g><g><path fill="#00a793" d="M9 22.315c2.175 2.842 5.992 4.218 9.697 3.495C22.4 25.088 25.277 22.407 26 19a94.602 94.602 0 0 0-17 3.315z"/></g><g><path fill="#00d0b6" d="M33 18c-.955 6.697-6.17 12.122-13.078 13.605C13.013 33.088 5.867 30.316 2 24.655a54.825 54.825 0 0 1 6.676-2.579c2.168 2.952 5.975 4.38 9.669 3.63 3.694-.75 6.56-3.534 7.282-7.073 2.45-.28 4.917-.488 7.373-.633z"/></g></g></g></svg>