<svg id="logo_dummy_copy" data-name="logo/dummy copy" xmlns="http://www.w3.org/2000/svg" width="188" height="40"
  viewBox="0 0 188 40">
  <path id="Path_385-path"
    d="M26,3.437A3.324,3.324,0,0,0,24.27.463a3.65,3.65,0,0,0-3.559,0,3.324,3.324,0,0,0-1.729,2.973V12a9.674,9.674,0,0,0-7.717-3.53C5.4,8.466,0,12.791,0,20.689v.086C0,28.673,5.494,33,11.265,33a9.216,9.216,0,0,0,7.717-3.839v.309a3.324,3.324,0,0,0,1.729,2.973,3.65,3.65,0,0,0,3.559,0A3.324,3.324,0,0,0,26,29.468Z"
    transform="translate(36)" fill="#fff" />
  <path id="Path_385-path-2" data-name="Path_385-path"
    d="M6.1,0a6.4,6.4,0,0,1,4.466,2.035A5.829,5.829,0,0,1,12.1,6.529v.088a5.716,5.716,0,0,1-2.77,5.63,6.312,6.312,0,0,1-6.51,0,5.716,5.716,0,0,1-2.77-5.63V6.529A5.837,5.837,0,0,1,1.6,2.021,6.4,6.4,0,0,1,6.1,0Z"
    transform="translate(42.977 14.158)" fill="#001f26" />
  <path id="Path_386"
    d="M6.442,31c4.017,0,6-1.8,7.993-6.594L22.691,4.662A5.066,5.066,0,0,0,23,3.079,3.114,3.114,0,0,0,19.821,0,3.4,3.4,0,0,0,16.6,2.551L11.656,16.229,6.532,2.512A3.242,3.242,0,0,0,3.31,0,3.173,3.173,0,0,0,0,3.214,4.868,4.868,0,0,0,.353,4.753L8.43,23.4l-.219.527a2.19,2.19,0,0,1-2.384,1.407,4.405,4.405,0,0,1-1.412-.263,3.182,3.182,0,0,0-1.1-.176A2.671,2.671,0,0,0,.662,27.617a2.9,2.9,0,0,0,2.119,2.77,10.123,10.123,0,0,0,3.66.61Z"
    transform="translate(67 9)" fill="#fff" />
  <path id="Path_387"
    d="M10.068,26C15.126,26,19,23.466,19,17.88v-.087c0-4.6-3.791-6.289-7.059-7.462-2.527-.939-4.748-1.6-4.748-3V7.235c0-.985.827-1.743,2.44-1.743a11.8,11.8,0,0,1,5.058,1.6,2.28,2.28,0,0,0,1.214.329,2.51,2.51,0,0,0,1.88-.8A2.919,2.919,0,0,0,18.563,4.6a2.932,2.932,0,0,0-1.57-2.676A15.485,15.485,0,0,0,9.76,0C5.054,0,1.22,2.863,1.22,7.978v.094c0,4.881,3.7,6.525,6.972,7.555,2.571.846,4.837,1.362,4.837,2.909v.094c0,1.127-.872,1.876-2.79,1.876a11.723,11.723,0,0,1-6.318-2.253,2.4,2.4,0,0,0-1.307-.375,2.475,2.475,0,0,0-1.862.81,3.015,3.015,0,0,0,.513,4.447A15.456,15.456,0,0,0,10.068,26Z"
    transform="translate(93 8)" fill="#fff" />
  <path id="Path_388"
    d="M10.069,26C15.126,26,19,23.466,19,17.88v-.087c0-4.6-3.791-6.289-7.058-7.462-2.527-.939-4.75-1.6-4.75-3V7.235c0-.985.829-1.743,2.44-1.743a11.794,11.794,0,0,1,5.057,1.6,2.28,2.28,0,0,0,1.214.329,2.507,2.507,0,0,0,1.879-.8A2.917,2.917,0,0,0,18.559,4.6a2.93,2.93,0,0,0-1.568-2.676A15.482,15.482,0,0,0,9.759,0C5.054,0,1.22,2.863,1.22,7.978v.094c0,4.881,3.7,6.525,6.971,7.555,2.569.846,4.835,1.362,4.835,2.909v.094c0,1.127-.872,1.876-2.788,1.876a11.715,11.715,0,0,1-6.318-2.253,2.4,2.4,0,0,0-1.307-.375,2.474,2.474,0,0,0-1.862.81,3.017,3.017,0,0,0,.511,4.447A15.455,15.455,0,0,0,10.069,26Z"
    transform="translate(116 8)" fill="#fff" />
  <path id="Path_389-path"
    d="M20.5,22.958a2.853,2.853,0,0,0,.879-2.1,2.8,2.8,0,0,0-.732-1.985,2.483,2.483,0,0,0-1.861-.808,2.4,2.4,0,0,0-1.632.558A7.424,7.424,0,0,1,12.4,20.3a5.545,5.545,0,0,1-5.756-4.889H19.874a2.963,2.963,0,0,0,2.262-.976A3.342,3.342,0,0,0,23,12.015a12.176,12.176,0,0,0-3.26-8.56A10.816,10.816,0,0,0,11.657,0,11.426,11.426,0,0,0,3.224,3.871,12.86,12.86,0,0,0,.012,12.995v.093A12.889,12.889,0,0,0,3.5,22.39a11.425,11.425,0,0,0,8.816,3.6,11.784,11.784,0,0,0,8.18-3.031Z"
    transform="translate(139 8)" fill="#fff" />
  <path id="Path_390"
    d="M6.445,31c4.015,0,6-1.8,7.992-6.594L22.691,4.662A5.01,5.01,0,0,0,23,3.079,3.114,3.114,0,0,0,19.821,0,3.4,3.4,0,0,0,16.6,2.551L11.657,16.229,6.534,2.512A3.244,3.244,0,0,0,3.31,0,3.173,3.173,0,0,0,0,3.214,4.868,4.868,0,0,0,.353,4.753L8.431,23.4l-.221.527a2.188,2.188,0,0,1-2.383,1.407,4.4,4.4,0,0,1-1.412-.263,3.173,3.173,0,0,0-1.1-.176A2.671,2.671,0,0,0,.662,27.617a2.9,2.9,0,0,0,2.119,2.77A10.125,10.125,0,0,0,6.445,31Z"
    transform="translate(165 9)" fill="#fff" />
  <path id="Path_391-path"
    d="M16.456,31.991A16.033,16.033,0,0,0,33,15.995v-.088A16.509,16.509,0,0,0,0,16v.088a15.876,15.876,0,0,0,16.456,15.9Z"
    transform="translate(0 2)" fill="#fff" />
  <path id="Path_391-path-2" data-name="Path_391-path"
    d="M9.412,19.433a9.411,9.411,0,0,1-9.4-9.717V9.628A9.265,9.265,0,0,1,9.323,0a9.411,9.411,0,0,1,9.4,9.717V9.8a9.265,9.265,0,0,1-9.315,9.626Z"
    transform="translate(7.133 8.285)" fill="#001f26" />
  <path id="Path_392" d="M0,3.315a9.87,9.87,0,0,0,9.7,3.5A9.062,9.062,0,0,0,17,0,94.6,94.6,0,0,0,0,3.315Z"
    transform="translate(9 21)" fill="#00a793" />
  <path id="Path_393"
    d="M31,0A16.5,16.5,0,0,1,17.922,13.6,17.324,17.324,0,0,1,0,6.655,54.823,54.823,0,0,1,6.676,4.076a9.634,9.634,0,0,0,9.669,3.63A9.2,9.2,0,0,0,23.627.633C26.076.352,28.544.145,31,0Z"
    transform="translate(2 20)" fill="#00d0b6" />
  <path id="Path_389-path-2" data-name="Path_389-path"
    d="M0,5.308A5.407,5.407,0,0,1,5.1,0a5.213,5.213,0,0,1,4.966,5.308Z" transform="translate(145.566 13.682)"
    fill="#001f26" />
</svg>