<svg xmlns="http://www.w3.org/2000/svg" width="143" height="31" viewBox="0 0 143 31"><g><g><g><g><path fill="#003d4c" d="M37.246 10.71a4.833 4.833 0 0 1 3.376 1.54 4.412 4.412 0 0 1 1.162 3.4v.067c.224 1.687-.592 3.347-2.094 4.259a4.769 4.769 0 0 1-4.922 0c-1.502-.912-2.317-2.572-2.094-4.26v-.066a4.417 4.417 0 0 1 1.175-3.41 4.84 4.84 0 0 1 3.397-1.53zM47.03 2.6c.024-.921-.477-1.782-1.308-2.25a2.762 2.762 0 0 0-2.693 0c-.83.468-1.331 1.329-1.307 2.25v6.475c-1.394-1.724-3.56-2.715-5.84-2.67-4.436 0-8.523 3.272-8.523 9.247v.065c0 5.974 4.157 9.246 8.524 9.246 2.336.043 4.535-1.05 5.839-2.904v.234c-.024.92.476 1.782 1.307 2.25a2.762 2.762 0 0 0 2.693 0c.831-.468 1.332-1.33 1.308-2.25z"/></g><g><path fill="#003d4c" d="M55.688 30.259c3.04 0 4.542-1.364 6.048-4.989l6.246-14.935c.142-.384.22-.788.234-1.197a2.346 2.346 0 0 0-.714-1.664 2.365 2.365 0 0 0-1.69-.665 2.57 2.57 0 0 0-2.439 1.929l-3.74 10.348-3.877-10.377a2.453 2.453 0 0 0-2.437-1.897 2.41 2.41 0 0 0-1.777.677 2.39 2.39 0 0 0-.728 1.75c.025.4.115.794.267 1.165l6.111 14.105-.165.398a1.657 1.657 0 0 1-1.804 1.064 3.334 3.334 0 0 1-1.068-.2 2.408 2.408 0 0 0-.836-.132 2.03 2.03 0 0 0-1.434.614 2.013 2.013 0 0 0-.57 1.448 2.19 2.19 0 0 0 1.604 2.096 7.66 7.66 0 0 0 2.77.462z"/></g><g><path fill="#003d4c" d="M78.104 25.721c3.826 0 6.758-1.917 6.758-6.143v-.065c0-3.48-2.869-4.758-5.341-5.645-1.912-.71-3.593-1.207-3.593-2.272v-.07c0-.746.626-1.32 1.846-1.32a8.928 8.928 0 0 1 3.827 1.207c.28.169.598.254.919.25a1.899 1.899 0 0 0 1.422-.61c.378-.4.59-.95.59-1.52.009-.87-.456-1.662-1.189-2.025a11.718 11.718 0 0 0-5.472-1.456c-3.56 0-6.461 2.166-6.461 6.035v.071c0 3.693 2.802 4.936 5.274 5.716 1.946.64 3.66 1.03 3.66 2.2v.072c0 .852-.66 1.419-2.11 1.419a8.87 8.87 0 0 1-4.78-1.705c-.3-.189-.642-.287-.99-.283a1.873 1.873 0 0 0-1.409.612c-.373.402-.578.95-.569 1.518-.004.754.359 1.455.957 1.846 1.98 1.397 4.293 2.15 6.66 2.168z"/></g><g><path fill="#003d4c" d="M95.506 25.721c3.827 0 6.758-1.917 6.758-6.143v-.065c0-3.48-2.868-4.758-5.34-5.645-1.912-.71-3.594-1.207-3.594-2.272v-.07c0-.746.627-1.32 1.846-1.32a8.924 8.924 0 0 1 3.826 1.207c.28.169.597.254.919.25a1.897 1.897 0 0 0 1.421-.61c.378-.4.59-.95.588-1.52.01-.869-.454-1.662-1.186-2.025a11.715 11.715 0 0 0-5.472-1.456c-3.56 0-6.46 2.166-6.46 6.035v.071c0 3.693 2.8 4.936 5.274 5.716 1.944.64 3.658 1.03 3.658 2.2v.072c0 .852-.66 1.419-2.11 1.419a8.865 8.865 0 0 1-4.78-1.705c-.299-.189-.64-.287-.988-.283a1.872 1.872 0 0 0-1.409.612c-.373.402-.578.95-.568 1.518-.004.753.358 1.453.955 1.846 1.98 1.398 4.294 2.15 6.662 2.168z"/></g><g><path fill="#003d4c" d="M120.798 23.418c-1.729 1.541-3.93 2.357-6.19 2.293-2.483.119-4.901-.868-6.669-2.72-1.768-1.854-2.725-4.405-2.64-7.038v-.07c-.11-2.556.768-5.048 2.43-6.903 1.663-1.855 3.967-2.911 6.381-2.926 2.288-.045 4.495.898 6.113 2.612 1.618 1.714 2.508 4.052 2.466 6.476a2.528 2.528 0 0 1-.65 1.832 2.242 2.242 0 0 1-1.712.739H110.32c.328 2.242 2.218 3.847 4.355 3.698a5.618 5.618 0 0 0 3.591-1.267c.352-.292.79-.441 1.235-.422a1.879 1.879 0 0 1 1.409.611c.37.4.57.942.553 1.502a2.158 2.158 0 0 1-.665 1.585zm-2.93-9.052c-.017-2.197-1.683-3.978-3.754-4.015-2.079.06-3.761 1.812-3.856 4.015z"/></g><g><path fill="#003d4c" d="M129.84 30.259c3.037 0 4.54-1.364 6.046-4.99l6.244-14.934a3.79 3.79 0 0 0 .234-1.197 2.346 2.346 0 0 0-.714-1.664 2.365 2.365 0 0 0-1.69-.665 2.57 2.57 0 0 0-2.438 1.929l-3.74 10.348-3.876-10.377a2.454 2.454 0 0 0-2.44-1.897 2.41 2.41 0 0 0-1.776.677 2.39 2.39 0 0 0-.727 1.75c.024.4.115.794.266 1.165l6.113 14.104-.168.399a1.655 1.655 0 0 1-1.803 1.064 3.333 3.333 0 0 1-1.069-.2 2.401 2.401 0 0 0-.835-.132 2.029 2.029 0 0 0-1.434.614 2.013 2.013 0 0 0-.57 1.448 2.19 2.19 0 0 0 1.604 2.096c.887.323 1.827.48 2.772.462z"/></g><g><g><path fill="#003d4c" d="M12.643 20.97a7.158 7.158 0 0 1-5.124-2.175 7.086 7.086 0 0 1-1.995-5.176v-.067a6.976 6.976 0 0 1 1.96-5.141 7.047 7.047 0 0 1 5.092-2.142A7.158 7.158 0 0 1 17.7 8.443a7.086 7.086 0 0 1 1.994 5.176v.067a6.976 6.976 0 0 1-1.961 5.14 7.047 7.047 0 0 1-5.09 2.142zm-.071 4.744a12.184 12.184 0 0 0 8.83-3.414 12.075 12.075 0 0 0 3.687-8.687v-.067C24.871 6.825 19.325 1.494 12.57 1.513 5.816 1.533.3 6.895.121 13.618v.066a11.957 11.957 0 0 0 3.654 8.653 12.066 12.066 0 0 0 8.797 3.377z"/></g><g><path fill="#00a793" d="M6.93 18.394c1.646 2.15 4.534 3.19 7.337 2.644 2.803-.546 4.979-2.574 5.526-5.152a71.586 71.586 0 0 0-12.862 2.508z"/></g><g><path fill="#00d0b6" d="M25.09 15.13c-.723 5.066-4.669 9.17-9.896 10.292-5.227 1.122-10.634-.975-13.56-5.258a41.486 41.486 0 0 1 5.052-1.95c1.64 2.232 4.52 3.314 7.315 2.746 2.795-.568 4.964-2.674 5.51-5.351 1.853-.212 3.72-.369 5.578-.479z"/></g></g></g></g></g></svg>