<svg xmlns="http://www.w3.org/2000/svg" width="16" height="21" viewBox="0 0 16 21"><g><g><g><g/><g transform="rotate(-90 8 4.5)"><g><path fill="#fff" d="M4.69 1.53h2.8c1.544 0 2.8 1.237 2.8 2.769s-1.256 2.769-2.8 2.769h-2.8a1 1 0 0 0 0 2h2.8c2.653 0 4.8-2.137 4.8-4.769S10.143-.47 7.49-.47h-2.8a1 1 0 0 0 0 2z"/></g></g><g transform="rotate(180 8 14)"><g><path fill="#fff" d="M14.01 9H7.785a1 1 0 0 1 0-2h7.225a1 1 0 0 1 1 1v12a1 1 0 0 1-1 1h-14a1 1 0 0 1-1-1v-4.937a1 1 0 0 1 2-.001V19h12z"/></g></g><g><g><path fill="#fff" d="M8.015 20.996a1 1 0 0 1-1-1v-7a1 1 0 0 1 1-1h7a1 1 0 0 1 1 1 8 8 0 0 1-8 8zm1-7v4.917a6.005 6.005 0 0 0 4.917-4.917z"/></g></g></g></g></g></svg>