<svg xmlns="http://www.w3.org/2000/svg" width="92" height="36" viewBox="0 0 92 36"><g><g><path fill="#003d4c" d="M8.346 28.397c0 1.452-.368 2.593-1.105 3.425-.732.831-1.752 1.247-3.059 1.247-1.336 0-2.368-.407-3.096-1.222C.362 31.027 0 29.873 0 28.384c0-1.477.364-2.62 1.092-3.431.728-.815 1.762-1.222 3.103-1.222 1.303 0 2.32.413 3.052 1.24.733.828 1.099 1.97 1.099 3.426zm-7.23 0c0 1.228.261 2.161.783 2.798.525.633 1.286.95 2.283.95 1.005 0 1.764-.317 2.277-.95.513-.633.77-1.566.77-2.798 0-1.22-.257-2.145-.77-2.774-.508-.633-1.263-.95-2.264-.95-1.006 0-1.77.32-2.296.956-.522.633-.782 1.556-.782 2.768zm13.916 4.548v-4.4c0-.554-.126-.967-.378-1.24-.253-.273-.648-.41-1.186-.41-.711 0-1.232.192-1.563.577-.331.385-.497 1.02-.497 1.905v3.568h-1.03v-6.8h.838l.168.93h.05c.21-.335.506-.594.887-.776.38-.186.804-.279 1.272-.279.819 0 1.435.199 1.849.596.413.393.62 1.024.62 1.892v4.437zm4.341 0h-1.03V23.29h1.03zm3.373 0h-1.03v-6.8h1.03zM21.63 24.3c0-.235.058-.407.174-.515a.6.6 0 0 1 .434-.167c.166 0 .309.056.429.167.12.112.18.284.18.515 0 .232-.06.406-.18.522a.607.607 0 0 1-.429.167.6.6 0 0 1-.434-.167c-.116-.116-.174-.29-.174-.522zm8.114 8.644v-4.4c0-.554-.126-.967-.379-1.24-.252-.273-.647-.41-1.185-.41-.711 0-1.232.192-1.563.577-.331.385-.497 1.02-.497 1.905v3.568h-1.03v-6.8h.838l.167.93h.05c.211-.335.507-.594.887-.776.38-.186.805-.279 1.272-.279.82 0 1.436.199 1.85.596.413.393.62 1.024.62 1.892v4.437zm6.184.124c-1.005 0-1.8-.306-2.383-.918-.58-.613-.869-1.463-.869-2.55 0-1.097.27-1.968.807-2.613.542-.645 1.268-.968 2.178-.968.852 0 1.526.281 2.023.844.496.559.744 1.297.744 2.215v.652h-4.684c.02.798.22 1.404.601 1.818.385.413.925.62 1.62.62.732 0 1.456-.153 2.172-.459v.918c-.364.158-.71.27-1.037.336-.322.07-.713.105-1.172.105zm-.28-6.186c-.545 0-.982.178-1.309.533-.322.356-.513.848-.57 1.477h3.555c0-.65-.145-1.146-.434-1.49-.29-.347-.704-.52-1.241-.52zm8.316-3.01h2.563c1.204 0 2.075.18 2.612.54.538.36.807.929.807 1.706 0 .538-.151.983-.453 1.335-.298.347-.734.572-1.31.676v.062c1.378.236 2.067.96 2.067 2.172 0 .81-.275 1.443-.825 1.898-.546.455-1.311.683-2.296.683h-3.165zm1.055 3.885h1.738c.744 0 1.28-.116 1.607-.348.327-.236.49-.63.49-1.185 0-.509-.182-.875-.546-1.098-.364-.228-.943-.342-1.737-.342h-1.552zm0 .893v3.394h1.893c.732 0 1.282-.14 1.65-.422.373-.285.559-.73.559-1.334 0-.562-.19-.976-.571-1.24-.376-.266-.951-.398-1.725-.398zm11.371 4.294l-.204-.968h-.05c-.34.426-.678.716-1.017.869-.336.149-.756.223-1.26.223-.674 0-1.204-.174-1.589-.521-.38-.348-.57-.842-.57-1.483 0-1.374 1.098-2.093 3.294-2.16l1.154-.037v-.422c0-.533-.115-.926-.347-1.179-.228-.256-.594-.384-1.098-.384-.567 0-1.208.173-1.924.52l-.316-.787a4.852 4.852 0 0 1 1.098-.428 4.806 4.806 0 0 1 1.204-.155c.81 0 1.41.18 1.8.54.392.36.589.936.589 1.73v4.642zm-2.326-.726c.64 0 1.143-.176 1.507-.527.369-.352.553-.844.553-1.477V29.6l-1.03.044c-.82.029-1.41.157-1.775.385-.36.223-.54.573-.54 1.048 0 .373.112.656.335.85.228.195.544.292.95.292zm10.03.726v-4.4c0-.554-.126-.967-.378-1.24s-.647-.41-1.185-.41c-.712 0-1.233.192-1.564.577-.33.385-.496 1.02-.496 1.905v3.568h-1.03v-6.8h.837l.168.93h.05c.21-.335.506-.594.887-.776.38-.186.805-.279 1.272-.279.82 0 1.435.199 1.85.596.413.393.62 1.024.62 1.892v4.437zm4.33-3.481a12.1 12.1 0 0 1 .812-.993l2.197-2.327h1.222l-2.755 2.898 2.947 3.903H71.6l-2.401-3.214-.776.67v2.544h-1.018V23.29h1.018v5.12c0 .227-.016.578-.05 1.054zm6.847 3.48h-1.03v-6.8h1.03zm-1.117-8.643c0-.235.058-.407.174-.515a.6.6 0 0 1 .434-.167c.166 0 .308.056.428.167.12.112.18.284.18.515 0 .232-.06.406-.18.522a.607.607 0 0 1-.428.167.6.6 0 0 1-.434-.167c-.116-.116-.174-.29-.174-.522zm8.114 8.644v-4.4c0-.554-.126-.967-.379-1.24-.252-.273-.647-.41-1.185-.41-.712 0-1.233.192-1.564.577-.33.385-.496 1.02-.496 1.905v3.568h-1.03v-6.8h.838l.167.93h.05c.21-.335.506-.594.887-.776.38-.186.805-.279 1.272-.279.82 0 1.436.199 1.85.596.413.393.62 1.024.62 1.892v4.437zm8.877-6.8v.65l-1.26.15c.116.145.22.335.31.57.091.232.137.495.137.789 0 .666-.228 1.197-.683 1.594-.455.397-1.08.596-1.874.596a3.12 3.12 0 0 1-.57-.05c-.44.232-.658.524-.658.875 0 .186.076.325.23.416.152.087.415.13.787.13h1.204c.736 0 1.301.155 1.694.466.397.31.596.76.596 1.352 0 .753-.302 1.326-.906 1.72-.604.396-1.485.595-2.644.595-.889 0-1.576-.166-2.06-.497-.48-.33-.72-.798-.72-1.402 0-.414.133-.771.398-1.073.264-.302.637-.507 1.117-.615a1.1 1.1 0 0 1-.441-.366.981.981 0 0 1-.174-.577c0-.248.066-.465.199-.651.132-.187.341-.366.627-.54a1.853 1.853 0 0 1-.863-.739 2.185 2.185 0 0 1-.329-1.19c0-.746.224-1.318.67-1.72.447-.405 1.08-.608 1.9-.608.355 0 .675.042.96.124zm-5.424 7.942c0 .368.155.647.466.837.31.19.755.286 1.334.286.864 0 1.504-.13 1.917-.391.418-.257.627-.606.627-1.049 0-.368-.114-.624-.341-.77-.228-.14-.656-.21-1.285-.21h-1.235c-.467 0-.831.111-1.092.335-.26.223-.39.544-.39.962zm.559-5.765c0 .476.134.836.403 1.08.269.244.643.366 1.123.366 1.005 0 1.508-.488 1.508-1.464 0-1.022-.509-1.533-1.526-1.533-.484 0-.857.13-1.117.39-.26.262-.391.648-.391 1.161z"/></g><g><g><path fill="#003d4c" d="M30.365 14.343a1.636 1.636 0 1 1-3.273 0v-.15c-.797 1.076-1.896 1.873-3.597 1.873-2.692 0-5.255-2.11-5.255-5.965v-.043c0-3.855 2.52-5.966 5.255-5.966 1.744 0 2.821.797 3.597 1.723V1.637a1.636 1.636 0 1 1 3.273 0zm-8.851-4.285v.043c0 1.916 1.292 3.187 2.82 3.187 1.53 0 2.8-1.27 2.8-3.187v-.043c0-1.917-1.27-3.188-2.8-3.188-1.528 0-2.82 1.25-2.82 3.188zm12.514 9.002c-.474-.172-1.034-.56-1.034-1.357 0-.797.624-1.335 1.292-1.335.258 0 .41.043.538.086.28.086.453.13.69.13.581 0 .861-.108 1.163-.69l.107-.258-3.941-9.132c-.086-.215-.172-.538-.172-.754 0-.926.71-1.572 1.615-1.572.818 0 1.292.452 1.572 1.228l2.498 6.72 2.412-6.699c.259-.689.733-1.249 1.573-1.249s1.55.646 1.55 1.508c0 .258-.086.624-.15.775l-4.028 9.67c-.969 2.347-1.938 3.23-3.898 3.23-.732 0-1.25-.107-1.787-.301zm11.638-4.307a1.305 1.305 0 0 1-.624-1.12c0-.733.56-1.292 1.292-1.292.237 0 .474.064.646.172 1.099.689 2.197 1.034 3.123 1.034.948 0 1.378-.345 1.378-.862v-.043c0-.71-1.12-.948-2.39-1.335-1.616-.474-3.446-1.228-3.446-3.468v-.043c0-2.347 1.895-3.661 4.221-3.661 1.206 0 2.455.323 3.575.883.474.237.775.668.775 1.228 0 .732-.581 1.292-1.313 1.292-.237 0-.388-.043-.603-.15-.926-.453-1.81-.733-2.499-.733-.796 0-1.206.344-1.206.797v.043c0 .646 1.099.947 2.348 1.378 1.615.539 3.489 1.314 3.489 3.424v.043c0 2.563-1.917 3.726-4.415 3.726-1.422 0-2.95-.409-4.35-1.313zm10.735 0a1.305 1.305 0 0 1-.625-1.12c0-.733.56-1.292 1.293-1.292.237 0 .473.064.646.172 1.098.689 2.196 1.034 3.123 1.034.947 0 1.378-.345 1.378-.862v-.043c0-.71-1.12-.948-2.39-1.335-1.616-.474-3.447-1.228-3.447-3.468v-.043c0-2.347 1.896-3.661 4.222-3.661 1.206 0 2.455.323 3.575.883.474.237.775.668.775 1.228 0 .732-.581 1.292-1.314 1.292-.237 0-.387-.043-.603-.15-.926-.453-1.809-.733-2.498-.733-.797 0-1.206.344-1.206.797v.043c0 .646 1.098.947 2.348 1.378 1.615.539 3.489 1.314 3.489 3.424v.043c0 2.563-1.917 3.726-4.416 3.726-1.421 0-2.95-.409-4.35-1.313zm18.827-5.578c-.193-1.465-1.055-2.456-2.433-2.456-1.357 0-2.24.97-2.498 2.456zm-2.11 6.934c-3.467 0-6.03-2.433-6.03-5.965V10.1c0-3.295 2.347-6.009 5.707-6.009 3.855 0 5.556 3.166 5.556 5.556 0 .948-.667 1.573-1.529 1.573H70.34c.323 1.486 1.356 2.26 2.82 2.26.906 0 1.66-.279 2.327-.774.237-.173.452-.259.797-.259.732 0 1.27.56 1.27 1.292 0 .431-.193.754-.43.97-1.013.861-2.326 1.4-4.006 1.4zm8.16 2.95c-.474-.171-1.034-.559-1.034-1.356s.624-1.335 1.292-1.335c.259 0 .41.043.539.086.28.086.452.13.689.13.581 0 .861-.108 1.163-.69l.107-.258-3.94-9.132c-.087-.215-.173-.538-.173-.754 0-.926.71-1.572 1.615-1.572.818 0 1.292.452 1.572 1.228l2.499 6.72 2.412-6.699c.258-.689.732-1.249 1.572-1.249.84 0 1.55.646 1.55 1.508 0 .258-.086.624-.15.775l-4.028 9.67c-.969 2.347-1.938 3.23-3.898 3.23-.732 0-1.249-.107-1.787-.301z"/></g><g><g><path fill="#003d4c" d="M0 8.92v-.044C0 4.59 3.381 1.08 8.033 1.08c4.652 0 7.99 3.467 7.99 7.753v.043c0 4.286-3.381 7.797-8.033 7.797-4.652 0-7.99-3.468-7.99-7.754zm12.556 0v-.044c0-2.584-1.895-4.738-4.566-4.738-2.67 0-4.523 2.11-4.523 4.695v.043c0 2.585 1.896 4.738 4.566 4.738s4.523-2.11 4.523-4.695z"/></g><g><path fill="#00a793" d="M4.33 11.699c.804 1.16 2.118 1.923 3.707 1.923 2.3 0 3.993-1.566 4.418-3.652-2.823.34-5.6.89-8.125 1.729z"/></g><g><path fill="#00d0b6" d="M15.989 9.65c-.377 3.93-3.626 7.029-7.997 7.029-3.033 0-5.507-1.474-6.862-3.687a25.542 25.542 0 0 1 3.198-1.294c.805 1.16 2.119 1.923 3.707 1.923 2.3 0 3.993-1.566 4.419-3.652a61.903 61.903 0 0 1 3.535-.319z"/></g></g></g></g></svg>