<svg xmlns="http://www.w3.org/2000/svg" width="34" height="28" viewBox="0 0 34 28"><g><g clip-path="url(#clip-7e3eb3ce-44ad-4232-9207-46e97504fafe)"><g><g><path fill="#003d4c" d="M19.212 23.9c-1.426 0-2.814-.54-3.855-1.658-.694-.694-1.156-1.504-1.426-2.506-.039-.193-.116-.424-.116-.732h2.313c0 .038.039.154.039.192.154.579.385 1.003.81 1.427 1.194 1.195 3.237 1.195 4.432 0 .578-.578.887-1.35.887-2.197 0-.849-.309-1.62-.887-2.198-.578-.578-1.35-.886-2.197-.886-.848 0-1.62.308-2.197.886l-1.62-1.619a5.42 5.42 0 0 1 7.672 0c1.002 1.041 1.58 2.39 1.58 3.855a5.453 5.453 0 0 1-1.58 3.855c-1.041 1.002-2.39 1.58-3.855 1.58zm8.904-11.758V10.91h2.313v1.233c0 .54.463 1.002 1.002 1.002h1.234v2.313H31.43c-1.811 0-3.315-1.503-3.315-3.315zM8.341 24.824a1.02 1.02 0 0 0-1.002-1.002H6.106V21.51h1.233c1.812 0 3.315 1.504 3.315 3.315v1.234H8.341zm19.775 0c0-1.811 1.504-3.315 3.315-3.315h1.234v2.313H31.43a1.02 1.02 0 0 0-1.002 1.002v1.234h-2.313z"/></g></g><g><path fill="#003d4c" d="M2.058 9.213l3.007-6.67 9.791 1.89 4.047 5.204h-6.707l-.964-1.041c-.424-.463-1.156-.463-1.619-.039-.462.424-.462 1.157-.038 1.62l5.55 5.897c.425.424.425 1.118.04 1.542-.425.463-1.119.54-1.581.193zm5.05 15.843V15.88l5.088 3.778c.617.462 1.31.694 2.043.694.964 0 1.927-.386 2.621-1.195 1.195-1.31 1.195-3.315-.038-4.664l-2.429-2.583h17.308v13.145zM-.447 9.136A1.127 1.127 0 0 0-.1 10.523l4.895 3.624v12.065c0 .655.501 1.156 1.157 1.156h26.906c.655 0 1.156-.5 1.156-1.156V10.755c0-.656-.501-1.157-1.156-1.157H21.872L16.436 2.66a1.023 1.023 0 0 0-.693-.424L4.603.116C4.062 0 3.561.27 3.33.77L-.447 9.136z"/></g></g></g></svg>