<svg xmlns="http://www.w3.org/2000/svg" width="25" height="21" viewBox="0 0 25 21"><g><g clip-path="url(#clip-82bd3594-5b7f-4416-82ae-9fc60a1d7026)"><g><g><path fill="#00d1b6" d="M14.17 17.838a3.833 3.833 0 0 1-2.844-1.222 3.993 3.993 0 0 1-1.052-1.848c-.028-.142-.085-.313-.085-.54h1.706c0 .028.028.114.028.142.114.427.284.74.597 1.052.882.881 2.388.881 3.27 0 .426-.427.653-.995.653-1.62 0-.626-.227-1.195-.653-1.621a2.254 2.254 0 0 0-1.62-.654c-.626 0-1.195.227-1.621.654l-1.194-1.194a3.998 3.998 0 0 1 5.657 0 4.072 4.072 0 0 1 1.166 2.843c0 1.08-.427 2.104-1.166 2.843a4.072 4.072 0 0 1-2.843 1.165zm9.011-6.226a2.463 2.463 0 0 1-2.445-2.445v-.91h1.706v.91c0 .398.341.74.74.74h.909v1.705zM6.152 18.521a.753.753 0 0 0-.74-.74h-.909v-1.705h.91a2.463 2.463 0 0 1 2.445 2.445v.91H6.152zm14.584 0a2.463 2.463 0 0 1 2.445-2.445h.91v1.706h-.91a.753.753 0 0 0-.739.739v.91h-1.706z"/></g></g><g><path fill="#003d4c" d="M1.518 7.007l2.217-4.919 7.222 1.393 2.985 3.838H8.995l-.71-.767C7.97 6.21 7.43 6.21 7.09 6.523c-.341.313-.341.853-.028 1.195l4.094 4.35a.835.835 0 0 1 .028 1.136c-.313.342-.824.398-1.166.143zM5.242 18.69v-6.766l3.753 2.786c.455.341.966.512 1.507.512a2.52 2.52 0 0 0 1.933-.881c.881-.967.881-2.445-.029-3.44l-1.79-1.905H23.38v9.694H5.242zM-.074 7.973l3.61 2.673v8.898c0 .483.37.853.853.853h19.844c.483 0 .853-.37.853-.853v-11.4a.838.838 0 0 0-.853-.853h-8.102l-4.009-5.117a.754.754 0 0 0-.512-.313L3.394.297c-.398-.085-.767.114-.938.484L-.33 6.95a.831.831 0 0 0 .256 1.023z"/></g></g></g></svg>