<svg xmlns="http://www.w3.org/2000/svg" width="20" height="24" viewBox="0 0 20 24"><g><g><g><path fill="none" stroke="#003a4b" stroke-linecap="round" stroke-linejoin="round" stroke-miterlimit="20" stroke-width="2" d="M10.844 1v0H3.25c-.597 0-1.169.232-1.591.644A2.175 2.175 0 0 0 1 3.2v17.6c0 .583.237 1.143.659 1.556.422.412.994.644 1.591.644h13.5c.597 0 1.169-.232 1.591-.644.422-.413.659-.973.659-1.556V8.7"/></g><g><path fill="none" stroke="#00d1b6" stroke-linecap="round" stroke-linejoin="round" stroke-miterlimit="20" stroke-width="2" d="M14.241 13.517H5.414"/></g><g><path fill="none" stroke="#00d1b6" stroke-linecap="round" stroke-linejoin="round" stroke-miterlimit="20" stroke-width="2" d="M14.241 17.931H5.414"/></g><g><path fill="none" stroke="#003a4b" stroke-linecap="round" stroke-linejoin="round" stroke-miterlimit="20" stroke-width="2" d="M11 9v0-8 0h4a4 4 0 0 1 4 4v4z"/></g></g></g></svg>