<svg xmlns="http://www.w3.org/2000/svg" width="29" height="21" viewBox="0 0 29 21"><defs><clipPath id="wxc3a"><path fill="#fff" d="M15.5 6.5a6.5 6.5 0 1 1 13 0 6.5 6.5 0 0 1-13 0z"/></clipPath></defs><g><g><g><g><path fill="none" stroke="#003d4c" stroke-linecap="round" stroke-linejoin="round" stroke-miterlimit="20" stroke-width="2" d="M1 10h22"/></g><g><path fill="none" stroke="#003d4c" stroke-linecap="round" stroke-linejoin="round" stroke-miterlimit="20" stroke-width="2" d="M3 20a2 2 0 0 1-2-2V6a2 2 0 0 1 2-2h18a2 2 0 0 1 2 2v12a2 2 0 0 1-2 2z"/></g></g><g><g><path fill="#fff" d="M15.5 6.5a6.5 6.5 0 1 1 13 0 6.5 6.5 0 0 1-13 0z"/><path fill="none" stroke="#00d1b6" stroke-miterlimit="20" stroke-width="4" d="M15.5 6.5a6.5 6.5 0 1 1 13 0 6.5 6.5 0 0 1-13 0z" clip-path="url(&quot;#wxc3a&quot;)"/></g><g><g/><g><path fill="#00d1b6" d="M22.008 7.573a1.033 1.033 0 0 1 0-2.063 1.033 1.033 0 0 1 0 2.063zm2.19-.743c.012-.094.02-.189.02-.289 0-.1-.008-.194-.02-.289l.622-.486a.149.149 0 0 0 .036-.189l-.59-1.02a.148.148 0 0 0-.18-.064l-.734.294a2.154 2.154 0 0 0-.498-.289l-.112-.78a.144.144 0 0 0-.144-.125h-1.18a.144.144 0 0 0-.144.124l-.112.781c-.18.074-.345.174-.498.29l-.734-.295a.144.144 0 0 0-.18.064l-.59 1.02a.145.145 0 0 0 .036.189l.622.486c-.012.095-.02.192-.02.29 0 .097.008.194.02.288l-.622.487a.149.149 0 0 0-.036.188l.59 1.02a.148.148 0 0 0 .18.065l.734-.295c.153.118.318.215.498.29l.112.78c.009.071.07.124.144.124h1.18a.144.144 0 0 0 .144-.124l.112-.78c.18-.075.345-.175.498-.29l.734.295c.068.027.145 0 .18-.065l.59-1.02a.149.149 0 0 0-.036-.188z"/></g></g></g></g></g></svg>