<svg xmlns="http://www.w3.org/2000/svg" width="21" height="21" viewBox="0 0 21 21"><g><g/><g><path fill="#003d4c" d="M2.31 1.655a.743.743 0 0 1 .05-.255.6.6 0 0 1 .085-.164h.017a.59.59 0 0 1 .292-.206h.025A.694.694 0 0 1 2.966 1h16.379a.74.74 0 0 1 .223.115h.022c.06.019.116.046.168.082a.597.597 0 0 1 .242.459v12.12a.655.655 0 0 1-.655.655H7.709c.888.907 1.737 1.503 2.424 1.687.115-.036.35-.403.462-.577.25-.39.63-.976 1.268-.793.917.256 1.3.364 3.243.852.53.14 1.458.468 1.667 1.124a2.565 2.565 0 0 1-.88 2.748 5.067 5.067 0 0 1-3.417 1.163 8.345 8.345 0 0 1-2.25-.328c-2.3-.635-4.603-2.172-6.487-4.317C1.8 13.775.811 11.194 1.03 8.862a4.612 4.612 0 0 1 1.28-2.948zm7.49 15.74c-1.553-.41-3.07-1.962-4.053-3.194a14.98 14.98 0 0 1-1.336-1.932c-.492-.927.645-1.77 1.382-2.293a874.766 874.766 0 0 0-.884-3.519c-.023-.085-.04-.15-.056-.196-.134.02-.328.059-.521.098l-.246.05a1.736 1.736 0 0 0-.717.327c-.567.439-.943 1.274-1.035 2.257-.184 1.972.671 4.2 2.388 6.145 1.716 1.946 3.796 3.335 5.857 3.911 1.828.515 3.466.312 4.448-.556a1.356 1.356 0 0 0 .515-1.31 2.141 2.141 0 0 0-.754-.312c-1.742-.452-2.244-.573-2.987-.78a3.068 3.068 0 0 0-.102.158c-.314.475-.897 1.395-1.9 1.146zm8.89-4.275V3.018l-7.128 5.605a.655.655 0 0 1-.813 0L3.621 3.018v2.136c.069-.02.135-.05.203-.05l.246-.049c1.12-.229 1.753-.291 2.103 1.042.036.157.806 3.243.983 3.957.128.446-.223.688-.55.924a5.24 5.24 0 0 0-.964.796c.036.062.086.138.138.22l.023.039.177.265.04.062.222.328.049.059c.085.118.18.242.278.373zM4.86 2.31l6.295 4.966 6.297-4.966z"/><path fill="none" stroke="#003d4c" stroke-miterlimit="20" stroke-width=".5" d="M2.31 1.655a.743.743 0 0 1 .05-.255.6.6 0 0 1 .085-.164h.017a.59.59 0 0 1 .292-.206h.025A.694.694 0 0 1 2.966 1h16.379a.74.74 0 0 1 .223.115h.022c.06.019.116.046.168.082a.597.597 0 0 1 .242.459v12.12a.655.655 0 0 1-.655.655H7.709c.888.907 1.737 1.503 2.424 1.687.115-.036.35-.403.462-.577.25-.39.63-.976 1.268-.793.917.256 1.3.364 3.243.852.53.14 1.458.468 1.667 1.124a2.565 2.565 0 0 1-.88 2.748 5.067 5.067 0 0 1-3.417 1.163 8.345 8.345 0 0 1-2.25-.328c-2.3-.635-4.603-2.172-6.487-4.317C1.8 13.775.811 11.194 1.03 8.862a4.612 4.612 0 0 1 1.28-2.948zm7.49 15.74c-1.553-.41-3.07-1.962-4.053-3.194a14.98 14.98 0 0 1-1.336-1.932c-.492-.927.645-1.77 1.382-2.293a874.766 874.766 0 0 0-.884-3.519c-.023-.085-.04-.15-.056-.196-.134.02-.328.059-.521.098l-.246.05a1.736 1.736 0 0 0-.717.327c-.567.439-.943 1.274-1.035 2.257-.184 1.972.671 4.2 2.388 6.145 1.716 1.946 3.796 3.335 5.857 3.911 1.828.515 3.466.312 4.448-.556a1.356 1.356 0 0 0 .515-1.31 2.141 2.141 0 0 0-.754-.312c-1.742-.452-2.244-.573-2.987-.78a3.068 3.068 0 0 0-.102.158c-.314.475-.897 1.395-1.9 1.146zm8.89-4.275V3.018l-7.128 5.605a.655.655 0 0 1-.813 0L3.621 3.018v2.136c.069-.02.135-.05.203-.05l.246-.049c1.12-.229 1.753-.291 2.103 1.042.036.157.806 3.243.983 3.957.128.446-.223.688-.55.924a5.24 5.24 0 0 0-.964.796c.036.062.086.138.138.22l.023.039.177.265.04.062.222.328.049.059c.085.118.18.242.278.373zM4.86 2.31l6.295 4.966 6.297-4.966z"/></g></g></svg>