<svg xmlns="http://www.w3.org/2000/svg" width="212" height="81" viewBox="0 0 212 81">
    <g id="Group_4" data-name="Group 4" transform="translate(2 2)">
        <g id="Group_11" data-name="Group 11">
            <g id="icon_phone" data-name="icon/phone" transform="translate(163)">
                <path id="Path"
                    d="M38.571,0H6.429C2.878,0,0,3.447,0,7.7V69.3C0,73.553,2.878,77,6.429,77H38.571C42.122,77,45,73.553,45,69.3V7.7C45,3.447,42.122,0,38.571,0Z"
                    fill="none" stroke="#00d1b6" stroke-linecap="round" stroke-linejoin="round" stroke-miterlimit="10"
                    stroke-width="4" />
                <path id="Path-2" data-name="Path" d="M1.485,2h.03" transform="translate(21 66)" fill="none"
                    stroke="#00d1b6" stroke-linecap="round" stroke-linejoin="round" stroke-miterlimit="10"
                    stroke-width="4" />
                <g id="navigation-_-Side-navigation-_-Accounts-compressed"
                    data-name="navigation-/-Side-navigation-/-Accounts-compressed" transform="translate(-24.963)">
                    <g id="logo_o-dummy" data-name="logo/o-dummy" transform="translate(38 29)">
                        <g id="logo_o-dummy-2" data-name="logo/o-dummy" transform="translate(0 0)">
                            <path id="Path_391"
                                d="M17.339,16.939a9.926,9.926,0,0,1-7.195,2.782A9.787,9.787,0,0,1,0,9.919V9.864a10.178,10.178,0,0,1,20.343-.058V9.86A9.84,9.84,0,0,1,17.339,16.939ZM6.027,14.083A5.827,5.827,0,0,0,10.2,15.855h0A5.712,5.712,0,0,0,15.942,9.92V9.865A5.8,5.8,0,0,0,6,5.621a5.687,5.687,0,0,0-1.6,4.19v.054A5.777,5.777,0,0,0,6.027,14.083Z"
                                transform="translate(0 0)" fill="#003d4c" fill-rule="evenodd" />
                            <path id="Path_392"
                                d="M0,2.145A5.938,5.938,0,0,0,5.981,4.407,5.711,5.711,0,0,0,10.486,0,55.943,55.943,0,0,0,0,2.145Z"
                                transform="translate(5.542 11.499)" fill="#00a793" fill-rule="evenodd" />
                            <path id="Path_393"
                                d="M18.824,0a10.176,10.176,0,0,1-7.941,8.491A10.385,10.385,0,0,1,0,4.153,32.75,32.75,0,0,1,4.054,2.544,5.771,5.771,0,0,0,9.925,4.809,5.661,5.661,0,0,0,14.347.4C15.834.22,17.333.091,18.824,0Z"
                                transform="translate(1.519 11.096)" fill="#00d0b6" fill-rule="evenodd" />
                        </g>
                    </g>
                </g>
            </g>
            <g id="Group_2" data-name="Group 2" transform="translate(0 16)">
                <rect id="Rectangle" width="64" height="36" rx="4" fill="none" stroke="#003d4c" stroke-miterlimit="10"
                    stroke-width="4" />
                <path id="Path_2" data-name="Path 2" d="M0,.5H17" transform="translate(24 43.5)" fill="none"
                    stroke="#003d4c" stroke-linecap="round" stroke-miterlimit="10" stroke-width="4" />
            </g>
            <g id="Group_10" data-name="Group 10" transform="translate(88 28)">
                <g id="Group_9" data-name="Group 9">
                    <circle id="Oval-3" cx="0.766" cy="0.766" r="0.766" transform="translate(0 0)" fill="#003b4b" />
                    <circle id="Oval_3" cx="0.766" cy="0.766" r="0.766" transform="translate(0 9.191)" fill="#003b4b" />
                    <circle id="Oval_3-2" cx="0.766" cy="0.766" r="0.766" transform="translate(0 19.149)"
                        fill="#003b4b" />
                </g>
                <g id="Group_8" data-name="Group 8" transform="translate(12.255)">
                    <circle id="Oval_" cx="0.766" cy="0.766" r="0.766" transform="translate(0 0)" fill="#1b806d" />
                    <circle id="Oval_4" cx="0.766" cy="0.766" r="0.766" transform="translate(0 9.191)" fill="#1b806d" />
                    <circle id="Oval_4-2" cx="0.766" cy="0.766" r="0.766" transform="translate(0 19.149)"
                        fill="#1b806d" />
                </g>
                <g id="Group_5" data-name="Group 5" transform="translate(24.51 0.383)">
                    <circle id="Oval_2" cx="0.766" cy="0.766" r="0.766" transform="translate(0 0)" fill="#00a792" />
                    <circle id="Oval_5" cx="0.766" cy="0.766" r="0.766" transform="translate(0 8.808)" fill="#00a792" />
                    <circle id="Oval_5-2" cx="0.766" cy="0.766" r="0.766" transform="translate(0 18.766)"
                        fill="#00a792" />
                </g>
                <g id="Group_5_Copy" data-name="Group 5 Copy" transform="translate(36.51 0.383)">
                    <circle id="Oval_2-2" data-name="Oval_2" cx="0.766" cy="0.766" r="0.766" transform="translate(0 0)"
                        fill="#00d5b5" />
                    <circle id="Oval_5-2-2" data-name="Oval_5" cx="0.766" cy="0.766" r="0.766"
                        transform="translate(0 8.808)" fill="#00d5b5" />
                    <circle id="Oval_5-2-3" data-name="Oval_5-2" cx="0.766" cy="0.766" r="0.766"
                        transform="translate(0 18.766)" fill="#00d5b5" />
                </g>
                <g id="Group_5_Copy_2" data-name="Group 5 Copy 2" transform="translate(48.51 0.383)">
                    <circle id="Oval_2-3" data-name="Oval_2" cx="0.766" cy="0.766" r="0.766" transform="translate(0 0)"
                        fill="#00d5b5" />
                    <circle id="Oval_5-3" data-name="Oval_5" cx="0.766" cy="0.766" r="0.766"
                        transform="translate(0 8.808)" fill="#00d5b5" />
                    <circle id="Oval_5-2-4" data-name="Oval_5-2" cx="0.766" cy="0.766" r="0.766"
                        transform="translate(0 18.766)" fill="#00d5b5" />
                </g>
            </g>
        </g>
    </g>
</svg>