<svg xmlns="http://www.w3.org/2000/svg" width="101" height="38" viewBox="0 0 101 38"><g><g><path fill="#fff" d="M33.364 15.761a1.798 1.798 0 1 1-3.597 0v-.165c-.876 1.183-2.083 2.059-3.953 2.059-2.958 0-5.774-2.32-5.774-6.556v-.047c0-4.236 2.769-6.556 5.774-6.556 1.917 0 3.1.876 3.953 1.894V1.799a1.798 1.798 0 1 1 3.597 0zm-9.727-4.71v.048c0 2.106 1.42 3.503 3.1 3.503 1.68 0 3.077-1.397 3.077-3.503v-.047c0-2.106-1.396-3.503-3.077-3.503-1.68 0-3.1 1.373-3.1 3.503zm13.751 9.893c-.52-.19-1.136-.615-1.136-1.49 0-.876.687-1.468 1.42-1.468.284 0 .45.047.592.095.307.094.497.142.757.142.64 0 .947-.119 1.278-.758l.119-.284-4.331-10.034c-.095-.237-.19-.592-.19-.828 0-1.018.781-1.728 1.775-1.728.9 0 1.42.497 1.728 1.35l2.745 7.383 2.65-7.36c.285-.758.805-1.373 1.728-1.373.923 0 1.704.71 1.704 1.657 0 .284-.094.686-.165.852l-4.426 10.626c-1.065 2.58-2.13 3.55-4.284 3.55-.804 0-1.372-.119-1.964-.332zm12.79-4.733a1.434 1.434 0 0 1-.687-1.23c0-.805.616-1.42 1.42-1.42.26 0 .521.07.71.189 1.207.757 2.414 1.136 3.432 1.136 1.041 0 1.515-.379 1.515-.947v-.047c0-.781-1.231-1.042-2.627-1.468-1.775-.52-3.787-1.348-3.787-3.81v-.047c0-2.58 2.083-4.023 4.638-4.023 1.326 0 2.698.355 3.93.97.52.26.851.734.851 1.35 0 .804-.639 1.419-1.444 1.419-.26 0-.426-.047-.662-.166-1.018-.497-1.988-.804-2.745-.804-.876 0-1.326.378-1.326.875v.048c0 .71 1.207 1.041 2.58 1.514 1.775.592 3.834 1.444 3.834 3.763v.047c0 2.817-2.107 4.095-4.852 4.095-1.562 0-3.242-.45-4.78-1.444zm11.796 0a1.434 1.434 0 0 1-.687-1.23c0-.805.616-1.42 1.42-1.42.26 0 .52.07.71.189 1.207.757 2.414 1.136 3.432 1.136 1.041 0 1.514-.379 1.514-.947v-.047c0-.781-1.23-1.042-2.627-1.468-1.775-.52-3.786-1.348-3.786-3.81v-.047c0-2.58 2.082-4.023 4.638-4.023 1.326 0 2.698.355 3.929.97.52.26.852.734.852 1.35 0 .804-.64 1.419-1.444 1.419-.26 0-.426-.047-.662-.166-1.018-.497-1.988-.804-2.746-.804-.875 0-1.325.378-1.325.875v.048c0 .71 1.207 1.041 2.58 1.514 1.775.592 3.834 1.444 3.834 3.763v.047c0 2.817-2.107 4.095-4.852 4.095-1.562 0-3.242-.45-4.78-1.444zm20.688-6.13c-.213-1.609-1.16-2.697-2.674-2.697-1.49 0-2.461 1.065-2.745 2.698zm-2.319 7.621c-3.81 0-6.626-2.674-6.626-6.555v-.048c0-3.62 2.58-6.603 6.271-6.603 4.236 0 6.106 3.48 6.106 6.106 0 1.042-.734 1.728-1.68 1.728H77.29c.355 1.633 1.491 2.485 3.1 2.485.994 0 1.823-.308 2.556-.852.26-.19.497-.284.876-.284.804 0 1.396.615 1.396 1.42 0 .473-.213.828-.473 1.065-1.113.946-2.556 1.538-4.402 1.538zm8.966 3.242c-.52-.19-1.135-.615-1.135-1.49 0-.876.686-1.468 1.42-1.468.283 0 .45.047.591.095.308.094.497.142.757.142.64 0 .947-.119 1.278-.758l.119-.284-4.331-10.034c-.095-.237-.19-.592-.19-.828 0-1.018.782-1.728 1.775-1.728.9 0 1.42.497 1.728 1.35l2.745 7.383 2.65-7.36c.285-.758.805-1.373 1.728-1.373.923 0 1.704.71 1.704 1.657 0 .284-.094.686-.165.852l-4.426 10.626c-1.065 2.58-2.13 3.55-4.283 3.55-.805 0-1.373-.119-1.965-.332z"/></g><g><path fill="#fff" d="M0 9.804v-.047C0 5.047 3.716 1.19 8.827 1.19c5.112 0 8.78 3.81 8.78 8.52v.047c0 4.71-3.715 8.567-8.827 8.567S0 14.514 0 9.804zm13.797 0v-.047c0-2.84-2.083-5.206-5.017-5.206-2.935 0-4.97 2.319-4.97 5.159v.047c0 2.84 2.083 5.206 5.017 5.206 2.935 0 4.97-2.319 4.97-5.159z"/></g><g><path fill="#00d0b6" d="M17.567 10.6c-.413 4.318-3.984 7.724-8.787 7.724-3.332 0-6.05-1.62-7.54-4.052a28.068 28.068 0 0 1 3.515-1.422c.883 1.276 2.327 2.113 4.073 2.113 2.527 0 4.388-1.72 4.855-4.013a68.03 68.03 0 0 1 3.884-.35z"/></g><g><path fill="#fff" d="M4.372 34.516L1.02 25.757H.966c.063.694.095 1.518.095 2.474v6.285H0v-9.88h1.73l3.129 8.15h.054l3.156-8.15h1.717v9.88h-1.15v-6.367c0-.73.032-1.522.095-2.378h-.054l-3.379 8.745zm14.503-3.71c0 1.207-.304 2.15-.913 2.83-.608.677-1.448 1.015-2.52 1.015-.663 0-1.25-.156-1.764-.467a3.077 3.077 0 0 1-1.19-1.338c-.279-.58-.419-1.261-.419-2.04 0-1.208.302-2.147.906-2.819.604-.676 1.442-1.013 2.514-1.013 1.036 0 1.858.344 2.467 1.033.612.69.919 1.622.919 2.798zm-5.643 0c0 .945.189 1.666.568 2.162.378.495.934.743 1.669.743.734 0 1.29-.245 1.669-.736.383-.496.574-1.22.574-2.17 0-.941-.191-1.655-.574-2.142-.378-.491-.94-.737-1.683-.737-.734 0-1.288.241-1.662.724-.374.482-.561 1.2-.561 2.155zm11.21-3.819c.974 0 1.729.333 2.265 1 .54.663.81 1.602.81 2.818 0 1.217-.272 2.163-.817 2.839-.54.671-1.293 1.007-2.257 1.007-.482 0-.924-.088-1.325-.264a2.518 2.518 0 0 1-1-.824h-.08l-.237.953h-.805V24h1.122v2.555c0 .572-.018 1.085-.054 1.54h.054c.523-.739 1.298-1.108 2.325-1.108zm-.161.94c-.766 0-1.318.22-1.656.662-.338.437-.507 1.176-.507 2.216 0 1.041.174 1.787.52 2.237.347.446.904.67 1.67.67.69 0 1.203-.25 1.54-.75.339-.505.508-1.229.508-2.17 0-.964-.17-1.683-.507-2.156-.338-.473-.86-.71-1.568-.71zm6.474 6.589h-1.122v-7.407h1.122zm-1.217-9.414c0-.257.063-.444.19-.561a.655.655 0 0 1 .472-.183c.18 0 .336.061.467.183.13.121.196.308.196.56 0 .253-.066.442-.196.568a.661.661 0 0 1-.467.183.655.655 0 0 1-.473-.183c-.126-.126-.189-.315-.189-.567zm4.866 9.414h-1.122V24h1.122zm5.656.135c-1.095 0-1.96-.334-2.595-1-.631-.667-.947-1.593-.947-2.778 0-1.194.293-2.142.879-2.845.59-.703 1.38-1.054 2.372-1.054.928 0 1.662.306 2.203.919.54.608.811 1.412.811 2.412v.71h-5.102c.022.87.24 1.53.655 1.98.42.45 1.007.676 1.764.676.798 0 1.586-.167 2.365-.5v1a5.73 5.73 0 0 1-1.128.365 6.093 6.093 0 0 1-1.277.115zm-.305-6.738c-.594 0-1.07.194-1.426.581-.35.388-.558.924-.621 1.608h3.872c0-.707-.158-1.248-.473-1.621-.315-.379-.766-.568-1.352-.568zm9.008-3.278h2.791c1.311 0 2.26.196 2.845.588.586.392.879 1.012.879 1.859 0 .585-.165 1.07-.493 1.453-.325.378-.8.624-1.426.736v.068c1.5.257 2.25 1.045 2.25 2.365 0 .883-.3 1.572-.899 2.068-.595.496-1.428.744-2.5.744h-3.447zm1.149 4.23h1.892c.811 0 1.395-.125 1.75-.378.356-.256.534-.687.534-1.29 0-.555-.198-.953-.594-1.197-.397-.247-1.027-.371-1.892-.371h-1.69zm0 .974v3.697h2.061c.798 0 1.397-.154 1.798-.46.405-.31.608-.795.608-1.453 0-.613-.207-1.063-.622-1.352-.41-.288-1.036-.432-1.878-.432zm12.36 4.677l-.223-1.055h-.054c-.37.464-.739.78-1.108.946-.365.163-.823.244-1.372.244-.735 0-1.311-.19-1.73-.568-.415-.379-.622-.917-.622-1.615 0-1.496 1.196-2.28 3.588-2.352l1.257-.04v-.46c0-.581-.126-1.01-.378-1.284-.248-.28-.647-.42-1.196-.42-.617 0-1.316.19-2.095.569l-.345-.859a5.287 5.287 0 0 1 1.196-.466 5.235 5.235 0 0 1 1.311-.169c.883 0 1.537.196 1.96.588.428.392.642 1.02.642 1.885v5.055zm-2.534-.791c.698 0 1.245-.192 1.642-.575.4-.383.601-.919.601-1.608v-.67l-1.122.048c-.891.032-1.536.171-1.932.42-.392.242-.588.623-.588 1.141 0 .406.122.714.365.926.248.212.592.318 1.034.318zm10.9.79v-4.791c0-.604-.137-1.054-.412-1.352-.275-.297-.705-.446-1.291-.446-.775 0-1.343.21-1.703.629-.36.419-.54 1.11-.54 2.075v3.886H65.57v-7.407h.912l.182 1.013h.054c.23-.365.552-.646.967-.844a3.11 3.11 0 0 1 1.385-.304c.892 0 1.564.216 2.014.648.45.428.676 1.115.676 2.061v4.832zm4.69-3.79c.193-.276.488-.636.885-1.082l2.392-2.534h1.332l-3 3.156 3.21 4.25h-1.36l-2.615-3.5-.844.73v2.77h-1.109V24h1.109v5.575c0 .248-.018.631-.054 1.15zm7.433 3.79H81.64V27.11h1.122zm-1.216-9.413c0-.257.063-.444.189-.561a.654.654 0 0 1 .473-.183c.18 0 .336.061.466.183.13.121.196.308.196.56 0 .253-.065.442-.196.568a.66.66 0 0 1-.466.183.654.654 0 0 1-.473-.183c-.126-.126-.19-.315-.19-.567zm8.812 9.414v-4.792c0-.604-.138-1.054-.412-1.352-.275-.297-.706-.446-1.291-.446-.775 0-1.343.21-1.703.629-.36.419-.541 1.11-.541 2.075v3.886h-1.122v-7.407h.913l.182 1.013h.054c.23-.365.552-.646.967-.844a3.11 3.11 0 0 1 1.385-.304c.892 0 1.563.216 2.014.648.45.428.676 1.115.676 2.061v4.832zM100 27.109v.71l-1.372.161c.126.158.239.365.338.622.1.252.149.539.149.858 0 .726-.248 1.305-.744 1.737-.495.433-1.176.649-2.04.649-.221 0-.429-.018-.622-.054-.478.252-.717.57-.717.953 0 .203.084.354.25.453.167.094.453.142.859.142h1.31c.803 0 1.418.169 1.846.506.432.338.648.83.648 1.474 0 .82-.328 1.444-.986 1.872-.658.432-1.618.648-2.88.648-.968 0-1.716-.18-2.243-.54-.522-.36-.784-.87-.784-1.527 0-.451.144-.84.433-1.17.288-.329.694-.552 1.216-.669a1.197 1.197 0 0 1-.48-.398c-.126-.18-.189-.39-.189-.629 0-.27.072-.507.216-.71.145-.202.372-.398.683-.587a2.02 2.02 0 0 1-.94-.805 2.38 2.38 0 0 1-.358-1.297c0-.811.244-1.435.73-1.872.487-.442 1.176-.662 2.068-.662.388 0 .737.045 1.048.135zm-5.906 8.65c0 .4.169.705.506.912.338.207.823.311 1.453.311.942 0 1.638-.142 2.089-.426.455-.279.682-.66.682-1.142 0-.4-.124-.68-.372-.838-.247-.153-.714-.23-1.399-.23H95.71c-.51 0-.906.122-1.19.365-.284.244-.426.593-.426 1.048zm.608-6.278c0 .518.146.91.439 1.176.293.265.7.398 1.223.398 1.095 0 1.642-.531 1.642-1.595 0-1.112-.554-1.669-1.662-1.669-.527 0-.933.142-1.216.426-.284.284-.426.705-.426 1.264z"/></g></g></svg>