<svg xmlns="http://www.w3.org/2000/svg" width="33" height="15" viewBox="0 0 33 15"><g><g><g><g><path fill="#00d0b5" d="M21.76 2.048c1.015 0 2.02.293 2.988.87.57.328 1.042.809 1.33 1.353 1.103 1.919 1.139 4.02.1 5.761-.948 1.592-2.6 2.542-4.417 2.542-1.025 0-2.035-.296-3-.882-.541-.331-1-.8-1.326-1.354-1.102-1.917-1.141-4.011-.107-5.745.936-1.57 2.633-2.544 4.432-2.544zm-3.033-.554c-.06.047-.129.073-.194.1l-.01.004c-.09.035-.182.07-.264.153a4.767 4.767 0 0 0-1.936 1.972c-.983 1.799-1.212 3.776-.646 5.565a6.686 6.686 0 0 0 3.226 3.869h-3.371c-.255-1.77-1.596-3.152-3.26-3.363V4.895c1.712-.292 3.009-1.659 3.226-3.4zm9.358 0c.215 1.749 1.557 3.148 3.262 3.401v4.861c-1.7.248-3.042 1.647-3.262 3.4h-3.193c.063-.049.135-.076.204-.104a.654.654 0 0 0 .262-.152c.839-.505 1.527-1.207 1.937-1.975.983-1.799 1.212-3.776.646-5.564a6.679 6.679 0 0 0-3.225-3.865v-.002zm4.483 11.221V1.932a1.673 1.673 0 0 0-.483-1.244 1.73 1.73 0 0 0-1.239-.51H12.733c-.93 0-1.716.803-1.716 1.754v10.783c0 .95.786 1.753 1.716 1.753h18.113c.933 0 1.722-.802 1.722-1.753z"/></g><g><path fill="#00d0b5" d="M19.84 9.567c0-.227.104-.378.314-.452l.3-.104v-1.12h-.135a.46.46 0 0 1-.337-.143.503.503 0 0 1-.143-.357c0-.138.048-.257.143-.358.095-.1.207-.15.337-.15h.135v-.644c0-.588.15-1.04.45-1.359.32-.339.762-.508 1.327-.508.59 0 1.07.201 1.44.604.12.127.18.272.18.437a.591.591 0 0 1-.166.42.535.535 0 0 1-.404.175.548.548 0 0 1-.413-.182c-.195-.212-.402-.318-.622-.318a.561.561 0 0 0-.427.175c-.13.137-.195.333-.195.588v.611h1.274c.13 0 .243.05.338.151.095.1.142.22.142.358a.503.503 0 0 1-.142.357.46.46 0 0 1-.338.143h-1.274v1.065h1.822c.14 0 .257.053.352.159.1.1.15.225.15.373s-.05.273-.15.373a.465.465 0 0 1-.352.151h-3.142a.473.473 0 0 1-.337-.127.43.43 0 0 1-.128-.318z"/></g><g><path fill="#001f26" d="M3.807 2.445H9.15a.65.65 0 0 0 .646-.658.65.65 0 0 0-.646-.658H3.807a.65.65 0 0 0-.646.658.65.65 0 0 0 .646.658z"/></g><g><path fill="#001f26" d="M9.15 12.204H3.807a.65.65 0 0 0-.646.658.65.65 0 0 0 .646.658H9.15a.65.65 0 0 0 .646-.658c0-.366-.251-.658-.646-.658z"/></g><g><path fill="#001f26" d="M9.831 7.343a.65.65 0 0 0-.645-.658h-7.89a.65.65 0 0 0-.645.658.65.65 0 0 0 .646.658h7.889a.65.65 0 0 0 .645-.658z"/></g></g></g></g></svg>