<svg xmlns="http://www.w3.org/2000/svg" width="27" height="13" viewBox="0 0 27 13"><g><g><path fill="#fff" d="M20.464 3.017c.483.283.876.691 1.117 1.162 2.477 4.395-1.933 8.979-6.161 6.373a3.365 3.365 0 0 1-1.118-1.161c-2.476-4.396 1.933-8.948 6.162-6.374zM9.949 8.93V4.716c1.448-.251 2.535-1.446 2.716-2.924h2.716c-.12.095-.272.095-.393.22a4.122 4.122 0 0 0-1.63 1.698c-1.78 3.332-.392 6.727 2.174 8.11h-2.837c-.211-1.477-1.298-2.703-2.747-2.891zm13.336 2.892h-2.691c.12-.095.272-.095.393-.22.665-.41 1.27-1.006 1.633-1.698 1.784-3.332.393-6.727-2.177-8.11h2.842c.182 1.508 1.3 2.703 2.753 2.923v4.181c-1.482.22-2.571 1.446-2.753 2.924zM25.615.66H10.341c-.787 0-1.452.691-1.452 1.509v9.273c0 .818.665 1.51 1.452 1.51h15.272c.786 0 1.452-.692 1.452-1.51V2.17A1.444 1.444 0 0 0 25.614.66z"/></g><g><path fill="#fff" d="M16.333 8.73c0-.195.089-.325.266-.389l.253-.088v-.964h-.114a.385.385 0 0 1-.285-.123.438.438 0 0 1-.12-.307c0-.119.04-.221.12-.308a.375.375 0 0 1 .285-.13h.114v-.553c0-.505.126-.895.38-1.168.269-.292.642-.437 1.118-.437.498 0 .903.173 1.214.519.102.11.152.234.152.376a.514.514 0 0 1-.139.362.447.447 0 0 1-.341.15.458.458 0 0 1-.348-.157c-.165-.182-.34-.273-.525-.273a.469.469 0 0 0-.36.15c-.11.118-.165.287-.165.505v.527h1.075c.11 0 .205.043.285.13.08.086.12.188.12.307 0 .118-.04.22-.12.307a.384.384 0 0 1-.285.123h-1.075v.916h1.537a.38.38 0 0 1 .297.136.442.442 0 0 1 .126.321.442.442 0 0 1-.126.322.389.389 0 0 1-.297.13h-2.65a.394.394 0 0 1-.284-.11.374.374 0 0 1-.108-.273z"/></g><g><path fill="#fff" d="M2.808 2.605h4.506a.553.553 0 0 0 .544-.566.553.553 0 0 0-.544-.566H2.808a.553.553 0 0 0-.545.566c0 .314.242.566.545.566z"/></g><g><path fill="#fff" d="M7.314 10.993H2.808a.553.553 0 0 0-.545.566c0 .314.242.566.545.566h4.506a.553.553 0 0 0 .544-.566c0-.314-.211-.566-.544-.566z"/></g><g><path fill="#fff" d="M7.894 6.817a.553.553 0 0 0-.545-.566H.696a.553.553 0 0 0-.544.566c0 .315.242.566.544.566h6.653a.553.553 0 0 0 .545-.566z"/></g></g></svg>