<svg xmlns="http://www.w3.org/2000/svg" width="41" height="41" viewBox="0 0 41 41"><g><g ><g opacity=".25"><path fill="#003d4c" d="M37.98 6.58c-.227-1.092-1.185-1.919-2.363-2.04V.15h-5.84v4.39h-20.2c-1.267.022-2.347.872-2.59 2.04L4.07 19.698h2.27v2.665a11.498 11.498 0 0 1 2.409-.428v-2.237h1.298l6.037-7.87 6.021 7.87h14.139v12.643h-3.227V25.81c.06-1.711-1.357-3.15-3.178-3.228a3.207 3.207 0 0 0-2.306.924 3.085 3.085 0 0 0-.935 2.21v6.606h-6.135a9.358 9.358 0 0 1-.38 2.331h16.912c.45-.007.877-.181 1.189-.485.312-.303.483-.711.475-1.133V19.698h2.24z"/></g><g opacity=".25"><path fill="#003d4c" d="M12.164 35.841c-.49.504-1.14.846-1.854.972v1.608H8.85v-1.567a5.083 5.083 0 0 1-2.386-.68l-.146-.095.547-1.427.245.153a4.292 4.292 0 0 0 2.19.612c.999 0 1.692-.516 1.692-1.264s-.489-1.142-1.686-1.597c-1.46-.536-2.824-1.244-2.824-2.815.022-1.318 1.062-2.425 2.452-2.61v-1.56h1.464v1.475a4.72 4.72 0 0 1 2.037.564l.167.095-.57 1.406-.244-.129a3.857 3.857 0 0 0-1.927-.483c-1.096 0-1.46.585-1.46 1.08 0 .613.437.973 1.868 1.523 1.86.68 2.657 1.597 2.657 2.964-.017.659-.29 1.29-.767 1.774zM.16 32.052c.03 4.923 4.295 8.895 9.537 8.88 5.24-.013 9.481-4.008 9.48-8.931-.022-4.954-4.316-8.953-9.59-8.931-5.24.042-9.457 4.06-9.427 8.982z"/></g></g></g></svg>