<svg xmlns="http://www.w3.org/2000/svg" width="23" height="20" viewBox="0 0 23 20"><g><g><g><path fill="#003d4c" d="M9.5 5c0 1.654-1.346 3-3 3s-3-1.346-3-3 1.346-3 3-3 3 1.346 3 3zm2 0c0-2.757-2.243-5-5-5s-5 2.243-5 5 2.243 5 5 5 5-2.243 5-5z"/></g><g><path fill="#003d4c" d="M19.5 15c0 1.654-1.346 3-3 3s-3-1.346-3-3 1.346-3 3-3 3 1.346 3 3zm2 0c0-2.757-2.243-5-5-5s-5 2.243-5 5 2.243 5 5 5 5-2.243 5-5z"/></g><g><path fill="#00d0b5" d="M21 4a1 1 0 0 1 .117 1.993L21 6h-7.5a1 1 0 0 1-.117-1.993L13.5 4z"/></g><g><path fill="#00d0b5" d="M18.293 1.793a1 1 0 0 1 1.32-.083l.094.083L22.914 5l-3.207 3.207a1 1 0 0 1-1.497-1.32l.083-.094L20.085 5l-1.792-1.793a1 1 0 0 1-.083-1.32z"/></g><g><path fill="#00d0b5" d="M2 14.5a1 1 0 0 0-.117 1.993L2 16.5h7.5a1 1 0 0 0 .117-1.993L9.5 14.5z"/></g><g><path fill="#00d0b5" d="M5.121 12.293a1 1 0 0 0-1.32-.083l-.094.083L.5 15.5l3.207 3.207a1 1 0 0 0 1.498-1.32l-.084-.094L3.33 15.5l1.792-1.793a1 1 0 0 0 .084-1.32z"/></g></g></g></svg>