<svg xmlns="http://www.w3.org/2000/svg" width="25" height="22" viewBox="0 0 25 22"><g><g><g><path fill="#003d4c" d="M9.9 5.5c0 1.82-1.48 3.3-3.3 3.3-1.82 0-3.3-1.48-3.3-3.3 0-1.82 1.48-3.3 3.3-3.3 1.82 0 3.3 1.48 3.3 3.3zm2.2 0C12.1 2.467 9.633 0 6.6 0a5.507 5.507 0 0 0-5.5 5.5c0 3.033 2.468 5.5 5.5 5.5 3.033 0 5.5-2.467 5.5-5.5z"/></g><g><path fill="#003d4c" d="M20.9 16.5c0 1.82-1.48 3.3-3.3 3.3-1.82 0-3.3-1.48-3.3-3.3 0-1.82 1.48-3.3 3.3-3.3 1.82 0 3.3 1.48 3.3 3.3zm2.2 0c0-3.033-2.467-5.5-5.5-5.5a5.507 5.507 0 0 0-5.5 5.5c0 3.033 2.468 5.5 5.5 5.5 3.033 0 5.5-2.467 5.5-5.5z"/></g><g><path fill="#003d4c" d="M22.55 4.4a1.1 1.1 0 0 1 .128 2.193l-.128.007H14.3a1.1 1.1 0 0 1-.128-2.192L14.3 4.4z"/></g><g><path fill="#003d4c" d="M19.572 1.973a1.1 1.1 0 0 1 1.452-.092l.104.092L24.656 5.5l-3.528 3.528a1.1 1.1 0 0 1-1.647-1.452l.091-.103L21.544 5.5l-1.972-1.972a1.1 1.1 0 0 1-.091-1.452z"/></g><g><path fill="#003d4c" d="M1.65 15.95a1.1 1.1 0 0 0-.128 2.193l.128.007H9.9a1.1 1.1 0 0 0 .128-2.192L9.9 15.95z"/></g><g><path fill="#003d4c" d="M5.083 13.522a1.1 1.1 0 0 0-1.452-.091l-.103.091L0 17.05l3.528 3.528a1.1 1.1 0 0 0 1.647-1.452l-.092-.104-1.97-1.972 1.97-1.972a1.1 1.1 0 0 0 .092-1.452z"/></g></g></g></svg>