<svg xmlns="http://www.w3.org/2000/svg" width="26" height="32" viewBox="0 0 26 32"><g><g><g><path fill="none" stroke="#003d4c" stroke-linecap="round" stroke-linejoin="round" stroke-miterlimit="20" stroke-width="2" d="M14.125 1.333v0H4c-.796 0-1.559.31-2.121.86A2.9 2.9 0 0 0 1 4.266v23.466a2.9 2.9 0 0 0 .879 2.075c.562.55 1.325.859 2.121.859h18c.796 0 1.559-.31 2.121-.86A2.9 2.9 0 0 0 25 27.734V11.6"/></g><g><path fill="none" stroke="#003d4c" stroke-linecap="round" stroke-linejoin="round" stroke-miterlimit="20" stroke-width="2" d="M18.65 18.018H6.88"/></g><g><path fill="none" stroke="#003d4c" stroke-linecap="round" stroke-linejoin="round" stroke-miterlimit="20" stroke-width="2" d="M18.65 23.912H6.88"/></g><g><path fill="none" stroke="#003d4c" stroke-linecap="round" stroke-linejoin="round" stroke-miterlimit="20" stroke-width="2" d="M14.333 1.333v0H20a5 5 0 0 1 5 5V12H14.333v0z"/></g></g></g></svg>