<svg xmlns="http://www.w3.org/2000/svg" width="20" height="25" viewBox="0 0 20 25"><defs><clipPath id="4qy9a"><path fill="#fff" d="M9.893 14.148c.299.584.631 1.117.996 1.595-.178.016-1.437.174-1.548.187.232-.55.416-1.145.552-1.782zm6.268 3.897c-.136-.017-.397-.083-.814-.33zM4.741 19.42c.155-.163.457-.404.915-.664zm3.734-9.678c.138 1.394.205 4.044-.893 6.128-.09.168-.178.331-.266.488-1.91.565-3.928 1.635-4.264 2.814a1.28 1.28 0 0 0 .332 1.278c.358.359.802.55 1.288.55 1.177 0 2.4-1.082 3.735-3.305.484-.115 3.276-.444 3.863-.437 1.61 1.587 2.912 2.358 3.976 2.358.668 0 1.244-.325 1.58-.894a1.23 1.23 0 0 0 .002-1.26c-.668-1.164-3.27-1.638-4.83-1.746a30.7 30.7 0 0 1-.408-.44c-1.598-1.76-2.25-4.347-2.492-5.698-.03-.31-.065-.567-.094-.755C9.901 8.107 9.436 8 9.167 8a.828.828 0 0 0-.611.267c-.25.273-.212.568-.188.765.023.195.06.45.107.71z"/></clipPath><clipPath id="4qy9b"><path fill="#fff" d="M1.546 23.447V7.47h5.84V1.563h11.058v21.884zM5.842 2.875v3.029h-2.84zM6.407 0L0 6.835V25h20V0z"/></clipPath></defs><g><g><g><path fill="none" stroke="#00a792" stroke-miterlimit="20" stroke-width="2" d="M9.893 14.148c.299.584.631 1.117.996 1.595-.178.016-1.437.174-1.548.187.232-.55.416-1.145.552-1.782zm6.268 3.897c-.136-.017-.397-.083-.814-.33zM4.741 19.42c.155-.163.457-.404.915-.664zm3.734-9.678c.138 1.394.205 4.044-.893 6.128-.09.168-.178.331-.266.488-1.91.565-3.928 1.635-4.264 2.814a1.28 1.28 0 0 0 .332 1.278c.358.359.802.55 1.288.55 1.177 0 2.4-1.082 3.735-3.305.484-.115 3.276-.444 3.863-.437 1.61 1.587 2.912 2.358 3.976 2.358.668 0 1.244-.325 1.58-.894a1.23 1.23 0 0 0 .002-1.26c-.668-1.164-3.27-1.638-4.83-1.746a30.7 30.7 0 0 1-.408-.44c-1.598-1.76-2.25-4.347-2.492-5.698-.03-.31-.065-.567-.094-.755C9.901 8.107 9.436 8 9.167 8a.828.828 0 0 0-.611.267c-.25.273-.212.568-.188.765.023.195.06.45.107.71z" clip-path="url(&quot;#4qy9a&quot;)"/></g><g><path fill="none" stroke="#00a792" stroke-miterlimit="20" stroke-width="2" d="M1.546 23.447V7.47h5.84V1.563h11.058v21.884zM5.842 2.875v3.029h-2.84zM6.407 0L0 6.835V25h20V0z" clip-path="url(&quot;#4qy9b&quot;)"/></g></g></g></svg>