<svg xmlns="http://www.w3.org/2000/svg" width="44" height="30" viewBox="0 0 44 30"><g><g opacity=".25"><path fill="#132f41" d="M16.36 3.764c0-1.644 1.43-2.976 3.195-2.976s3.196 1.332 3.196 2.976-1.43 2.976-3.196 2.976c-1.765 0-3.196-1.332-3.196-2.976zm10.652 11.517c.174.314.203.681.08 1.016a1.322 1.322 0 0 1-.729.753c-.336.162-.727.19-1.085.076a1.368 1.368 0 0 1-.813-.68l-1.992-3.882v1.379c.016 1.992.17 3.98.463 5.953l1.296 8.496c.115.836-.505 1.604-1.393 1.725h-.231c-.814-.016-1.498-.58-1.62-1.337l-1.297-8.496c-.045-.517-.138-1.035-.185-1.553a17.63 17.63 0 0 1-.184 1.553l-1.297 8.496c-.108.764-.8 1.335-1.62 1.337h-.231c-.887-.123-1.505-.89-1.39-1.725l1.294-8.496c.317-1.97.472-3.959.463-5.95v-1.38l-1.992 3.881a1.5 1.5 0 0 1-1.297.734 1.421 1.421 0 0 1-1.186-.623 1.246 1.246 0 0 1-.064-1.275l3.105-6.039c.583-1.11 1.787-1.812 3.104-1.811h2.685c1.32-.008 2.527.696 3.105 1.811zm6.113-11.517c0-1.644 1.431-2.976 3.196-2.976 1.765 0 3.196 1.332 3.196 2.976s-1.43 2.976-3.196 2.976c-1.765 0-3.196-1.332-3.196-2.976zm10.746 11.517c.168.336.172.724.012 1.063-.16.34-.468.597-.846.706-.336.163-.728.19-1.086.077a1.368 1.368 0 0 1-.813-.68l-1.992-3.883v1.853a19.61 19.61 0 0 0 2.501 5.65c.225.298.288.678.17 1.026a1.198 1.198 0 0 1-.772.742c-.277.087-.648.173-1.065.26l.973 6.297c.115.835-.505 1.603-1.392 1.725h-.231c-.815-.016-1.498-.58-1.62-1.337l-.973-6.47h-1.02l-.972 6.47c-.108.764-.8 1.335-1.62 1.337h-.231c-.886-.123-1.505-.89-1.39-1.725l.97-6.295c-.371-.087-.742-.173-1.066-.26a1.198 1.198 0 0 1-.77-.742 1.103 1.103 0 0 1 .168-1.025 18.428 18.428 0 0 0 2.501-5.652v-1.855l-1.992 3.882a1.5 1.5 0 0 1-1.296.734 1.421 1.421 0 0 1-1.187-.622 1.246 1.246 0 0 1-.064-1.276l3.105-6.039c.583-1.11 1.787-1.812 3.105-1.811h2.683c1.32-.008 2.527.697 3.105 1.811zM3.02 10.148c0-1.382 1.202-2.502 2.686-2.502 1.483 0 2.686 1.12 2.686 2.502 0 1.382-1.203 2.502-2.686 2.502-1.484 0-2.687-1.12-2.687-2.502zm8.292 9.059c.229.49.004 1.062-.51 1.294-.523.213-1.133.005-1.389-.475l-1.485-2.89v1.556A13.625 13.625 0 0 0 9.786 22.7c.154.223.192.5.101.752a.9.9 0 0 1-.564.542c-.232.046-.51.13-.788.172l.695 4.66c.048.298-.032.603-.223.846a1.223 1.223 0 0 1-.796.447h-.185c-.606-.009-1.116-.429-1.204-.992l-.743-4.788h-.742l-.743 4.788c-.072.571-.591 1-1.204.992h-.185c-.655-.103-1.106-.675-1.019-1.294l.695-4.7a4.166 4.166 0 0 1-.787-.172.878.878 0 0 1-.584-.537.805.805 0 0 1 .119-.76 12.541 12.541 0 0 0 1.856-4.01v-1.553L2 19.984a1.018 1.018 0 0 1-.926.56 1.459 1.459 0 0 1-.463-.086.985.985 0 0 1-.548-.545.904.904 0 0 1 .039-.749l2.269-4.486c.438-.824 1.336-1.342 2.316-1.337H6.68c.98-.005 1.878.513 2.316 1.337z"/></g></g></svg>