<svg xmlns="http://www.w3.org/2000/svg" width="26" height="27" viewBox="0 0 26 27"><g><g><g><g><path fill="none" stroke="#00d1b6" stroke-linecap="round" stroke-linejoin="round" stroke-miterlimit="20" stroke-width="2.33" d="M9.6 10.071c.566-1.673 2.211-2.678 3.893-2.378 1.682.3 2.911 1.817 2.909 3.59 0 2.426-3.5 3.64-3.5 3.64v0"/></g><g><path fill="none" stroke="#003d4c" stroke-linecap="round" stroke-linejoin="round" stroke-miterlimit="20" stroke-width="2.33" d="M12.997 25.834c6.443 0 11.666-5.43 11.666-12.127 0-6.697-5.223-12.127-11.666-12.127C6.553 1.58 1.33 7.01 1.33 13.707c0 6.698 5.223 12.127 11.667 12.127z"/></g><g/></g><g><path fill="#00d1b6" d="M12.997 20.985c.644 0 1.166-.543 1.166-1.212 0-.67-.522-1.213-1.166-1.213-.645 0-1.167.543-1.167 1.213s.522 1.212 1.167 1.212z"/><path fill="none" stroke="#00d1b6" stroke-linecap="round" stroke-linejoin="round" stroke-miterlimit="20" stroke-width="1.17" d="M12.997 20.985c.644 0 1.166-.543 1.166-1.212 0-.67-.522-1.213-1.166-1.213-.645 0-1.167.543-1.167 1.213s.522 1.212 1.167 1.212z"/></g></g></g></svg>