<svg xmlns="http://www.w3.org/2000/svg" width="16" height="16" viewBox="0 0 16 16"><g><g><g><path fill="none" stroke="#003d4c" stroke-linecap="round" stroke-linejoin="round" stroke-miterlimit="20" stroke-width="2" d="M6.06 6.003a2 2 0 0 1 3.887.667c0 1.333-2 2-2 2v0"/></g><g><path fill="none" stroke="#003d4c" stroke-linecap="round" stroke-linejoin="round" stroke-miterlimit="20" stroke-width="2" d="M8 14.667A6.667 6.667 0 1 0 8 1.333a6.667 6.667 0 0 0 0 13.334z"/></g><g/></g><g><path fill="#003d4c" d="M8 12a.667.667 0 1 0 0-1.333A.667.667 0 0 0 8 12z"/><path fill="none" stroke="#003d4c" stroke-linecap="round" stroke-linejoin="round" stroke-miterlimit="20" d="M8 12a.667.667 0 1 0 0-1.333A.667.667 0 0 0 8 12z"/></g></g></svg>