<svg xmlns="http://www.w3.org/2000/svg" width="44.5" height="44.5" viewBox="0 0 44.5 44.5">
    <g id="Outline" transform="translate(0.25 0.25)">
        <path id="Path_4383" data-name="Path 4383"
            d="M17.422,82.844a1.424,1.424,0,0,1,1.422-1.422H36.618V80H18.844A2.847,2.847,0,0,0,16,82.844v2.844h1.422Z"
            transform="translate(-16 -74.312)" fill="#003d4c" stroke="#003d4c" stroke-width="0.5" />
        <path id="Path_4384" data-name="Path 4384"
            d="M58.533,175.45H17.467V157H16v22.154a2.952,2.952,0,0,0,2.933,2.963H41.107l1.8,6.668H33.093l1.984-6.96-1.415-.389-2.089,7.349h-1.64v1.482H46.067v-1.482h-1.64l-1.8-6.668h14.44A2.952,2.952,0,0,0,60,179.154v-6.668H58.533Zm-1.467,5.186H18.933a1.476,1.476,0,0,1-1.467-1.482v-2.223H58.533v2.223A1.476,1.476,0,0,1,57.067,180.636Z"
            transform="translate(-16 -146.267)" fill="#003d4c" stroke="#003d4c" stroke-width="0.5" />
        <path id="Path_4385" data-name="Path 4385"
            d="M383.821,80H376v1.422h7.821a1.424,1.424,0,0,1,1.422,1.422V100.55h1.422V82.844A2.847,2.847,0,0,0,383.821,80Z"
            transform="translate(-342.665 -74.312)" fill="#003d4c" stroke="#003d4c" stroke-width="0.5" />
        <path id="Path_4386" data-name="Path 4386"
            d="M176.458,25.289a.711.711,0,0,0-.458.665V35.2a7.11,7.11,0,1,0,14.22,0v-9.1a4.265,4.265,0,0,0-1.422-7.9V16h-1.422v2.193a4.265,4.265,0,0,0-1.422,7.9v9.1a2.844,2.844,0,1,1-5.688,0V33.064H182.4a.711.711,0,0,0,.531-1.183l-5.688-6.4a.711.711,0,0,0-.784-.192Zm.964,2.535,3.394,3.818h-1.261a.711.711,0,0,0-.711.711V35.2a4.266,4.266,0,0,0,8.532,0V25.657a.711.711,0,0,0-.427-.651,2.844,2.844,0,0,1,.427-5.361v1.524a1.422,1.422,0,1,0,1.422,0V19.645a2.844,2.844,0,0,1,.427,5.361.711.711,0,0,0-.427.651V35.2a5.688,5.688,0,1,1-11.376,0Z"
            transform="translate(-161.055 -16)" fill="#003d4c" stroke="#003d4c" stroke-width="0.5" />
    </g>
</svg>