<svg xmlns="http://www.w3.org/2000/svg" width="17" height="16" viewBox="0 0 17 16"><g><g><g><path fill="none" stroke="#003d4c" stroke-linecap="round" stroke-linejoin="round" stroke-miterlimit="20" stroke-width="1.5" d="M6.412 15.074a.682.682 0 1 0 0-1.364.682.682 0 0 0 0 1.364z"/></g><g><path fill="none" stroke="#003d4c" stroke-linecap="round" stroke-linejoin="round" stroke-miterlimit="20" stroke-width="1.5" d="M13.912 15.074a.682.682 0 1 0 0-1.364.682.682 0 0 0 0 1.364z"/></g><g><path fill="none" stroke="#003d4c" stroke-linecap="round" stroke-linejoin="round" stroke-miterlimit="20" stroke-width="1.5" d="M.96.76v0h2.727v0l1.827 9.13a1.364 1.364 0 0 0 1.364 1.1h6.627a1.364 1.364 0 0 0 1.364-1.1l1.091-5.721v0H4.369v0"/></g></g></g></svg>