<svg id="local_mall-24px" xmlns="http://www.w3.org/2000/svg" width="22" height="22" viewBox="0 0 22 22">
    <path id="Path_4430" data-name="Path 4430" d="M0,0H22V22H0Z" fill="none" />
    <path id="Path_4431" data-name="Path 4431"
        d="M17.222,5.524H15.444a4.445,4.445,0,1,0-8.889,0H4.778A1.8,1.8,0,0,0,3,7.333V18.19A1.8,1.8,0,0,0,4.778,20H17.222A1.8,1.8,0,0,0,19,18.19V7.333A1.8,1.8,0,0,0,17.222,5.524ZM11,2.81a2.687,2.687,0,0,1,2.667,2.714H8.333A2.687,2.687,0,0,1,11,2.81ZM17.222,18.19H4.778V7.333H17.222ZM11,10.952A2.687,2.687,0,0,1,8.333,8.238H6.556a4.445,4.445,0,1,0,8.889,0H13.667A2.687,2.687,0,0,1,11,10.952Z"
        transform="translate(0)" fill="#fff" />
</svg>