<svg xmlns="http://www.w3.org/2000/svg" width="18" height="24" viewBox="0 0 18 24"><g><g><path fill="#003d4c" d="M8.998 2a6.97 6.97 0 0 1 4.936 2.02A6.867 6.867 0 0 1 16 8.946a6.863 6.863 0 0 1-2.806 5.556C11.82 15.526 11 17.212 11 19.014V22l-3.928.036S7 21.938 7 21.64V19c0-1.804-.81-3.478-2.166-4.478a6.94 6.94 0 0 1-2.832-5.714C2.072 5.172 5.23 2.054 8.896 2h.102zM11 24c1.102 0 2-.896 2-2v-2.986c0-1.174.518-2.26 1.39-2.906a8.965 8.965 0 0 0 3.612-7.162 8.858 8.858 0 0 0-2.662-6.35C13.61.888 11.26.03 8.868 0 4.07.07.092 4.006.002 8.768a8.946 8.946 0 0 0 3.646 7.364C4.494 16.756 5 17.828 5 19v2.64C5 23.262 6.038 24 7 24z"/></g><g><path fill="#003d4c" d="M12 20H6a1 1 0 0 1 0-2h6a1 1 0 0 1 0 2z"/></g></g></svg>