<svg xmlns="http://www.w3.org/2000/svg" width="21" height="20" viewBox="0 0 21 20"><g><g><path fill="#003d4c" d="M4.5 14V3.416l-2.293 2.29-.094.085a1 1 0 0 1-1.32-1.498l4-4 .004-.004A.936.936 0 0 1 4.92.185c.1-.07.21-.122.325-.152h.003a.105.105 0 0 1 .018-.005L5.27.027l.017-.004.005-.001.018-.004h.004l.019-.004h.004l.045-.007h.001l.021-.002h.003a.176.176 0 0 1 .02-.002h.003L5.453 0a1.782 1.782 0 0 1 .106 0l.015.002h.015c.003.002.006.002.009.002l.018.001.005.001.02.003h.003l.023.004a.85.85 0 0 1 .118.027l.021.007h.003a.246.246 0 0 0 .02.007l.004.002.017.006.009.003.013.005a.055.055 0 0 0 .01.005.055.055 0 0 0 .012.004l.013.006.007.004.017.007.004.002.019.01h.002c.042.022.083.048.123.076l.018.013c.001 0 .003 0 .004.002l.015.012.005.004.013.01.01.009.008.006.016.016h.002a.595.595 0 0 1 .042.04l3.995 3.996.083.095a1 1 0 0 1-.083 1.319l-.094.084a1 1 0 0 1-1.32-.084L6.5 3.415V14l-.007.117A1 1 0 0 1 4.5 14zm10.964 6h-.007l-.013-.001-.008-.001h-.014c-.003 0-.005 0-.008-.002H15.4l-.007-.002-.014-.001h-.005l-.051-.009h-.006l-.013-.003-.009-.002-.012-.003-.01-.001-.01-.003-.013-.003c-.003 0-.005-.002-.007-.003-.005 0-.01-.002-.016-.004h-.005a.997.997 0 0 1-.444-.27l-3.986-3.984a1.001 1.001 0 1 1 1.32-1.498l.095.083 2.292 2.291V6a1 1 0 0 1 1.994-.116L16.5 6v10.585l2.293-2.292c.36-.36.927-.388 1.32-.083l.094.083c.36.36.388.928.083 1.32l-.083.095-3.98 3.979A1 1 0 0 1 15.5 20L15.464 20z"/></g></g></svg>