<svg xmlns="http://www.w3.org/2000/svg" width="21" height="20" viewBox="0 0 21 20"><g><g><g><path fill="#003d4c" d="M4.5 14V3.415L2.207 5.707l-.094.084a1 1 0 0 1-1.32-1.498l4-4 .004-.004A1.007 1.007 0 0 1 4.92.186a.99.99 0 0 1 .325-.153h.003l.018-.005.005-.001a.905.905 0 0 1 .04-.009h.004a.983.983 0 0 1 .02-.004h.002l.046-.007h.001l.021-.002h.003A1.032 1.032 0 0 1 5.452 0h.108l.014.002.015.001h.009l.018.003h.005l.021.003h.002a.98.98 0 0 1 .163.038h.002a.967.967 0 0 1 .02.007l.005.002.017.006.007.003a.984.984 0 0 1 .096.043h.002a.98.98 0 0 1 .141.088L6.1.2l.016.012.005.004a.99.99 0 0 1 .013.01l.01.009.008.007.017.014v.001l.043.04 3.995 3.996.083.095a1 1 0 0 1-.083 1.319l-.094.084a1 1 0 0 1-1.32-.084L6.5 3.415V14l-.007.117A1 1 0 0 1 4.5 14z"/></g><g><path fill="#00d0b5" d="M15.464 20a1.36 1.36 0 0 1-.064-.005h-.007a.9.9 0 0 1-.014-.002h-.004a1.002 1.002 0 0 1-.052-.008l-.006-.002-.013-.002a1.357 1.357 0 0 1-.054-.012l-.008-.002a.973.973 0 0 1-.015-.005h-.005a.99.99 0 0 1-.444-.27l-3.985-3.985a1.001 1.001 0 1 1 1.32-1.498l.094.083 2.293 2.292V6a1 1 0 0 1 1.993-.116L16.5 6v10.585l2.293-2.293c.36-.36.928-.387 1.32-.082l.094.082c.36.361.388.928.083 1.32l-.083.095-3.98 3.98a.997.997 0 0 1-.763.313z"/></g></g></g></svg>