<svg xmlns="http://www.w3.org/2000/svg" width="84" height="18" viewBox="0 0 84 18"><g><g><g><g><path fill="#fff" d="M27.985 13.22a1.508 1.508 0 1 1-3.017 0v-.14c-.734.993-1.747 1.728-3.315 1.728-2.48 0-4.843-1.946-4.843-5.499v-.04c0-3.552 2.322-5.498 4.843-5.498 1.608 0 2.6.735 3.315 1.588V1.51a1.508 1.508 0 1 1 3.017 0zm-8.158-3.95v.04c0 1.766 1.191 2.937 2.6 2.937 1.41 0 2.58-1.171 2.58-2.938v-.04c0-1.766-1.17-2.937-2.58-2.937-1.409 0-2.6 1.151-2.6 2.938zm11.534 8.297c-.437-.159-.953-.516-.953-1.25 0-.735.576-1.231 1.19-1.231.24 0 .378.04.497.079.258.08.417.12.635.12.536 0 .794-.1 1.072-.636l.1-.238-3.633-8.416c-.08-.199-.159-.497-.159-.695 0-.854.655-1.45 1.489-1.45.754 0 1.19.418 1.449 1.132l2.303 6.193 2.223-6.173c.238-.635.675-1.151 1.449-1.151s1.429.595 1.429 1.39c0 .237-.08.575-.14.714l-3.711 8.912c-.893 2.164-1.786 2.978-3.593 2.978-.675 0-1.151-.1-1.647-.278zm10.727-3.97a1.202 1.202 0 0 1-.576-1.032 1.17 1.17 0 0 1 1.191-1.191c.218 0 .437.06.596.158 1.012.636 2.024.953 2.878.953.873 0 1.27-.317 1.27-.794v-.04c0-.654-1.032-.873-2.203-1.23-1.489-.437-3.176-1.131-3.176-3.196v-.04c0-2.163 1.747-3.374 3.89-3.374 1.112 0 2.263.298 3.295.814.437.218.715.615.715 1.131 0 .675-.536 1.191-1.21 1.191-.22 0-.358-.04-.557-.139-.853-.416-1.667-.675-2.302-.675-.735 0-1.112.318-1.112.735v.04c0 .595 1.013.873 2.164 1.27 1.489.496 3.216 1.21 3.216 3.156v.04c0 2.362-1.767 3.434-4.07 3.434-1.31 0-2.719-.377-4.01-1.211zm9.893 0a1.202 1.202 0 0 1-.575-1.032 1.17 1.17 0 0 1 1.19-1.191c.22 0 .437.06.596.158 1.013.636 2.025.953 2.878.953.874 0 1.27-.317 1.27-.794v-.04c0-.654-1.031-.873-2.203-1.23-1.488-.437-3.175-1.131-3.175-3.196v-.04c0-2.163 1.746-3.374 3.89-3.374 1.112 0 2.263.298 3.295.814.437.218.715.615.715 1.131 0 .675-.536 1.191-1.211 1.191-.219 0-.357-.04-.556-.139-.853-.416-1.667-.675-2.302-.675-.735 0-1.112.318-1.112.735v.04c0 .595 1.012.873 2.164 1.27 1.488.496 3.215 1.21 3.215 3.156v.04c0 2.362-1.766 3.434-4.069 3.434-1.31 0-2.72-.377-4.01-1.211zm17.353-5.141c-.179-1.35-.973-2.263-2.243-2.263-1.25 0-2.064.893-2.303 2.263zm-1.945 6.391c-3.196 0-5.558-2.243-5.558-5.498v-.04c0-3.037 2.163-5.538 5.26-5.538 3.553 0 5.121 2.918 5.121 5.122 0 .873-.615 1.449-1.41 1.449h-5.974c.298 1.37 1.25 2.084 2.6 2.084.834 0 1.529-.258 2.144-.715.218-.159.417-.238.734-.238.675 0 1.172.516 1.172 1.19 0 .398-.179.696-.397.894-.933.794-2.144 1.29-3.692 1.29zm7.52 2.72c-.436-.159-.953-.516-.953-1.25 0-.735.576-1.231 1.192-1.231.238 0 .377.04.496.079.258.08.417.12.635.12.536 0 .794-.1 1.072-.636l.099-.238-3.632-8.416c-.08-.199-.16-.497-.16-.695 0-.854.656-1.45 1.49-1.45.754 0 1.19.418 1.448 1.132l2.303 6.193 2.223-6.173c.238-.635.675-1.151 1.45-1.151.773 0 1.428.595 1.428 1.39 0 .237-.08.575-.139.714l-3.712 8.912c-.893 2.164-1.786 2.978-3.592 2.978-.675 0-1.152-.1-1.648-.278z"/></g><g><g><path fill="#fff" d="M0 8.225v-.04C0 4.235 3.116 1 7.404 1c4.287 0 7.364 3.196 7.364 7.146v.04c0 3.95-3.116 7.185-7.404 7.185C3.077 15.371 0 12.175 0 8.225zm11.572 0v-.04c0-2.381-1.747-4.366-4.208-4.366-2.461 0-4.168 1.945-4.168 4.327v.04c0 2.381 1.747 4.366 4.208 4.366 2.461 0 4.168-1.945 4.168-4.327z"/></g><g opacity=".5"><path fill="#00a793" d="M3.99 10.783c.741 1.07 1.952 1.773 3.416 1.773 2.12 0 3.68-1.444 4.073-3.366-2.602.313-5.162.82-7.489 1.593z"/></g><g><path fill="#00d0b6" d="M14.735 8.89c-.347 3.622-3.342 6.478-7.37 6.478-2.796 0-5.076-1.358-6.325-3.398.926-.454 1.914-.85 2.948-1.193.741 1.07 1.952 1.773 3.416 1.773 2.12 0 3.68-1.444 4.073-3.366a57.048 57.048 0 0 1 3.258-.294z"/></g></g></g></g></g></svg>