<svg xmlns="http://www.w3.org/2000/svg" width="14" height="14" viewBox="0 0 14 14"><g><g><g><path fill="#003d4c" d="M1.867 4.045v1.46l4.106 2.33a2.089 2.089 0 0 0 2.069 0l4.1-2.334V4.04l.935.43v7.575a.7.7 0 0 1-.7.7H1.633a.7.7 0 0 1-.7-.7V4.47zm12.133 8V3.873L11.2 2.59v2.375L7.57 7.037a1.143 1.143 0 0 1-1.14 0L2.8 4.965V2.59L0 3.873v8.172c0 .902.731 1.633 1.633 1.633h10.734c.902 0 1.633-.731 1.633-1.633z"/></g><g transform="rotate(-29.79 12.5 4.5)"><path fill="#003d4c" d="M11.52 4.233h2.151v.934H11.52z"/></g><g transform="rotate(-60.21 1.5 4.5)"><path fill="#003d4c" d="M.933 3.62h.934v2.151H.933z"/></g><g><path fill="#003d4c" d="M2.802 1.263h8.402V4.97L7.573 7.046a1.142 1.142 0 0 1-1.14 0L2.804 4.97zm4.201 6.86c.365-.002.722-.1 1.036-.284l4.098-2.334V.33H1.87v5.175l4.097 2.343c.316.18.673.276 1.036.275z"/></g><g><path fill="#003d4c" d="M4.67 3.13h4.667v.933H4.67z"/></g></g></g></svg>