<svg xmlns="http://www.w3.org/2000/svg" width="18" height="22" viewBox="0 0 18 22"><g><g><g/><g transform="rotate(180 9 5)"><g><path fill="#00d0b6" d="M13.643 4.636a4.64 4.64 0 0 1-4.637 4.637A4.639 4.639 0 0 1 4.37 4.636 4.638 4.638 0 0 1 9.006 0a4.639 4.639 0 0 1 4.637 4.636zm-7.273 0a2.638 2.638 0 0 0 2.636 2.637 2.639 2.639 0 0 0 2.637-2.637 2.637 2.637 0 0 0-5.273 0z"/></g></g><g transform="rotate(-90 12.5 16.5)"><g><path fill="#00d0b6" d="M9.01 21.18c-.265 0-.52-.106-.708-.293a1.005 1.005 0 0 1-.292-.708l.01-8a1 1 0 0 1 1-.999h7.99a1 1 0 0 1 1 1 9 9 0 0 1-9 9zm1.009-8l-.008 5.928a7.001 7.001 0 0 0 5.928-5.928z"/></g></g><g><g><path fill="#00d0b6" d="M2.057 19.183l6.927-.01a1 1 0 1 1 .002 2l-8 .01c-.265 0-.52-.104-.708-.291a1.006 1.006 0 0 1-.293-.708 9 9 0 0 1 9-9 1 1 0 0 1 0 2 7 7 0 0 0-6.928 5.999z"/></g></g></g></g></svg>