<svg xmlns="http://www.w3.org/2000/svg" width="22" height="14" viewBox="0 0 22 14"><g><g><path fill="#003a4b" d="M19.234 10.72l-3.587-2.241V5.513l3.587-2.241zm-5.117-.803c0 .763-.63 1.378-1.412 1.378H3.689c-.782 0-1.412-.615-1.412-1.378V4.03c0-.763.63-1.378 1.412-1.378h9.016c.782 0 1.412.615 1.412 1.378zm5.96-8.151a1.329 1.329 0 0 0-1.332.048l-3.109 1.935c-.152-1.442-1.402-2.582-2.918-2.582H3.69C2.07 1.167.756 2.47.756 4.052v5.896c0 1.58 1.315 2.885 2.934 2.885h9.028c1.516 0 2.766-1.14 2.918-2.582l3.109 1.94a1.33 1.33 0 0 0 1.331.043 1.27 1.27 0 0 0 .68-1.119v-8.23c0-.467-.261-.896-.68-1.12z"/><path fill="none" stroke="#003a4b" stroke-miterlimit="20" stroke-width=".2" d="M19.234 10.72l-3.587-2.241V5.513l3.587-2.241zm-5.117-.803c0 .763-.63 1.378-1.412 1.378H3.689c-.782 0-1.412-.615-1.412-1.378V4.03c0-.763.63-1.378 1.412-1.378h9.016c.782 0 1.412.615 1.412 1.378zm5.96-8.151a1.329 1.329 0 0 0-1.332.048l-3.109 1.935c-.152-1.442-1.402-2.582-2.918-2.582H3.69C2.07 1.167.756 2.47.756 4.052v5.896c0 1.58 1.315 2.885 2.934 2.885h9.028c1.516 0 2.766-1.14 2.918-2.582l3.109 1.94a1.33 1.33 0 0 0 1.331.043 1.27 1.27 0 0 0 .68-1.119v-8.23c0-.467-.261-.896-.68-1.12z"/></g></g></svg>