<svg xmlns="http://www.w3.org/2000/svg" width="23" height="22" viewBox="0 0 23 22"><g><g><g><g><path fill="none" stroke="#fff" stroke-linecap="round" stroke-linejoin="round" stroke-miterlimit="20" stroke-width="2" d="M8.59 8a3 3 0 0 1 5.83 1c0 2-3 3-3 3v0"/></g><g><path fill="none" stroke="#fff" stroke-linecap="round" stroke-linejoin="round" stroke-miterlimit="20" stroke-width="2" d="M1.5 11c0-5.523 4.477-10 10-10s10 4.477 10 10-4.477 10-10 10-10-4.477-10-10z"/></g></g><g><path fill="#003d4c" d="M10.5 16a1 1 0 1 1 2 0 1 1 0 0 1-2 0z"/><path fill="none" stroke="#fff" stroke-linecap="round" stroke-linejoin="round" stroke-miterlimit="20" d="M10.5 16a1 1 0 1 1 2 0 1 1 0 0 1-2 0z"/></g></g></g></svg>