<svg xmlns="http://www.w3.org/2000/svg" width="16" height="20" viewBox="0 0 16 20"><g><g><g><path fill="none" stroke="#fff" stroke-linecap="round" stroke-linejoin="round" stroke-miterlimit="20" stroke-width="1.5" d="M11.57 3.02v0h1.806c.995.003 1.8.81 1.8 1.805v12.631a1.805 1.805 0 0 1-1.8 1.81H2.545a1.805 1.805 0 0 1-1.805-1.81V4.825c0-.997.808-1.805 1.805-1.805H4.35v0"/></g><g><path fill="none" stroke="#fff" stroke-linecap="round" stroke-linejoin="round" stroke-miterlimit="20" stroke-width="1.5" d="M4.35 2.21a1 1 0 0 1 1-1h5.22a1 1 0 0 1 1 1v1.61a1 1 0 0 1-1 1H5.35a1 1 0 0 1-1-1z"/></g></g></g></svg>